<?xml version="1.0" encoding="UTF-8" standalone="no"?>
<!-- Created with Inkscape (http://www.inkscape.org/) -->

<svg
   width="300mm"
   height="100mm"
   viewBox="0 0 300 100"
   version="1.1"
   id="svg10141"
   xmlns="http://www.w3.org/2000/svg"
   xmlns:svg="http://www.w3.org/2000/svg">
  <defs
     id="defs10138">
    <rect
       x="180.6432"
       y="294.47318"
       width="123.72822"
       height="117.54181"
       id="rect5616" />
    <rect
       x="180.6432"
       y="294.47318"
       width="123.72822"
       height="117.54181"
       id="rect6641" />
    <rect
       x="180.6432"
       y="294.47318"
       width="123.72822"
       height="117.54181"
       id="rect6852" />
    <rect
       x="180.6432"
       y="294.47318"
       width="123.72822"
       height="117.54181"
       id="rect7339" />
    <rect
       x="180.6432"
       y="294.47318"
       width="123.72822"
       height="117.54181"
       id="rect7412" />
    <rect
       x="180.6432"
       y="294.47318"
       width="123.72822"
       height="117.54181"
       id="rect7485" />
  </defs>
  <g
     id="layer1"
     transform="translate(1.1574074,-0.23148148)">
    <path
       style="fill:#ff95e3;fill-opacity:1;stroke:#000000;stroke-width:1.2;stroke-linecap:round;stroke-linejoin:round;stroke-dasharray:none"
       d="m 214.55944,-30.096931 c 0,0 14.81906,1.5099 22.42969,1.46093 7.61063,-0.049 15.03755,-1.35258 23.11719,-1.80468 8.07963,-0.4521 18.09314,-1.04529 25.35156,-0.85938 7.25842,0.18592 18.13281,1.54688 18.13281,1.54688 0,0 -1.45998,14.485821 -1.6543,22.2148407 -0.19431,7.72902003 0.0287,16.37779 0.58008,24.1054703 0.55137,7.72767 2.41891,14.75211 2.64257,22.21484 0.22367,7.46274 -1.31055,22.38672 -1.31055,22.38672 0,0 -15.22747,1.20306 -22.85937,1.16016 -7.6319,-0.0429 -15.21073,-1.0024 -22.85938,-1.41797 -7.64865,-0.41557 -15.39591,-1.20652 -23.03125,-1.07422 -7.63534,0.1323 -22.6875,1.84766 -22.6875,1.84766 0,0 2.7653,-15.25494 2.94336,-22.94532 0.17806,-7.69037 -1.90728,-15.29709 -1.86913,-22.94531 0.0381,-7.6482203 1.90149,-15.10764027 2.08398,-22.7734403 0.1825,-7.6657897 -1.00976,-23.1171807 -1.00976,-23.1171807 z"
       id="path10145-7-7-1-9" />
    <path
       style="fill:#bf6bff;fill-opacity:1;stroke:#000000;stroke-width:1.2;stroke-linecap:round;stroke-linejoin:round;stroke-dasharray:none"
       d="m 253.49611,56.925037 c 0,0 -14.81906,-1.5099 -22.42969,-1.46093 -7.61063,0.049 -15.03755,1.35258 -23.11719,1.80468 -8.07963,0.4521 -18.09314,1.04529 -25.35156,0.85938 -7.25842,-0.18592 -18.13281,-1.54688 -18.13281,-1.54688 0,0 1.45998,-14.485811 1.6543,-22.214841 0.19431,-7.72902 -0.0287,-16.37779 -0.58008,-24.10547 -0.55137,-7.7276703 -2.41891,-14.7521103 -2.64257,-22.21484 -0.22367,-7.46274 1.31055,-22.38672 1.31055,-22.38672 0,0 15.22747,-1.20306 22.85937,-1.16016 7.6319,0.0429 15.21073,1.0024 22.85938,1.41797 7.64865,0.41557 15.39591,1.20652 23.03125,1.07422 7.63534,-0.1323 22.6875,-1.84766 22.6875,-1.84766 0,0 -2.7653,15.25494 -2.94336,22.94532 -0.17806,7.6903797 1.90728,15.2970897 1.86913,22.94531 -0.0381,7.64822 -1.90149,15.10764 -2.08398,22.77344 -0.1825,7.6658 1.00976,23.117181 1.00976,23.117181 z"
       id="path10145-7-7-1-96" />
    <path
       style="fill:#67bfff;fill-opacity:1;stroke:#000000;stroke-width:1.2;stroke-linecap:round;stroke-linejoin:round;stroke-dasharray:none"
       d="m 224.6232,50.012135 c 0,0 -14.81906,-1.5099 -22.42969,-1.460937 -7.61063,0.04896 -15.03755,1.352588 -23.11719,1.804687 -8.07963,0.4521 -18.09314,1.045292 -25.35156,0.859375 -7.25842,-0.185916 -18.13281,-1.546875 -18.13281,-1.546875 0,0 1.45998,-14.48582 1.6543,-22.214844 0.19431,-7.729024 -0.0287,-16.377793 -0.58008,-24.1054673 -0.55137,-7.727674 -2.41891,-14.7521097 -2.64257,-22.2148437 -0.22367,-7.462734 1.31055,-22.386719 1.31055,-22.386719 0,0 15.22747,-1.203057 22.85937,-1.160156 7.6319,0.0429 15.21073,1.002397 22.85938,1.417969 7.64865,0.415572 15.39591,1.206521 23.03125,1.074218 7.63534,-0.132303 22.6875,-1.847656 22.6875,-1.847656 0,0 -2.7653,15.254933 -2.94336,22.945313 -0.17806,7.690379 1.90728,15.2970887 1.86913,22.9453117 -0.0381,7.6482233 -1.90149,15.1076393 -2.08398,22.7734363 -0.1825,7.665798 1.00976,23.117188 1.00976,23.117188 z"
       id="path10145-7-7-1" />
    <path
       style="fill:#c9fff2;fill-opacity:1;stroke:#000000;stroke-width:1.2;stroke-linecap:round;stroke-linejoin:round;stroke-dasharray:none"
       d="m 106.28838,-31.917242 c 0,0 14.81906,1.509901 22.42969,1.460938 7.61063,-0.04896 15.03755,-1.352588 23.11719,-1.804688 8.07963,-0.452099 18.09314,-1.045291 25.35156,-0.859375 7.25842,0.185917 18.13281,1.546876 18.13281,1.546876 0,0 -1.45998,14.485819 -1.6543,22.2148427 -0.19431,7.729026 0.0287,16.377795 0.58008,24.1054693 0.55137,7.727674 2.41891,14.75211 2.64257,22.214844 0.22367,7.462734 -1.31055,22.386719 -1.31055,22.386719 0,0 -15.22747,1.203057 -22.85937,1.160156 -7.6319,-0.0429 -15.21073,-1.002397 -22.85938,-1.417969 -7.64865,-0.415572 -15.39591,-1.206521 -23.03125,-1.074218 -7.63533,0.132303 -22.6875,1.847656 -22.6875,1.847656 0,0 2.7653,-15.254933 2.94337,-22.945313 0.17806,-7.690379 -1.90729,-15.297089 -1.86914,-22.945312 0.0381,-7.6482233 1.90149,-15.1076393 2.08399,-22.7734373 0.18249,-7.6657987 -1.00977,-23.1171887 -1.00977,-23.1171887 z"
       id="path10145-7-9" />
    <path
       style="fill:#b5ff5c;fill-opacity:1;stroke:#000000;stroke-width:1.2;stroke-linecap:round;stroke-linejoin:round;stroke-dasharray:none"
       d="m 75.608283,-41.702553 c 0,0 14.819059,1.5099 22.42969,1.460938 7.610627,-0.04896 15.037547,-1.352588 23.117177,-1.804688 8.07964,-0.452099 18.09315,-1.045291 25.35157,-0.859375 7.25842,0.185917 18.13281,1.546875 18.13281,1.546875 0,0 -1.45998,14.485819 -1.6543,22.214844 -0.19432,7.729025 0.0287,16.3777937 0.58007,24.1054677 0.55137,7.7276743 2.41891,14.7521103 2.64258,22.2148443 0.22367,7.462734 -1.31055,22.386719 -1.31055,22.386719 0,0 -15.22748,1.203057 -22.85938,1.160156 -7.63189,-0.0429 -15.21072,-1.002397 -22.85937,-1.417969 -7.64865,-0.415572 -15.39591,-1.206521 -23.031247,-1.074218 -7.635341,0.132303 -22.687501,1.847656 -22.687501,1.847656 0,0 2.765301,-15.254933 2.943363,-22.945313 0.178062,-7.690379 -1.907281,-15.297089 -1.869137,-22.9453123 0.03814,-7.648223 1.901495,-15.1076387 2.083987,-22.7734367 0.182492,-7.665799 -1.009762,-23.117188 -1.009762,-23.117188 z"
       id="path10145-4" />
    <path
       style="fill:#f1ff69;fill-opacity:1;stroke:#000000;stroke-width:1.2;stroke-linecap:round;stroke-linejoin:round;stroke-dasharray:none"
       d="m 47.429819,62.364851 c 0,0 14.819055,-1.5099 22.429687,-1.460937 7.610633,0.04896 15.037551,1.352588 23.117186,1.804687 8.079638,0.4521 18.093148,1.045292 25.351568,0.859375 7.25842,-0.185916 18.13281,-1.546875 18.13281,-1.546875 0,0 -1.45998,-14.485819 -1.6543,-22.214843 -0.19431,-7.729025 0.0287,-16.377794 0.58008,-24.105468 0.55137,-7.7276743 2.41891,-14.75211027 2.64257,-22.2148443 0.22367,-7.4627337 -1.31055,-22.3867187 -1.31055,-22.3867187 0,0 -15.22747,-1.203057 -22.85937,-1.160156 -7.6319,0.0429 -15.210733,1.002397 -22.859383,1.417969 -7.64865,0.415572 -15.395912,1.206521 -23.031249,1.074218 -7.635337,-0.132303 -22.6875,-1.847656 -22.6875,-1.847656 0,0 2.765301,15.254933 2.943363,22.9453127 0.178062,7.690379 -1.907281,15.297089 -1.869137,22.9453123 0.03814,7.648223 1.901496,15.107639 2.083988,22.773437 0.182492,7.665798 -1.009763,23.117187 -1.009763,23.117187 z"
       id="path10145-7-7" />
    <path
       style="fill:#ffaf51;fill-opacity:1;stroke:#000000;stroke-width:1.2;stroke-linecap:round;stroke-linejoin:round;stroke-dasharray:none"
       d="m 108.35721,-41.092303 c 0,0 -14.819057,1.509899 -22.429689,1.460937 -7.610633,-0.04896 -15.037552,-1.352588 -23.117187,-1.804688 -8.079636,-0.452099 -18.093144,-1.045291 -25.351564,-0.859375 -7.25842,0.185917 -18.132802,1.546875 -18.132802,1.546875 0,0 1.45998,14.485819 1.6543,22.214844 0.19431,7.729025 -0.0287,16.3777937 -0.58008,24.1054677 -0.55137,7.7276743 -2.41891,14.7521103 -2.64257,22.2148443 -0.22367,7.462734 1.31055,22.386719 1.31055,22.386719 0,0 15.227462,1.203057 22.859362,1.160156 7.631901,-0.0429 15.210727,-1.002397 22.859379,-1.417969 7.648652,-0.415572 15.395913,-1.206521 23.03125,-1.074218 7.635337,0.132303 22.687501,1.847656 22.687501,1.847656 0,0 -2.7653,-15.254933 -2.94336,-22.945313 -0.17807,-7.690379 1.90728,-15.297089 1.86913,-22.9453123 -0.0381,-7.648223 -1.90149,-15.1076387 -2.08398,-22.7734367 -0.1825,-7.665799 1.00976,-23.117187 1.00976,-23.117187 z"
       id="path10145-7" />
    <path
       style="fill:#ff4f4f;fill-opacity:1;stroke:#000000;stroke-width:1.2;stroke-linecap:round;stroke-linejoin:round;stroke-dasharray:none"
       d="m 80.223408,64.385096 c 0,0 -14.819055,-1.5099 -22.429687,-1.460937 -7.610633,0.04896 -15.037552,1.352588 -23.117187,1.804687 -8.079636,0.4521 -18.093144,1.045292 -25.3515628,0.859375 -7.258419,-0.185916 -18.132813,-1.546875 -18.132813,-1.546875 0,0 1.459984,-14.485819 1.6543,-22.214844 0.194316,-7.729025 -0.02871,-16.377794 -0.580075,-24.105468 -0.551369,-7.7276743 -2.4189082,-14.7521103 -2.6425742,-22.2148443 -0.223667,-7.4627337 1.3105492,-22.3867187 1.3105492,-22.3867187 0,0 15.227478,-1.203057 22.8593758,-1.160156 7.631897,0.0429 15.210723,1.002397 22.859375,1.417969 7.648652,0.415572 15.395913,1.206521 23.03125,1.074218 7.635337,-0.132303 22.6875,-1.847656 22.6875,-1.847656 0,0 -2.7653,15.254933 -2.943363,22.9453127 -0.178062,7.690379 1.907281,15.2970893 1.869138,22.9453123 -0.03814,7.648223 -1.901496,15.107639 -2.083988,22.773437 -0.182492,7.665799 1.009762,23.117188 1.009762,23.117188 z"
       id="path10145" />
  </g>
  <text
     xml:space="preserve"
     transform="matrix(0.26458333,0,0,0.26458333,183.32398,-59.580294)"
     id="text5614"
     style="font-style:normal;font-variant:normal;font-weight:normal;font-stretch:normal;font-size:96px;font-family:sans-serif;-inkscape-font-specification:'sans-serif, Normal';font-variant-ligatures:normal;font-variant-caps:normal;font-variant-numeric:normal;font-variant-east-asian:normal;white-space:pre;shape-inside:url(#rect5616);fill:#000000;fill-opacity:1;stroke:#000000;stroke-width:3.77953;stroke-linecap:round;stroke-linejoin:round;stroke-dasharray:none;stroke-opacity:1"><tspan
       x="180.64258"
       y="382.05637"
       id="tspan8465">H</tspan></text>
  <text
     xml:space="preserve"
     transform="matrix(0.26458333,0,0,0.26458333,153.8612,-62.526572)"
     id="text6639"
     style="font-style:normal;font-variant:normal;font-weight:normal;font-stretch:normal;font-size:96px;font-family:sans-serif;-inkscape-font-specification:'sans-serif, Normal';font-variant-ligatures:normal;font-variant-caps:normal;font-variant-numeric:normal;font-variant-east-asian:normal;white-space:pre;shape-inside:url(#rect6641);fill:#000000;fill-opacity:1;stroke:#000000;stroke-width:3.77953;stroke-linecap:round;stroke-linejoin:round;stroke-dasharray:none;stroke-opacity:1"><tspan
       x="180.64258"
       y="382.05637"
       id="tspan8467">C</tspan></text>
  <text
     xml:space="preserve"
     transform="matrix(0.26458333,0,0,0.26458333,125.38051,-57.943472)"
     id="text6850"
     style="font-style:normal;font-variant:normal;font-weight:normal;font-stretch:normal;font-size:96px;font-family:sans-serif;-inkscape-font-specification:'sans-serif, Normal';font-variant-ligatures:normal;font-variant-caps:normal;font-variant-numeric:normal;font-variant-east-asian:normal;white-space:pre;shape-inside:url(#rect6852);fill:#000000;fill-opacity:1;stroke:#000000;stroke-width:3.77953;stroke-linecap:round;stroke-linejoin:round;stroke-dasharray:none;stroke-opacity:1"><tspan
       x="180.64258"
       y="382.05637"
       id="tspan8469">T</tspan></text>
  <text
     xml:space="preserve"
     transform="matrix(0.26458333,0,0,0.26458333,94.935635,-61.544479)"
     id="text7337"
     style="font-style:normal;font-variant:normal;font-weight:normal;font-stretch:normal;font-size:96px;font-family:sans-serif;-inkscape-font-specification:'sans-serif, Normal';font-variant-ligatures:normal;font-variant-caps:normal;font-variant-numeric:normal;font-variant-east-asian:normal;white-space:pre;shape-inside:url(#rect7339);fill:#000000;fill-opacity:1;stroke:#000000;stroke-width:3.77953;stroke-linecap:round;stroke-linejoin:round;stroke-dasharray:none;stroke-opacity:1"><tspan
       x="180.64258"
       y="382.05637"
       id="tspan8471">E</tspan></text>
  <text
     xml:space="preserve"
     transform="matrix(0.26458333,0,0,0.26458333,65.800217,-56.306651)"
     id="text7410"
     style="font-style:normal;font-variant:normal;font-weight:normal;font-stretch:normal;font-size:96px;font-family:sans-serif;-inkscape-font-specification:'sans-serif, Normal';font-variant-ligatures:normal;font-variant-caps:normal;font-variant-numeric:normal;font-variant-east-asian:normal;white-space:pre;shape-inside:url(#rect7412);fill:#000000;fill-opacity:1;stroke:#000000;stroke-width:3.77953;stroke-linecap:round;stroke-linejoin:round;stroke-dasharray:none;stroke-opacity:1"><tspan
       x="180.64258"
       y="382.05637"
       id="tspan8473">K</tspan></text>
  <text
     xml:space="preserve"
     transform="matrix(0.26458333,0,0,0.26458333,38.628984,-60.889751)"
     id="text7483"
     style="font-style:normal;font-variant:normal;font-weight:normal;font-stretch:normal;font-size:96px;font-family:sans-serif;-inkscape-font-specification:'sans-serif, Normal';font-variant-ligatures:normal;font-variant-caps:normal;font-variant-numeric:normal;font-variant-east-asian:normal;white-space:pre;shape-inside:url(#rect7485);fill:#000000;fill-opacity:1;stroke:#000000;stroke-width:3.77953;stroke-linecap:round;stroke-linejoin:round;stroke-dasharray:none;stroke-opacity:1"><tspan
       x="180.64258"
       y="382.05637"
       id="tspan8475">S</tspan></text>
</svg>
