<svg width="66.503mm" height="54.291mm" version="1.1" viewBox="0 0 66.503 54.291" xmlns="http://www.w3.org/2000/svg">
 <g transform="translate(-12.17 -21.835)">
  <path d="m13.17 24.38c6.28-4.968 12.085 2.8093 5.7189 8.0295 4.1756 11.57-3.3775 21.204 2.6991 28.608 1.2849 1.5656 4.2937 0.41039 5.8217 1.7397 1.3368 1.163 2.019 3.0722 2.2123 4.8335 0.17816 1.6232 0.0011 3.5195-1.0241 4.7905-1.3006 1.6124-3.6134 2.2671-5.6647 2.5562-2.0564 0.28975-4.5083 0.3579-6.1656-0.89352-1.6632-1.2559-2.6441-3.6237-2.5562-5.706 0.09427-2.2332 1.5146-4.4549 3.2474-5.8667 1.0651-0.86776 2.5783-1.0092 3.9349-1.2261 7.1942-1.15 14.711-0.46234 21.854-0.32694s12.277 0.42178 18.417 0.36056c2.1713-0.02165 4.4769-1.022 6.5093-0.25735 1.9865 0.74745 3.9471 2.3698 4.6186 4.3833 0.777 2.3297 0.31253 5.353-1.2297 7.2642-1.2848 1.5921-3.6559 2.1637-5.6984 2.2798-2.069 0.11758-4.4141-0.30259-5.9968-1.6405-1.2844-1.0858-2.0128-2.899-2.1228-4.5773-0.1224-1.8676 0.35874-4.0301 1.6773-5.3584 1.7023-1.7149 5.1813-0.51984 6.9018-2.2165 7.6048-7.4997 14.011-21.008 10.221-30.368-11.179-0.11361-46.871 4.2188-57.875 1.4982" fill="none" stroke="#454545" stroke-linecap="round" stroke-width="2"/>
 </g>
</svg>
