<svg width="167.03mm" height="264.17mm" version="1.1" viewBox="0 0 167.03 264.17" xmlns="http://www.w3.org/2000/svg">
 <g transform="translate(-2.8575 -31.71)" stroke="#000" stroke-linecap="round" stroke-linejoin="round" stroke-width="1.4023">
  <g>
   <path d="m29.857 238.99c-1.6707-1.0931-3.6007-1.2882-5.4871-1.2525-2.1279 0.12955-3.4657 1.1244-5.0916 2.587-1.3953 1.411-2.7863 2.8856-3.8421 4.6571-0.1954 0.32785-0.3625 0.67667-0.54375 1.015-1.0459 2.2171-1.4145 4.7269-1.7313 7.1909-0.18591 2.1417-0.29576 4.3787 0.33917 6.4479 0.12505 0.40755 0.30852 0.78841 0.46278 1.1826 0.97357 1.9449 2.4823 3.3473 4.3069 4.1396 0.35782 0.15537 0.72989 0.26368 1.0948 0.39551 2.3525 0.63934 4.7109 0.33033 7.0429-0.20213 1.2986-0.44475 2.6547-0.87221 3.8121-1.7162 0.44049-0.32122 0.91838-0.63387 1.2257-1.1174 0.30706-0.48308 0.36732-1.1185 0.55099-1.6778 0.0594-0.0644-0.73605-1.0263-0.79544-0.96192-0.54814 0.0247-1.1071-0.0522-1.6444 0.0742-0.46152 0.10864-0.8767 0.3969-1.3056 0.62018-1.0317 0.53709-2.0116 1.2269-3.1364 1.5007-0.8681 0.24454-0.85088 0.27963-1.7233 0.37339-1.7166 0.18447 0.01881-0.0534-1.7017 0.0597-0.03177 2e-3 -0.04897 0.0596-0.08078 0.0583-0.27583-0.0112-0.54923-0.0633-0.82385-0.095-0.27639-0.0574-0.55679-0.0936-0.82916-0.17233-0.9779-0.28233-2.0909-0.90901-2.7983-1.747-0.16599-0.19661-0.29656-0.42875-0.44484-0.64312-0.27146-0.58868-0.46166-0.91154-0.59588-1.5733-0.2917-1.4382 0.0069-2.9559 0.09079-4.397 0.14857-1.568 0.07592-0.94088 0.26859-2.4465 0.06381-0.49861 0.17394-1.4825 0.30743-2.0002 0.12888-0.49985 0.39752-1.0707 0.59604-1.5316 1.1625-1.8274 2.5899-3.4028 3.992-4.9868 1.2816-1.333 1.7197-1.794 3.511-1.7147 0.54762 0.0345 1.197 0.0695 1.7404 0.12862 1.0043 0.10917 2.0041 0.30295 3.0157 0.30699 0.15451 0.0177 0.37272-2.4845 0.21821-2.5022z" fill="#80add2" style="paint-order:stroke markers fill"/>
   <path d="m30.078 239.29c-0.61941 1.9985-0.69885 4.1586-0.79214 6.2584-0.23103 2.3322-0.02898 4.6697 0.31745 6.9707 0.25167 1.6016 0.53787 3.1962 0.84854 4.7841 0.24505 1.1428 0.46312 2.3001 0.75631 3.4289 0.07488 0.28828 0.05527 0.65275 0.24876 0.85616 0.29964 0.315 0.74154 0.38313 1.1123 0.5747 0.01336 0.0596 0.7496-0.15663 0.73625-0.21625 0.23038-0.34014 0.57692-0.61031 0.69115-1.0204 0.07905-0.2838-0.10119-0.5846-0.16354-0.87379-0.24135-1.1194-0.57023-2.2144-0.84587-3.3227-0.35406-1.4923-0.67559-2.9963-0.89564-4.5231-0.24172-2.1556-0.29736-4.3268-0.40774-6.495 0.03592-2.1256 0.12798-4.3306-0.45783-6.377 0.0028-0.0929-1.1452-0.13776-1.148-0.0448z" fill="#90b7d7" style="paint-order:stroke markers fill"/>
   <path d="m86.421 169.24c0.0072 0.20089-9.61e-4 0.40328 0.0215 0.60269 0.04914 0.43667 0.23315 1.2338 0.31081 1.6481 0.17088 0.91143 0.31286 1.8314 0.45853 2.7484 0.2371 1.4107 0.28925 2.847 0.19029 4.2761-0.12051 1.5871-0.20642 3.179-0.18441 4.7727 0.0053 1.5369 0.10066 3.071 0.08955 4.6078 0.0079 1.4761-0.14476 2.9452-0.20657 4.4182-0.03724 1.2816-0.09328 2.5613-0.21893 3.8356-0.1975 1.4356-0.55755 2.832-0.84656 4.2452-0.30083 1.5574-0.55921 3.1268-0.80289 4.6973-0.36542 1.7462-0.83427 3.4615-1.3199 5.168-0.13487 1.416-0.205 0.7052 0.26773 2.124-0.03062 0.0831 0.99555 0.5789 1.0262 0.49581 1.0753-0.68926 0.6666-0.21479 1.2537-1.3916 0.50378-1.8227 1.032-3.6448 1.2978-5.538 0.2478-1.5193 0.416-3.0558 0.73959-4.5591 0.33831-1.5028 0.61718-3.0243 0.80183-4.5625 0.15277-1.3106 0.19308-2.6308 0.27774-3.9486 0.1282-1.5323 0.22219-3.0698 0.20908-4.61-0.03739-1.5341-0.05154-3.0687-0.12473-4.6015-0.0026-1.5574-0.0087-3.113 0.06727-4.6682 0.0052-0.47941 0.03791-0.95809 0.04289-1.4375 0.01162-1.1095-0.07827-2.2219-0.18416-3.323-0.22721-1.5403-0.55315-3.3326-1.2159-4.7129-0.10257-0.21363-0.23702-0.40505-0.35553-0.60757-0.01974-0.12915-1.6147 0.19132-1.5949 0.32047z" fill="#afdfe2" style="paint-order:stroke markers fill"/>
   <path d="m89.853 198.22c0.14213-0.1602 0.29478-0.309 0.42638-0.48058 0.16218-0.21144 0.2968-0.44885 0.45308-0.66603 0.4953-0.68826 1.0435-1.3764 1.6426-1.9492 0.17882-0.17097 0.37654-0.31418 0.56481-0.47127 0.47158-0.28772 0.60729-0.41813 1.127-0.55371 0.93877-0.2449 2.1306-0.0205 3.0727 0.10818 1.5841 0.33744 3.2741 0.34239 4.7783 1.0776 0.20539 0.1004 0.39385 0.24119 0.59078 0.36179 0.35056 0.3513 0.59396 0.54704 0.85333 1.0015 0.0278 0.0487-0.15541-0.13657-0.13355-0.084 0.0863 0.20744 0.2367 0.3723 0.33653 0.57165 0.24495 0.48913 0.32233 0.80428 0.49105 1.334 0.41817 1.3652 0.56696 2.7929 0.44461 4.2281-0.25371 1.7028-1.1399 3.1239-2.0016 4.4956-0.94353 1.3291-1.8732 2.7099-3.0914 3.7301-0.21176 0.17735-0.43849 0.32998-0.65773 0.49497-0.98091 0.57736-2.0262 1.1031-3.1343 1.2455-0.74078 0.0952-1.3273 0.0402-2.0773 0.0135-1.4561-0.0812-2.8991-0.43649-4.3037-0.86974-0.54258-0.16736-1.0514-0.53444-1.6129-0.56155-0.5609-0.0271-1.0979 0.26945-1.6468 0.40417-0.13175-0.0332-0.54214 2.1004-0.4104 2.1336 0.52605 0.6553 0.92496 1.4834 1.5781 1.9659 0.56758 0.41926 1.2881 0.47403 1.948 0.63878 1.6375 0.40879 3.318 0.41361 4.9835 0.38817 0.45019-0.0462 0.90242-0.0711 1.3506-0.13856 1.8496-0.27811 3.6413-0.96017 5.2266-2.0916 0.28124-0.21828 0.57006-0.42427 0.84371-0.65486 1.4282-1.2034 2.6355-2.7252 3.6668-4.3683 1.0755-1.8401 2.0419-3.7874 2.3399-6.0099 0.0295-0.31512 0.0712-0.62907 0.0885-0.94539 0.0845-1.5471-0.15146-3.0837-0.50754-4.5703-0.26535-0.92104-0.55634-2.0186-1.0542-2.8172-0.74822-1.2003-1.5632-2.1731-2.6842-2.8914-0.30478-0.16606-0.60169-0.35254-0.91434-0.49819-1.7318-0.80677-3.6354-1.005-5.4844-1.0907-0.56221-6e-3 -1.5102-0.0319-2.0776 0.0261-1.3007 0.13304-2.5492 0.56837-3.6399 1.4014-0.25466 0.22845-0.52083 0.44101-0.76398 0.68536-1.0931 1.0985-1.9647 2.5538-2.3959 4.1461-0.07784 0.14453 1.7072 1.405 1.785 1.2605z" fill="#afdfe2" style="paint-order:stroke markers fill"/>
   <path d="m140.85 263.29c-0.9828-1.3533-2.1639-2.4244-3.6201-3.0234-0.27982-0.11509-0.57102-0.1901-0.85653-0.28515-1.0952-0.23414-2.221-0.23504-3.3102 0.0467-0.56138 0.14521-0.90413 0.31392-1.441 0.54196-1.316 0.64292-2.4483 1.6408-3.501 2.7323-1.1574 1.2609-2.1353 2.7052-3.0493 4.1992-0.80189 1.3674-1.4578 2.8164-1.9387 4.3671-0.51139 1.8222-0.6355 3.6657-0.60543 5.5656 0.0582 1.6333 0.44615 3.1974 1.2766 4.5393 0.14912 0.24096 0.32298 0.46057 0.48447 0.69084 0.74169 0.9398 1.7003 1.5657 2.6071 2.2635 1.292 1.1032 2.7932 1.7076 4.356 2.057 1.1683 0.21167 2.3416 0.1166 3.4964-0.13607 0.85009-0.24007 1.7006-0.4876 2.5397-0.77422 1.1366-0.42653 2.1836-1.0951 3.1896-1.8251 0.41658-0.34866 1.0246-0.73409 1.1323-1.404 0.0827-0.51481-0.0831-1.0426-0.12467-1.5638 0.0292-0.0351-0.40483-0.50727-0.43398-0.47211-0.45438-0.0866-0.90262-0.27173-1.3632-0.25997-0.48036 0.0122-0.89817 0.42402-1.2618 0.71681-0.7788 0.58513-1.5754 1.1518-2.4762 1.4587-0.70951 0.26116-1.4191 0.53662-2.1619 0.64644-0.8533 0.0938-1.694-5e-3 -2.5241-0.25929-0.54125-0.14258-1.1023-0.26315-1.6244-0.48619-0.12786-0.0546-0.29398-0.32101-0.37291-0.19351-0.0777 0.12549 0.43822 0.12885 0.34463 0.23919-0.0961 0.11334-0.24853-0.13734-0.3728-0.206-0.71695-0.52595-1.4209-1.0854-2.1005-1.6702-0.7827-0.83081-1.2334-1.7914-1.2848-3.0328-0.014-1.2608-0.0158-0.29835 0.0239-1.6426 0.0283-0.9576-0.0172-1.9297 0.22316-2.8602 0.35733-1.2677 0.88973-2.4593 1.5834-3.5319 0.8248-1.3174 1.6903-2.609 2.67-3.7816 0.76788-0.89249 1.5111-1.667 2.562-2.1004 1.0039-0.40185 2.063-0.61272 3.1059-0.26519 0.66037 0.22733 1.0915 0.44559 1.6976 0.82478 0.1902 0.119 0.38205 0.23451 0.57235 0.35333 0.16215 0.10123 0.30097 0.28879 0.48499 0.30682 0.0826 8e-3 -0.0563-0.17838-0.0845-0.26757 0.0931 0.17474 2.2512-1.3336 2.1581-1.5083z" fill="#6cca8a" style="paint-order:stroke markers fill"/>
   <path d="m46.448 220.15c-0.89092 1.3494-1.504 2.9533-1.7904 4.6145-0.06264 0.36326-0.08662 0.73388-0.12992 1.1008-0.13125 1.8189 0.24736 3.5896 1.0777 5.1475 0.15412 0.28916 0.3391 0.5552 0.50866 0.83279 0.96276 1.3977 2.1277 2.5853 3.3731 3.6414 1.0772 0.88335 2.2807 1.567 3.6047 1.7834 0.24711 0.0404 0.49794 0.041 0.74691 0.0616 1.397 0.0163 2.6931-0.53213 3.9146-1.2581 1.0584-0.71196 1.7864-1.6997 2.4032-2.9126 0.16165-0.31788 0.33814-1.0208 0.43563-1.3739 0.3717-1.2709 0.51062-2.6004 0.59074-3.9306 0.10585-1.7078-0.31656-3.329-0.84172-4.9036-0.33719-0.87883-0.95712-2.723-1.7515-3.1376-0.34248-0.17871-0.74378-0.13248-1.1157-0.19873-0.04685-0.0673-0.87784 0.6914-0.83099 0.75868-0.07784 0.415-0.22947 0.82055-0.2335 1.245-0.0079 0.83523 0.81239 2.1463 1.0166 2.993 0.36768 1.1494 0.72127 2.3314 0.64018 3.5744-0.07827 1.0692-0.27575 2.1189-0.53143 3.1507-0.04668 0.13623-0.08678 0.27565-0.14004 0.40868-0.04724 0.11801-0.27032 0.37716-0.16094 0.34308 0.13973-0.0435 0.14116-0.33362 0.28014-0.38021 0.11314-0.0379-0.11186 0.23872-0.18192 0.34729-0.20466 0.31718-0.33013 0.40691-0.59514 0.66371-0.72161 0.558-1.5151 1.0272-2.3958 1.1186-0.31675-0.0123-0.57541-6e-3 -0.88856-0.0881-0.73583-0.19344-1.4181-0.67015-2.0379-1.1405-1.0054-0.87413-1.9883-1.7957-2.74-2.9716-0.23336-0.38414-0.46294-0.73164-0.6464-1.152-0.35438-0.81192-0.39142-1.7285-0.32279-2.6172 0.12024-0.66597 0.18347-1.0703 0.34539-1.7343 0.26075-1.0692 0.64704-2.0949 0.84997-3.1834 0.04955-0.19862-2.4033-1.0011-2.4528-0.80247z" fill="#d79c73" style="paint-order:stroke markers fill"/>
   <path d="m25.107 217.8c1.426 1.2918 3.176 1.8746 4.9183 2.3309 1.7781 0.37749 3.5768 0.60355 5.3788 0.76219 1.3336 0.13573 2.6681 0.2542 4.0025 0.37551 1.1463 0.10828 2.2959 0.16434 3.4414 0.28197 1.4604 0.17168 2.9282 0.25398 4.3959 0.26021 1.3293 0.074 2.6603 0.0612 3.9903 0.0999 1.0875 0.0396 2.1757 0.0706 3.2637 0.0446 0.94778 5e-3 1.8938-0.0514 2.837-0.15361 0.60749-0.0625 1.198-0.24034 1.7961-0.36465 0.14849-0.0308 0.30321-0.0282 0.44746-0.079 0.16919-0.0596 0.32295-0.16605 0.48443-0.24907 0.10043-0.53504 0.20086-1.0701 0.30128-1.6051 0.02319-4e-3 -0.02244-0.37919-0.04564-0.37549-0.20454-0.4704-0.40909-0.94081-0.61363-1.4112-0.17989-0.0169-0.35945-0.0619-0.53968-0.0506-0.1731 0.0108-0.34019 0.0766-0.51006 0.11621-0.49482 0.11527-0.98686 0.25391-1.4892 0.32034-0.83732 0.11333-1.6795 0.1001-2.5216 0.0992-1.0414-0.0246-2.0825-0.0421-3.1226-0.11083-1.327-0.0753-2.6534-0.17303-3.9829-0.15667-1.4301-0.0699-2.8608-0.15919-4.2925-0.15981-1.1069-0.0205-2.2145-0.0186-3.3202-0.0715-1.3354-0.17794-2.653-0.51908-3.9959-0.63662-1.6815-0.16526-3.3757-0.1717-5.0471-0.44596-1.5745-0.34531-3.0983-0.92177-4.6658-1.3008-0.15314-0.0899-1.2635 2.3901-1.1103 2.48z" fill="#d79c73" style="paint-order:stroke markers fill"/>
  </g>
  <path d="m23.491 138.93c0.1677-1.369-0.0068-2.7499-0.23783-4.0947-0.18188-1.0585-0.54232-2.0498-0.93416-3.0245-0.39508-1.0551-0.87878-2.0549-1.4348-3.0084-0.63224-1.0704-1.4228-1.833-2.4382-2.3782-0.75575-0.35769-1.5642-0.38657-2.3683-0.39785-0.72055 8e-4 -1.5269 0.0777-2.146 0.55462-0.34334 0.26447-0.6591 0.57307-0.98865 0.85962-0.76227 0.81003-1.1605 1.8578-1.4686 2.9698-0.22725 1.0002-0.2864 2.0299-0.26169 3.0587-0.02042 1.0715 0.16582 2.105 0.43774 3.123 0.34622 1.1592 0.9393 2.16 1.6185 3.0922 0.72064 0.88115 1.5446 1.6381 2.3973 2.3434 1.0304 0.88734 2.1922 1.4562 3.4195 1.8704 1.0584 0.28987 2.1431 0.21898 3.2184 0.15205 1.0178-0.0397 2.0274-0.14302 3.0368-0.29547 1.1447-0.16402 2.1845-0.67905 3.1797-1.321 0.80043-0.59862 1.4965-1.3227 2.1499-2.1244 0.36872-0.45244 0.62359-1.0474 0.87208-1.5899 0.39609-0.84518 0.645-1.7513 0.83948-2.6797 0.16088-0.9981 0.24687-2.007 0.24226-3.0215 0.0061-0.86985-0.06134-1.7346-0.20287-2.5886-0.11769-0.70823-0.27855-1.4063-0.45468-2.0981-0.20535-0.81499-0.55128-1.5628-0.88023-2.3176-0.42926-0.85636-0.83984-1.7501-1.4276-2.4835-0.20676-0.25797-0.43924-0.48728-0.65886-0.73092-1.2212-0.95202-0.50915-0.67018-2.1889-0.64528-0.07247-0.0703-0.94089 1.1032-0.86842 1.1736 0.17659 1.8102-0.12764 1.083 0.7182 2.2748 0.62918 0.72369 1.2815 1.431 1.6786 2.3624 0.26464 0.5344 0.49117 1.0952 0.6506 1.6828 0.13875 0.59088 0.25431 1.1881 0.33362 1.7936 0.07792 0.66014 0.07967 1.3242 0.06531 1.9896-0.05394 0.78807-0.11994 1.578-0.25867 2.3532-0.12759 0.60763-0.32822 1.177-0.66446 1.6776-0.1922 0.26977-0.19891 0.29146-0.42697 0.55447-0.09277 0.10698-0.34399 0.17804-0.28519 0.31293 0.05818 0.13344 0.36785-0.41864 0.29194-0.29742-0.12214 0.19505-0.6072 0.63651-0.7573 0.77955-0.65293 0.65121-1.0184 1.0146-1.9133 1.1551-0.92637 0.18281-1.8643 0.28845-2.799 0.39809-0.77571 0.0764-1.5579 0.14853-2.3322 4e-3 -0.92381-0.19551-1.7484-0.7244-2.5387-1.2915-0.68097-0.51954-1.3732-1.0415-1.9435-1.7201-0.45632-0.60064-0.8852-1.2466-1.1063-2.0109-0.21594-0.71742-0.335-1.4549-0.33852-2.216 0.0061-0.72355 0.07561-1.448 0.26957-2.1398 0.16553-0.63375 0.37763-1.0638 0.82822-1.498-0.16012 0.12134-0.30655 0.27062-0.48037 0.36403-0.07874 0.0423 0.07542-0.1863 0.14153-0.25103 0.09491-0.0929 0.2248-0.12891 0.34196-0.15817 0.0884-0.0221 0.17861-0.0332 0.26792-0.0498 0.45668-0.0401 0.92231-0.0805 1.3773-5e-3 0.59762 0.20208 1.0178 0.75354 1.3974 1.2929 0.49618 0.83675 0.91202 1.7257 1.3107 2.6272 0.32249 0.73201 0.63724 1.4675 0.69768 2.2995 0.12668 1.2468 0.14766 2.514 0.41416 3.7368 0.02584 0.21116 2.6336-0.20729 2.6078-0.41845z" fill="#b64141" style="paint-order:stroke markers fill"/>
  <g fill="#90b7d7">
   <path d="m102.81 156.75c0.67101 1.7544 1.9078 3.134 3.3729 4.037 0.34213 0.21085 0.7074 0.36825 1.0611 0.55236 1.9635 0.7853 3.4909 0.51688 5.44-0.0171 1.471-0.43925 2.8404-1.2068 4.1588-2.0571 1.1904-0.81696 2.361-1.7388 3.2776-2.9477 0.18887-0.24912 0.35303-0.52146 0.52955-0.78217 0.93784-1.4224 1.505-3.0721 1.968-4.7564 0.61397-2.0148 0.7456-4.125 0.75095-6.2398-0.0583-1.5583-0.28712-3.0992-0.48381-4.6403-0.22094-1.3153-0.47822-2.6226-0.66021-3.946-0.10689-1.0701-0.25121-2.1342-0.39435-3.1985-0.11419-0.98162-0.17589-1.9706-0.27113-2.9551-0.10323-0.86827-0.29556-1.7206-0.32773-2.598 0.0194-1.0115 0.0311-2.0134-0.0681-3.0204-0.097-0.82955-0.22543-1.6555-0.19628-2.4947 0.0579-0.63333 0.28309-1.2285 0.45302-1.8304 0.28708-1.1122 0.53404-2.2408 0.64634-3.3943-0.57217-1.1225-0.25747-0.5783-0.94604-1.6312 0.0173-0.0508-0.61041-0.33162-0.62775-0.28078-1.0325 0.35761-0.53908 0.12175-1.4812 0.70517-0.3214 1.0347-0.51656 2.1048-0.64098 3.1932-0.15875 0.79269-0.52135 1.514-0.65211 2.318-0.14401 1.0907-0.17292 2.1812 0.0519 3.2636 0.13057 0.8675 0.20189 1.7266 0.10129 2.607 8e-3 0.9985 0.0897 1.9812 0.31104 2.9501 0.13965 0.97632 0.12635 1.9716 0.24338 2.952 0.1158 1.0249 0.30722 2.0399 0.35637 3.0743 0.0953 1.4024 0.30414 2.7837 0.59396 4.1509 0.24955 1.3218 0.4305 2.6586 0.43421 4.0153 0.0304 1.7935-0.10273 3.5954-0.29269 5.3739-0.27619 1.3176-0.63402 2.6162-1.2993 3.7532-0.80961 1.2119-1.725 2.2834-2.8867 3.0572-1.069 0.74756-2.179 1.4239-3.4039 1.7712-1.3425 0.39082-2.2477 0.62781-3.5718-0.0419-0.97187-0.53563-1.9093-1.1564-2.6762-2.0411-0.15365-0.17723-0.28473-0.37848-0.43248-0.56219-0.11115-0.13821-0.2293-0.26881-0.34396-0.40322-0.12744-0.16954-2.2212 1.8944-2.0938 2.064z" style="paint-order:stroke markers fill"/>
   <path d="m119.87 137.08c-0.79044 0.53261-1.505 1.2092-2.327 1.681-0.21875 0.11625-0.23611 0.0116-0.49225-3e-3 -0.3025-0.017-0.43402 7e-3 -0.73726 0.0357-0.67397 0.1344-1.3438 0.29066-2.0161 0.438-0.38848 0.10951-1.7681 0.44842-1.8864 0.92584-0.11138 0.44934 0.0285 0.93363 0.0426 1.4004-0.041 0.0273 0.29617 0.69066 0.33713 0.66335 0.29684 0.2849 0.54888 0.64576 0.89052 0.8547 0.24129 0.14758 1.1708-0.3931 1.4717-0.42607 0.57081-0.15862 1.1345-0.35052 1.7107-0.48295 0.67836-0.0935 1.3758-0.0553 2.0252-0.33646 1.1003-0.55065 2.106-1.3436 2.8195-2.4686 0.14092-0.14885-1.6974-2.4311-1.8384-2.2822z" style="paint-order:stroke markers fill"/>
   <path d="m102.43 237.89c-0.14985 0.15492-0.32421 0.28355-0.44955 0.46477-0.88181 1.275-1.5667 2.7062-1.7646 4.3319-0.0411 0.33746-0.0435 0.67961-0.0653 1.0194-0.0164 1.9764 0.6926 3.7284 1.5701 5.3776 0.73729 1.1962 1.5062 2.3724 2.336 3.4872 0.91479 1.1914 1.8336 1.7515 3.1478 2.165 0.97523 0.23408 1.9802 0.25718 2.9736 0.2807 0.94897 0.037 1.8981 0.0441 2.8446-0.0475 1.2669-0.0987 2.4434-0.61431 3.5324-1.3359 1.1827-0.80748 2.0633-1.9758 2.8173-3.2709 0.86088-1.5496 1.1225-3.2586 1.1394-5.0499 0.064-1.5351-0.16951-3.0153-0.55916-4.4754-0.28614-0.87709-0.64632-1.7236-1.1156-2.4928-0.15467-0.25353-0.30109-0.52005-0.49759-0.73221-0.20579-0.22219-0.41321-0.54093-0.69572-0.55619-0.47761-0.0258-0.92068 0.29596-1.381 0.44393-0.0272-0.0262-0.35093 0.41324-0.32378 0.43946-0.12714 0.52818-0.34694 1.0381-0.38141 1.5846-0.0157 0.24887 0.14045 0.47399 0.23743 0.69743 0.0848 0.19538 0.20766 0.36599 0.3054 0.55328 0.30498 0.58436 0.57121 1.1939 0.78765 1.8283 0.0537 0.17835 0.11832 0.35287 0.16117 0.53503 0.21126 0.89791 0.14741 1.8634 0.1773 2.7815-0.0375 0.49942-0.0823 0.99126-0.18099 1.4808-0.0267 0.13204-0.18345 0.4787-0.092 0.39263 0.12434-0.1171 0.11144-0.3511 0.2062-0.50014 0.0769-0.12091-0.10089 0.27589-0.15133 0.41383-0.41773 0.92878-1.0238 1.766-1.6834 2.4826-0.70864 0.55071-1.4656 0.96631-2.3082 1.1762-0.83236 0.11491-1.6669 0.13173-2.5048 0.10395-0.81083-0.0205-1.625-0.0114-2.4302-0.14087-0.72385-0.14164-1.2156-0.55476-1.6774-1.2099-0.7064-1.0272-1.4081-2.0625-2.0141-3.1723-0.5578-1.0846-1.1136-2.2288-1.059-3.5279 0.0816-0.69153 0.22559-1.3203 0.44726-1.9732 0.0768-0.22626 0.20424-0.43251 0.25051-0.66943 0.0106-0.0542-0.0887 0.0453-0.133 0.0679 0.0558-0.18498 0.11171-0.36995 0.16756-0.55493 0.14811-0.13228-1.4855-2.5309-1.6336-2.3986z" style="paint-order:stroke markers fill"/>
   <path d="m103.03 240.54c1.5075 0.28309 3.0518-0.0123 4.5301-0.37595 0.91902-0.29059 1.8286-0.57862 2.7765-0.70554 1.0969-0.0469 2.1874-0.18269 3.2752-0.34582 1.188-0.16401 2.3668-0.39758 3.5425-0.65014 0.69203-0.1758 1.3775-0.3479 2.0835-0.42393 0.9983-0.0872 1.9971-0.15475 2.988-0.32218 0.97163-0.18398 1.9296-0.42409 2.9098-0.542 0.82952-0.0711 1.6606-0.0454 2.4901 4e-3 0.73766 0.0654 1.4642 0.19825 2.1821 0.40013 0.50815 0.13087 0.99165 0.32889 1.4501 0.60893 0.52557 0.36161 1.0488 0.72512 1.5497 1.1304 0.32273 0.25395 0.37262 0.71437 0.50048 1.1151 0.3142 0.86367 0.64277 1.7116 0.88199 2.6076 0.0143 0.0973 0.0604 0.38864 0.0431 0.29195-0.27127-1.5144-0.0733-0.6997-0.0597-0.43947 9e-3 0.17644-0.0208 0.27733-0.0512 0.45965-0.13561 0.69504-0.19694 1.4057-0.26145 2.113-0.0284 0.54903-0.12433 1.0726-0.32223 1.573-0.32874 0.66351-0.69606 1.3134-1.1031 1.9186-0.48408 0.7313-1.6932 1.6959-1.9434 2.5195-0.13734 0.45215-0.12177 0.94723-0.18266 1.4208-0.09 0.059 0.63948 1.5166 0.72948 1.4575 0.45814 0.0788 0.91649 0.31697 1.3744 0.23656 1.0938-0.19206 2.028-2.0145 2.6105-2.9699 0.45458-0.7946 0.88544-1.6049 1.3106-2.4205 0.37131-0.83461 0.69197-1.7056 0.74162-2.6535 0.0331-0.62412 0.0529-1.2498 0.12291-1.8705 0.0513-0.38076 0.14406-0.75268 0.18318-1.1356 0.0864-0.84623-0.0949-1.6852-0.30022-2.4946-0.28876-1.0023-0.67517-1.961-1.1104-2.891-0.40789-0.84141-0.87767-1.6252-1.587-2.1743-0.60985-0.48198-1.2418-0.92904-1.9173-1.2817-0.63239-0.33384-1.2754-0.64687-1.9464-0.86537-0.87638-0.27448-1.7703-0.46887-2.6785-0.5347-0.97169-0.0949-1.9496-0.11659-2.9227-0.0299-1.0169 0.0968-2.0257 0.26862-3.0305 0.47113-0.95471 0.15676-1.9057 0.34379-2.8645 0.46776-0.70573 0.10945-1.4012 0.30093-2.1136 0.34982-1.2082 0.12279-2.415 0.27355-3.601 0.57575-1.0182 0.229-2.0405 0.43389-3.0748 0.54095-1.0263 0.12995-2.0308 0.39458-3.0384 0.64717-1.3853 0.31661-2.8029 0.53134-4.138 1.0728-0.19417-2e-3 -0.22317 3.1421-0.029 3.1444z" style="paint-order:stroke markers fill"/>
  </g>
  <g>
   <path d="m79.661 235.72c0.05982-0.1953 0.1353-0.38521 0.17948-0.5859 0.05879-0.26707 0.08766-0.54164 0.12844-0.81306 0.2038-1.3567 0.28438-2.7058 0.33448-4.0796-0.01739-1.555-0.16931-3.1071-0.30412-4.6541-0.13331-1.2985-0.243-2.6027-0.27969-3.9098-0.02768-1.3366-0.121-2.6683-0.22869-3.9989-0.15044-1.3201-0.23641-2.6444-0.28668-3.9739-1.68e-4 -1.2464-0.02034-2.4924-0.04353-3.7384-0.04259-1.5542-0.03349-3.1089-0.0547-4.6632-0.07343-1.576-0.11498-3.1535-0.07359-4.7312 0.03377-1.388-0.01911-2.7762-0.02182-4.1644-0.01361-1.2638 0.05727-2.5253 0.08145-3.7883-0.05382-0.34407 0.10094-1.1333-0.04746-1.4578-0.0068-0.0149-0.02835 0.0111-0.04308 0.0113-0.9549 0.0182-1.9099 0.0295-2.8648 0.0442-0.14764 1.3103-0.0043 2.635 0.12084 3.9398 0.14098 1.2499 0.14223 2.503 0.0928 3.7589-0.1368 1.4452-0.44026 2.8586-0.68094 4.2834-0.20572 1.0155-0.12048 2.2106-0.78639 3.0147-0.52671 0.51771-1.0958 0.97911-1.6946 1.3804-0.62887 0.42016-1.3203 0.66593-2.0116 0.91075-0.52904 0.0884-1.0682 0.16395-1.604 0.16886-0.12585 1e-3 -0.50267-8e-3 -0.3772-0.0193 0.16712-0.0149 0.33522 5e-3 0.50282 8e-3 -0.43541 0.0753-0.79376-0.10277-1.1787-0.31175-0.58652-0.32566-1.1653-0.6661-1.7295-1.0398-0.35284-0.28283-0.5826-0.68048-0.68895-1.1522-0.01916-0.87416-0.07012-1.7421-0.18235-2.6072-0.1636-0.82114-0.25047-1.6547-0.27248-2.4957-0.0073-0.66685 0.02164-1.3379 0.14275-1.9912 0.1212-0.64881 0.29949-1.278 0.50621-1.8968 0.33604-0.96489 0.59932-1.9574 0.87206-2.947 0.16656-0.81507 0.49043-1.5767 0.6785-2.3832 0.06652-0.2852 0.23547-0.58278 0.16238-0.86586-0.12132-0.46996-0.46895-0.81993-0.70342-1.2299 0.02085-0.0753-0.90929-0.41287-0.93013-0.33755-0.44497 0.17541-0.94602 0.22279-1.3349 0.52624-0.2385 0.18611-0.30834 0.56012-0.43666 0.85614-0.34743 0.80147-0.48921 1.692-0.75164 2.5291-0.24388 0.938-0.49385 1.874-0.73813 2.8118-0.22856 0.77523-0.43512 1.5596-0.58033 2.3616-0.13692 0.88658-0.24156 1.7807-0.22133 2.6838 0.02558 0.95587 0.11038 1.9007 0.27564 2.8394 0.11268 0.93059 0.17963 1.8645 0.27213 2.7976 0.23226 1.3796 0.69524 2.3502 1.6486 3.2584 0.65886 0.57401 1.385 1.0222 2.1849 1.2836 0.67293 0.3311 1.3087 0.78557 2.0488 0.90802 1.4666 0.0637 2.665 0.10659 4.0527-0.51893 0.88615-0.35289 1.7173-0.84001 2.5042-1.4253 0.85751-0.66062 1.7111-1.355 2.3366-2.3138 0.28179-0.50114 0.44412-0.74136 0.64664-1.291 0.35157-0.95418 0.51889-1.9949 0.70244-3.002 0.22113-1.5646 0.42158-3.1402 0.51442-4.7215 0.04441-1.4125 0.09362-2.8321-0.04546-4.2401-0.11762-1.2035-0.28724-2.3987-0.44086-3.5963-0.95595-0.1458-1.9065-0.34901-2.8678-0.4374-0.01163-1e-3 -0.09847 0.24107-0.13448 0.39867-0.10143 0.44383-0.13471 0.90362-0.17329 1.3585-0.10884 1.3131-0.13792 2.6299-0.11502 3.9488 0.0062 1.3624-0.05557 2.7225-0.06544 4.0846-0.0011 1.6225-0.08457 3.2437-0.0452 4.8666 0.07745 1.534 0.22802 3.062 0.27497 4.5986 0.05125 1.2345 0.03793 2.4668 0.03929 3.7019 0.03206 1.3844 0.15839 2.7575 0.2995 4.1326 0.12426 1.2496 0.27737 2.4957 0.32025 3.7535 0.06684 1.3779 0.07048 2.7621 0.25345 4.1298 0.18852 1.3742 0.45113 2.7331 0.34 4.1365-0.03658 1.3544-0.11422 2.7029-0.05932 4.0584 0.01202 0.29687 0.01507 0.59528 0.05044 0.8897 0.02878 0.23958 0.09425 0.47147 0.14137 0.7072-0.01491 0.19353 2.3751 0.43494 2.39 0.24141z" fill="#d589d2" style="paint-order:stroke markers fill"/>
   <path d="m163.47 269.77c0.22924-2.4694 2e-3 -4.9613-0.20745-7.4224-0.10052-2.3453-0.17653-4.694-0.18657-7.0425 3e-3 -1.4716 4e-3 -2.9432 0.01-4.4148-8.7e-4 -1.4744 0.0208-2.9489 0.0183-4.4232 0.0212-1.4993 0.10343-3.0026-8e-3 -4.499-0.26477-0.84113-3e-3 -0.3805-1.347-0.58141 6e-5 -0.0322-0.39719-0.033-0.39724-7.9e-4 -1.3551 0.20315-1.0812-0.25756-1.3654 0.59236-0.14185 1.4882-0.0725 2.9852-0.0622 4.4793-0.0241 1.498-0.032 2.9974 0.01 4.4951 0.0559 1.4013 0.10673 2.8085-0.0447 4.2052-0.19307 2.4823-0.27262 4.9722 0.0299 7.4507 0.2039 2.4537 0.40567 4.9409 1.0297 7.3094 9e-3 0.20413 2.5302 0.0562 2.5211-0.14787z" fill="#afdfe2" style="paint-order:stroke markers fill"/>
   <path d="m162.97 282.96c-0.10805 0.66436-0.10083 1.342-0.14184 2.0146-0.0276 0.45293-7e-3 0.89545-0.19004 1.3029-0.0336 0.0177-0.064 0.0506-0.1009 0.053-0.0869 6e-3 -0.12606-0.16802-0.15498-0.22615-0.0176-0.0353-0.0949-0.0981-0.0595-0.10121 0.1815-0.0156 0.36235 0.0399 0.54353 0.0598-0.39284-0.0756-0.75192-0.29025-1.1168-0.46329-0.19289-0.0732-0.293-0.15839-0.39267-0.3586-0.18167-0.43413-0.19132-0.93091-0.22017-1.4029-5e-3 -0.44649 0.2049-0.85736 0.47074-1.1696 0.1855-0.38874 0.971 0.39641 1.0688 0.26004 0.1694-0.23622 0.11657-0.59656 0.17484-0.89486 0.0713 0.0512 0.70413-1.1033 0.63285-1.1545-0.3727-0.471-0.65154-1.0687-1.1181-1.413-0.24478-0.18068-0.58183-0.08-0.8723-0.056-0.93763 0.0776-1.7121 0.65224-2.2873 1.47-0.53446 0.88983-0.89918 1.8505-0.89342 2.9525 0.0163 0.92805 0.14519 1.8437 0.53617 2.6703 0.32867 0.62874 0.70875 1.2171 1.2981 1.5502 0.50272 0.27667 1.0171 0.53199 1.5325 0.77692 0.37162 0.0663 0.7397 0.16831 1.1149 0.19899 0.76524 0.0625 1.5884-0.48445 2.0329-1.1668 0.13282-0.20391 0.21828-0.44316 0.32742-0.66472 0.15511-0.58143 0.25143-0.83243 0.29705-1.4433 0.0789-1.0566-0.10965-2.1356-0.44766-3.1141-0.0198-0.16469-2.0538 0.15539-2.034 0.32007z" fill="#afdfe2" style="paint-order:stroke markers fill"/>
   <path d="m46.545 178.98c-1.1681 0.33487-2.2058 1.0653-3.3071 1.6004-0.72786 0.31915-1.5044 0.44063-2.263 0.62637-0.80988 0.26903-1.6146 0.55541-2.4339 0.78722-1.0589 0.28087-2.0783 0.71253-3.1184 1.0671-0.84368 0.31172-1.7091 0.52708-2.5811 0.70337-0.92798 0.16896-1.8608 0.29929-2.7954 0.40917-1.0181 0.16504-2.0416 0.28705-3.0675 0.36462-0.77717 0.0569-1.5564 0.0796-2.3349 0.10444-0.8685 0.0725-1.7311-0.0587-2.5933-0.1556-0.87024-0.13639-1.7553-0.2307-2.5964-0.53309-0.67206-0.29975-1.3044-0.69714-1.9696-1.0144-0.16766-0.12741-1.0469-0.38105-1.088-0.62185-0.0086-0.0379 0.03953-0.0645 0.03509-0.10019-0.0264-0.2122-0.30331-0.58234-0.40603-0.77635-0.19351-0.28929-0.2292-0.63372-0.30736-0.97339-0.09217-0.39499-0.26215-0.75758-0.44503-1.1058-0.17866-1.0398 0.25227 1.1417 0.14504 0.31433-8e-3 -0.47443 0.07081-0.94702 0.16025-1.4083 0.13984-0.62429 0.23828-1.2577 0.33754-1.8912 0.07312-0.34982 0.34146-0.56667 0.56592-0.7921 0.4365-0.44548 0.83391-0.93266 1.2031-1.4509 0.18508-0.29752 0.38458-0.5651 0.64092-0.78176 0.49051-0.35627 1.0137-0.64632 1.5524-0.89232 0.28991-0.28221 0.82554-0.0867 1.0955-0.39801 0.30581-0.35256 0.44623-0.85241 0.66934-1.2786 0.09853-0.0291-0.26051-1.6246-0.35904-1.5956-0.42934-0.23518-0.81894-0.6134-1.288-0.70557-0.16172-0.0318-1.165 0.4888-1.3667 0.58886-0.69618 0.3943-1.372 0.83092-1.9965 1.3627-0.41061 0.35831-0.80533 0.7425-1.1185 1.2168-0.28563 0.38606-0.57524 0.77263-0.92353 1.0871-0.64236 0.63901-1.2498 1.3273-1.5213 2.2788-0.16648 0.66403-0.26022 1.344-0.40354 2.0149-0.09353 0.65675-0.2014 1.3098-0.21632 1.9776-0.0273 0.89567 0.14226 1.7972 0.59547 2.541 0.08472 0.21699 0.12107 0.45265 0.19024 0.67671 0.17723 0.57758 0.43945 1.1101 0.76963 1.5925 0.29242 0.43656 0.57559 0.89628 0.96956 1.2206 0.50917 0.40105 1.0644 0.69534 1.6373 0.95916 0.73636 0.39288 1.4798 0.78327 2.2594 1.0501 1.0101 0.32314 2.0143 0.69493 3.0717 0.75214 0.21974 0.011 0.43926 0.0335 0.65921 0.0331 0.70303-1e-3 1.3946-0.17362 2.0968-0.17254 0.81741 0.0165 1.6343 0.0756 2.452 0.017 1.0712-0.0792 2.1412-0.17964 3.2044-0.35292 0.955-0.1806 1.912-0.34766 2.8653-0.54007 0.96139-0.18367 1.9273-0.35765 2.8655-0.66766 1.0235-0.3627 2.0352-0.76519 3.0509-1.1553 0.78561-0.30161 1.5721-0.59766 2.355-0.9082 0.80282-0.30276 1.6389-0.40313 2.4561-0.64289 1.2458-0.4797 2.4155-1.2023 3.3601-2.2657 0.13374-0.0618-0.62938-2.2276-0.76311-2.1658z" fill="#90b7d7" style="paint-order:stroke markers fill"/>
   <path d="m53.018 175.23c0.55936-0.47523 1.093-1.4485 1.8188-1.5795 0.05 0.35742 0.29084 0.62224 0.50089 0.88653 0.4084 0.52683 0.96296 0.85357 1.4359 1.2912 0.01216 0.0266 0.03577 0.0499 0.03647 0.0799 0.0011 0.046-0.0823 7e-3 -0.12044-7e-3 -0.02378-9e-3 -0.06913 7e-3 -0.07279-0.0216-0.05104-0.39565 0.03024-0.90242-0.03421-0.44982-0.10677 0.47357-0.16087 0.96305-0.29999 1.4264-0.18182 0.4263-0.55536 0.58586-0.92297 0.73426-0.41342 0.23004-1.0626-0.29661-1.4438-0.15446-0.32804 0.12235-0.56935 0.44639-0.85402 0.66958-0.08035-0.0199-0.32596 1.2812-0.24562 1.3011 0.25646 0.38083 0.41643 0.88187 0.76938 1.1425 0.53717 0.39668 1.9932 0.0648 2.5832-0.14996 0.89192-0.43897 1.5775-0.97492 2.0917-1.9378 0.2735-0.62128 0.42243-1.269 0.50727-1.957 0.20565-1.2363 0.12638-2.1008-0.68826-2.9571-0.36782-0.3522-0.78146-0.62534-1.1507-0.97033-0.57871-0.92898-1.3035-1.603-2.3509-1.6348-0.22238 0.0318-0.44983 0.0328-0.66715 0.0955-1.1968 0.34541-2.089 1.4692-2.5889 2.7077-0.09169 0.13733 1.6044 1.6222 1.6961 1.4848z" fill="#90b7d7" style="paint-order:stroke markers fill"/>
  </g>
  <g fill="#6cca8a">
   <path d="m164.71 177.53c-0.21822-0.066-0.43215-0.15486-0.65468-0.19823-0.7378-0.1438-1.3568-0.14172-2.1088-0.12649-1.2418 0.0251-2.4671 0.1566-3.699 0.32579-1.0561 0.14052-2.1008 0.38068-3.1542 0.54114-0.91824 0.13988-1.8472 0.19469-2.7695 0.28976-1.2004 0.0545-2.3957 0.23375-3.5955 0.29377-0.37558 0.0188-1.3187 0.0169-1.6962 0.018-1.7774-0.10179-3.5462-0.33331-5.3278-0.31404-2.1773 0.0849-4.3541 0.17437-6.5316 0.25574-2.2808 0.0577-4.5609-0.049-6.8373 0.15276-0.24002 0.30471-0.48002 0.60942-0.72002 0.91414-0.0825 5e-3 -0.0254 1.3408 0.057 1.3361 0.23708 0.2842 0.47415 0.56839 0.71122 0.85257 2.3059 0.18992 4.6167 0.38331 6.9301 0.26009 0.93067-0.0638 1.6704-0.10109 2.5954-0.21672 1.2469-0.15586 2.4872-0.44009 3.7463-0.43793 1.7885 0.11302 3.5699 0.34297 5.3626 0.35525 1.8245-4e-3 3.6463-0.13664 5.4629-0.32634 2.0165-0.1827 4.0246-0.48671 6.0236-0.8384 1.1754-0.19575 2.3489-0.40218 3.5265-0.57986 0.78307-0.11816 1.2575-0.16021 2.014-0.361 0.22217-0.0589 0.43768-0.14703 0.65652-0.22055 0.12199 7.9e-4 0.13025-1.9749 8e-3 -1.9755z" style="paint-order:stroke markers fill"/>
   <path d="m143.97 181.87c2.1036 2.9862 4.8838 5.2225 7.6197 7.3816 2.1169 1.3966 4.3652 2.9728 6.832 3.3846 0.22657 0.0378 0.45667 0.0389 0.68501 0.0583 0.16948-0.0252 0.34982-3e-3 0.50845-0.0756 0.35189-0.16156 0.90001-0.19923 1.0014-0.61757 0.1836-0.75766-0.0732-1.5884-0.28562-2.3361-0.0623-0.21944-0.74585-0.43973-0.91947-0.28722-0.24441 0.21468-0.35671 0.57519-0.53506 0.86278-0.0332-9e-3 -0.14843 0.52892-0.11519 0.53825-0.0163 0.34216-0.057 0.68393-0.0491 1.0265 2e-3 0.0906 0.0816 0.34674 0.0802 0.25607-0.0104-0.68802-0.25384-1.4241-0.033-2.064 0.41431-1.2005 1.156-0.0808 0.838-0.53595-2.198-1.1275-4.2179-2.6315-6.2192-4.1554-2.702-1.9466-5.327-4.0954-8.2517-5.5892-0.13294-0.0936-1.2894 2.0592-1.1564 2.1528z" style="paint-order:stroke markers fill"/>
   <path d="m143.73 180.98c-0.99937 1.4173-1.7184 3.0646-2.4624 4.6666-0.39572 0.70701-0.56434 1.5762-1.0098 2.2495-0.11864 0.17929-0.25868 0.30639-0.40448 0.45489-0.91001 0.69818-1.6683 1.5963-2.4084 2.5109-0.74741 0.84964-1.5374 1.6527-2.3466 2.4248-0.71406 0.66505-1.4316 1.3243-2.1154 2.0305-0.5257 0.57033-1.0706 1.1159-1.6418 1.6254-0.52035 0.3818-1.0845 0.65953-1.5904 1.0685 0.0309 0.39279 0.0618 0.78559 0.0927 1.1784-0.0477 0.033 0.36005 0.80524 0.40774 0.77222 0.24427 0.23177 0.48854 0.46353 0.73281 0.69529 0.62906-0.30622 1.247-0.65583 1.8315-1.0615 0.67467-0.51656 1.3072-1.097 1.8896-1.7456 0.63954-0.68126 1.3408-1.2593 2.0559-1.8314 0.89321-0.82153 1.7208-1.7176 2.5157-2.6622 0.72422-0.81493 1.396-1.6927 2.1681-2.449 0.96365-0.93509 1.5891-2.0083 2.176-3.2851 0.76492-1.7221 1.6405-3.4419 1.9454-5.3644 0.0789-0.14868-1.7573-1.4264-1.8362-1.2777z" style="paint-order:stroke markers fill"/>
  </g>
  <g>
   <path d="m4.4766 243.32c-0.27921 1.5689-0.25692 3.1893-0.18107 4.7813 0.032522 0.91218 0.22186 1.8089 0.25553 2.7194-0.047027 1.1185-0.081128 2.2378-0.10611 3.3572-0.019915 0.967-0.014892 1.9337 9.435e-4 2.9006 0.016471 1.0804-0.095371 2.154-0.12643 3.2334-0.014599 1.1906-0.00719 2.381-0.017996 3.5715-0.022529 1.056-0.16136 2.1-0.26846 3.147-0.10396 1.418-0.20669 2.8375-0.27313 4.2587-0.030007 1.4393-0.00713 2.8777-0.11395 4.313-0.11865 1.4012-0.11118 2.8042-0.00878 4.2047 0.043242 0.69312 0.11222 1.3824 0.22773 2.0646 0.13046 0.70918 0.18909 1.4316 0.26218 2.1506 0.10374 0.7356 0.16923 1.4747 0.2381 2.215 0.11366 0.90715 0.3213 1.7882 0.55495 2.6626 0.17688 0.68889 0.48255 1.3167 0.73348 1.9708 0.22789 0.59201 0.44436 1.1871 0.71172 1.7576 0.28295 0.60719 0.69532 1.0762 1.1786 1.4734 0.32716 0.24205 0.6741 0.44005 1.0254 0.63046 0.38511 0.23533 0.80489 0.34912 1.2338 0.4158 0.30232 0.0384 0.60766 0.038 0.91086 0.0156 0.91193 0.0106 1.7092-0.56833 2.3752-1.232 0.24065-0.2779 1.2512-1.2517 1.2312-1.5974-0.02401-0.41563-0.29955-0.75919-0.44932-1.1388 0.03528-0.0906-1.0839-0.66206-1.1192-0.57142-0.3823 0.0241-0.77533-0.0334-1.1469 0.0723-0.10645 0.0303-0.74423 0.96022-0.93648 1.0933-0.29445 0.26743-0.57728 0.2628 0.36629-0.11678 0.02325-9e-3 -0.03098 0.0472-0.0338 0.0752-0.01713 0.17007 0.05853-0.0371 0.0052 0.0917-0.14914 0.0289-0.30038 0.0428-0.44882 0.0769-0.15714 4e-3 -0.31878 4e-3 -0.46944-0.0456-0.25359-0.12216-0.49473-0.27678-0.73674-0.42564-0.19883-0.0899-0.2027-0.0151-0.31569-0.34806-0.23491-0.51033-0.43704-1.0412-0.65915-1.5587-0.21292-0.52665-0.39505-1.0639-0.54552-1.6192-0.18705-0.73767-0.35548-1.4848-0.48756-2.2376-0.12816-0.69675-0.12917-1.4076-0.19821-2.1136-0.081485-0.80067-0.22065-1.584-0.38736-2.3666-0.096728-0.49378-0.13733-0.97503-0.0737-1.482 0.10983-1.3514 0.22607-2.7035 0.21715-4.0633-0.011189-1.436 0.078239-2.8641 0.13701-4.298 0.023511-1.3414 0.00552-2.6837 0.14565-4.0188 0.083836-1.112 0.17338-2.2242 0.19809-3.3407 0.06987-1.1959 0.12506-2.3925 0.13941-3.5913 0.00777-1.0899-0.03689-2.1762-0.067467-3.2652 0.010639-0.9276 0.072854-1.8525 0.12495-2.778 0.039846-1.2538 0.043973-2.5213-0.15657-3.7593-0.12908-0.81055-0.20307-1.623-0.15006-2.4494 0.00307-1.58-0.03904-3.1735-0.30947-4.7268 0.00672-0.20129-2.4793-0.31003-2.486-0.10873z" fill="#d2c580" style="paint-order:stroke markers fill"/>
   <path d="m27.377 209.86c-0.10471-1.0604-0.39062-2.082-0.58825-3.1222-0.10678-0.45191-0.0033-0.89266 0.05411-1.3432 0.02936-0.66741 0.09401-1.3254 0.17812-1.9862 0.11879-0.64392 0.18787-1.3018 0.33325-1.9389 0.27118-0.6154 0.56411-1.2173 0.87475-1.8076 0.30327-0.57965 0.61555-1.1612 1.0607-1.6119 0.48713-0.40058 1.0233-0.72224 1.5623-1.021 0.78709-0.30351 1.5208-0.85046 2.3359-1.0468-0.124-0.0765 0.63708 0.0643 0.47964 0.12561-0.32257 0.12547-0.92609-0.12394-0.99692 0.25763-0.09712 0.52322 0.45945 0.93151 0.68981 1.3968 0.27247 0.5504 0.5458 1.1002 0.8187 1.6504 0.58344 1.1905 0.83578 1.6866 1.3716 2.8444 0.12486 0.26977 0.23842 0.54631 0.36484 0.81513 0.04419 0.0939 0.07022 0.33353 0.14666 0.27252 0.12011-0.0958 0.04002-0.34286 0.11865-0.48429 0.17048-0.3066 0.40935-0.55565 0.61402-0.83347 0.68383-0.38996 0.35059-0.35326 1.3061 0.10841 0.01507 7e-3 -0.0021 0.0378 0.0011 0.0562 0.0067 0.0384 0.01969 0.075 0.02858 0.11283 0.1077 0.45801 0.06658 0.22059 0.07492 0.84377-0.03954 0.14685-0.08833 0.29085-0.11862 0.44055-0.0058 0.0284 0.03229-0.0455 0.04394-0.0714 0.05484-0.12181 0.11334-0.24238 0.15517-0.37078 0.15513-0.47627 0.20102-0.95953 0.23114-1.4615 0.06172-0.99252 0.06086-1.9906 0.14683-2.9808 0.04961-0.45573 0.10282-0.93929 0.41589-1.2566 0.43968-0.50855 0.92325-0.95273 1.4161-1.3905 0.55881-0.45279 1.0519-1.1189 1.7291-1.3431 0.5633-0.0807 1.1299-0.018 1.6933 0.0284 0.63316 0.12864 1.3432 0.19342 1.8894 0.61809-0.21206-0.13201-0.42545-0.26126-0.63618-0.39604-0.0376-0.0241 0.08048 0.0369 0.11661 0.0637 0.04563 0.0339 0.09073 0.0709 0.12701 0.11729 0.0812 0.10385 0.14696 0.22233 0.22338 0.33083 0.25944 0.36832 0.35725 0.48483 0.64049 0.84967 0.44617 0.62632 1.0328 1.1348 1.396 1.8354 0.13208 0.93013 0.15419 1.8838 0.20078 2.8253 0.03777 1.0435 0.11405 2.0844 0.15792 3.1274 0.04286 0.77229 0.02981 1.5344-0.07841 2.2976-0.14845 0.79947-0.33121 1.588-0.4483 2.3948-0.06531 0.74753-0.15534 1.4877-0.27787 2.2254-0.17235 0.86574-4.62e-4 0.74285 0.66731 1.3666-0.0279 0.10358 1.2513 0.55539 1.2792 0.45182 1.0036-0.16524 1.0348 0.0195 1.3092-1.0191 0.1666-0.76142 0.28368-1.534 0.37591-2.3118 0.11625-0.77146 0.27308-1.5342 0.44011-2.2931 0.17796-1.0018 0.29654-2.0164 0.21964-3.041-0.04594-1.0144-0.12847-2.028-0.10435-3.0445-0.03566-1.3352-0.08658-2.6877-0.43476-3.973-0.37962-1.1759-0.93928-2.1306-1.7306-3.003-0.33371-0.3719-0.6898-0.72543-1.0176-1.1029-0.13062-0.1504-0.42385-0.58398-0.57692-0.70436-0.36597-0.28781-0.76071-0.52442-1.1411-0.78663-1.0137-0.49087-2.0667-0.79186-3.1772-0.7563-0.91246 0.0326-1.8338 0.13829-2.7019 0.48012-0.99313 0.47363-1.9038 1.1187-2.6661 1.999-0.51018 0.61112-1.0122 1.2268-1.5436 1.8146-0.60544 0.88581-1.0413 1.8534-1.1745 2.9842-0.13801 1.1379-0.21458 2.2887-0.09411 3.4347 0.03058 0.26822 0.03103 0.38483 0.08242 0.36175 0.04067-0.0183 0.04354-0.0867 0.06569-0.12985 0.01921-0.0374 0.08078-0.14653 0.05837-0.11159-0.02914 0.0454-0.05845 0.0917-0.07861 0.14315-0.08442 0.21542-0.15627 0.43702-0.23441 0.65555-0.01054 0.2676-0.05292 0.53604-0.0316 0.80278 0.10058 1.258 1.1156 2.028 2.1082 2.2948 0.31643 0.085 0.64822-0.0558 0.97233-0.0838 0.3601-0.32453 0.79292-0.56486 1.0803-0.9736 0.21846-0.31072 0.30345-0.72453 0.38609-1.112 0.41547-1.9481-0.63845-4.2134-1.3379-5.8804-0.53247-0.94303-1.4685-2.7992-2.299-3.5078-0.76494-0.65264-1.6422-1.1199-2.5086-1.577-0.29709-0.15673-1.2508 0.0841-1.5696 0.14485-0.99631 0.34904-1.9469 0.81089-2.8347 1.4423-0.72883 0.4723-1.434 0.98652-2.0513 1.6408-0.63414 0.69926-1.1842 1.48-1.6044 2.3704-0.37316 0.82151-0.72045 1.6639-0.97561 2.5439-0.20443 0.78747-0.38378 1.5862-0.43187 2.4096-0.0642 0.68675-0.06854 1.3731-0.07313 2.0629-0.02739 0.68283-0.16698 1.3566-0.12494 2.0438 0.07745 1.281 0.29933 2.5617 0.84663 3.697 0.05588 0.22466 2.8304-0.68038 2.7745-0.90504z" fill="#6cca8a" style="paint-order:stroke markers fill"/>
   <path d="m113.1 206.46c-0.64549 2.1618-0.6079 4.4774-0.53298 6.7306 0.0854 1.3188 0.22925 2.6295 0.23354 3.9531-0.0122 1.3197-0.0833 2.636-0.0979 3.9556-0.0764 1.572-0.0329 3.1412 0.059 4.7104 0.0675 0.48253 0.0448 0.95248 4.6e-4 1.4317 3e-3 0.0229-4e-3 0.0834 0.0116 0.0688 0.0364-0.0335 0.0446-0.094 0.0668-0.14102 0.92577 0.15402 1.8439 0.39097 2.7773 0.46205 0.073 6e-3 0.0273-0.1647 0.0372-0.24772 0.0368-0.30966 0.0571-0.61858 0.0815-0.9299 0.11214-1.4486 0.0515-2.902-0.0452-4.3486-0.15789-1.2742-0.082-2.5231 0.10809-3.7828 0.15895-1.0762 0.46838-2.1111 0.81497-3.1242 0.17614-0.47342 0.32282-0.97439 0.63638-1.3581 0.0545-0.0667 0.53793-0.55079 0.55068-0.56366 0.58099-0.66056 1.2138-1.2575 1.9242-1.7248 0.59921-0.43556 1.2439-0.75426 1.9144-1.0118 0.90728-0.36419 1.8278-0.73161 2.7813-0.89202 0.48808-0.0358 0.98506-0.0601 1.468 0.0512 0.0659 0.0152 0.2586 0.0834 0.19389 0.0628-0.22707-0.0723-0.45398-0.1453-0.68097-0.21794 0.49009 0.33039 0.92325 0.81051 1.335 1.2623 0.43711 0.41474 0.74667 0.93735 1.0349 1.4882 0.38775 0.73485 0.73368 1.5068 0.89586 2.349 0.12003 0.55402 0.0666 1.1126 0.0124 1.671-0.0881 0.93203-0.16091 1.8656-0.23106 2.7996-0.0622 0.78069-0.14513 1.5591-0.21657 2.3388-0.0651 0.73189-0.16333 1.4591-0.24504 2.1887-0.0155 0.46742-0.20306 1.6313-0.0298 2.0271 0.23516 0.53719 0.74984 0.8654 1.1485 1.1932-2e-3 0.0655 0.80742 0.0875 0.80879 0.0221 0.31631-0.22616 0.94061-0.60733 1.172-0.99968 0.17668-0.29967 0.12809-1.394 0.22642-1.7826 0.0613-0.71003 0.11265-1.4212 0.18207-2.1303 0.10899-0.79968 0.27864-1.5883 0.34483-2.3955 0.0927-0.95736 0.13107-1.9144 0.12601-2.8776 0.0192-0.81281 0.17437-1.6189 0.10625-2.4355-0.16845-1.4172-0.52005-2.5028-1.2871-3.6443-0.42637-0.644-0.78092-1.3484-1.2581-1.9501-0.67748-0.88087-1.3981-1.7205-2.323-2.2626-0.40547-0.14431-0.80703-0.30385-1.2164-0.43296-0.91825-0.28961-1.9198-0.16983-2.8425-5e-3 -0.47444 0.13083-0.80632 0.20864-1.2659 0.38732-0.64777 0.25183-1.2526 0.61925-1.8871 0.9082-0.82864 0.40349-1.6547 0.82458-2.398 1.4147-0.84678 0.68765-1.6836 1.4012-2.3794 2.2914-0.65883 0.9173-1.2282 1.903-1.6102 3.0141-0.4128 1.2165-0.77171 2.4572-0.98763 3.7413-0.23083 1.5098-0.35896 3.0331-0.17606 4.5625 0.0987 1.3607 0.11323 2.7225 0.17496 4.0849 0.0231 0.32764 0.0666 1.1729 0.0907 1.1824 2.6755 1.0546 2.3842 1.7164 2.9384 0.42269 0.18681-0.66041 0.26073-1.3593 0.31841-2.0476 0.0961-1.565 0.14442-3.1304 0.0664-4.6987-0.0182-1.3123-0.0982-2.6201-0.12778-3.932 3e-3 -1.3381 0.0922-2.6759 0.0496-4.0149-0.0177-2.157 0.0758-4.344-0.27219-6.4739 0.0217-0.20889-2.5581-0.55933-2.5797-0.35044z" fill="#d2c580" style="paint-order:stroke markers fill"/>
   <path d="m56.526 256.56c-0.16505-0.15816-0.30938-0.35005-0.49515-0.47446-1.2632-0.84595-2.6586-1.4669-4.139-1.476-0.28975-2e-3 -0.578 0.0478-0.867 0.0716-1.3452 0.25323-2.5636 0.98594-3.7115 1.7973-0.82684 0.60181-1.7595 0.97552-2.5989 1.5493-0.238 0.16266-0.46314 0.34881-0.69471 0.52321-1.2638 0.97867-2.0616 2.2129-2.7236 3.7563-0.34501 1.0161-0.91064 1.8893-1.4636 2.7654-0.76648 1.1671-1.2835 2.4942-1.7424 3.8463-0.4382 1.3565-0.81646 2.7339-1.1304 4.1346-0.32464 1.4972-0.46729 3.0297-0.54822 4.5658-0.06421 1.6444 0.0051 3.3079 0.36639 4.9083 0.09107 0.40337 0.21543 0.7959 0.32315 1.1938 0.6174 1.9485 1.4236 3.5718 2.644 5.0962 0.89973 1.0663 2.0189 1.8158 3.1781 2.4481 0.98541 0.55851 2.0416 0.91797 3.0856 1.3006 1.0575 0.41378 2.1344 0.50805 3.2491 0.49061 0.33712-5e-3 0.88761-0.13287 1.2187-0.20026 1.0559-0.28786 2.0841-0.70654 3.0966-1.1515 1.142-0.42635 2.17-1.1042 3.1393-1.9046 0.96344-0.82075 1.8916-1.6944 2.7008-2.7121 0.64511-0.86331 1.0663-1.892 1.5347-2.8825 0.3156-0.70843 0.68101-1.3858 1.0231-2.0778 0.39248-0.8731 0.66123-1.8035 0.88919-2.747 0.21582-0.98379 0.37898-1.9812 0.53203-2.9799 0.10681-0.7861 0.1953-1.5753 0.29555-2.3625 0.10139-0.79949 0.06607-1.6084 0.04922-2.4126 3e-3 -0.89908-0.03013-1.7851-0.14425-2.675-0.16039-0.97739-0.39227-1.9348-0.64654-2.8847-0.21768-0.70249-0.40385-1.4168-0.60972-2.1238-0.23576-0.84542-0.57-1.6464-0.90548-2.4442-0.28485-0.72239-0.70385-1.3531-1.172-1.9308-0.54695-0.66557-1.0514-1.3735-1.5926-2.0448-0.35353-0.36036-0.99168-1.0997-1.4816-1.1391-0.53516-0.043-1.0515 0.24439-1.5773 0.36658-0.0672-0.0589-0.79432 1.0293-0.72712 1.0882 0.04129 0.42438-0.01771 0.8781 0.12389 1.2731 0.13737 0.38322 0.72493 0.35807 0.87345 0.73761 0.59986 0.61631 1.1394 1.2972 1.7261 1.929 0.2655 0.28845 0.54489 0.53653 0.67596 0.94653 0.26013 0.75512 0.54277 1.4972 0.84265 2.2322 0.20835 0.64746 0.4288 1.2944 0.5623 1.9687 0.19227 0.86715 0.37112 1.7382 0.5882 2.5981 0.1525 0.72921 0.1188 1.4848 0.16274 2.229 0.03099 0.62169 0.04822 1.2442-0.01754 1.8643-0.07952 0.75289-0.2307 1.4924-0.35765 2.2361-0.14226 0.90776-0.28829 1.8154-0.46739 2.7146-0.15239 0.68624-0.3212 1.3759-0.62414 1.9983-0.33861 0.71155-0.72755 1.3903-1.0698 2.0998-0.3547 0.73677-0.67694 1.5069-1.2302 2.082-0.72154 0.78986-1.4882 1.528-2.3044 2.187-0.7945 0.57582-1.617 1.1064-2.5109 1.4551-0.85997 0.31519-1.7087 0.70231-2.6066 0.85331-0.13319 0.0164-0.26588 0.0393-0.39957 0.0489-0.12616 9e-3 -0.48802-0.0665-0.37918 7e-3 0.12802 0.0866 0.35123-0.0949 0.44492 0.0373 0.08774 0.12385-0.27862 7e-3 -0.41778 0-0.13916-6e-3 -0.2785-0.0159-0.41651-0.0371-0.14373-0.0222-0.28496-0.0619-0.42744-0.0929-0.92903-0.2996-1.8502-0.63556-2.7626-0.99526-0.84627-0.42619-1.6641-0.93004-2.399-1.5771-0.25878-0.29697-0.42273-0.4579-0.631-0.81498-0.54732-0.93832-0.91265-2.0103-1.2582-3.0588-0.28335-0.8748-0.61958-1.7692-0.78733-2.6866-0.12676-0.69321-0.09597-1.4141-0.09648-2.1163 0.04785-1.3251 0.14414-2.6549 0.4003-3.9511 0.2709-1.2703 0.65563-2.5043 1.0035-3.749 0.36333-1.1232 0.80059-2.2094 1.425-3.1777 0.57764-1.0147 1.1612-2.0262 1.5737-3.1477 0.50722-1.0975 1.0786-1.6523 1.964-2.3801 0.9829-0.76182 1.9673-1.5128 3.0273-2.1296 0.81355-0.50041 1.603-1.1212 2.5568-1.1571 0.61439 0.0199 1.1641 0.10541 1.7587 0.29899 0.23532 0.0766 0.45691 0.22219 0.70016 0.25205 0.04917 6e-3 -0.01282-0.11232-0.01923-0.16847 0.19 0.0431 0.38 0.0863 0.57 0.12952 0.137 0.14968 1.9856-2.069 1.8486-2.2187z" fill="#6cca8a" style="paint-order:stroke markers fill"/>
   <path d="m146.44 210.84c-0.48153 1.7798-0.42934 3.6726-0.35478 5.5129 0.062 1.3594 0.14995 2.7148 0.18266 4.0755-0.0415 1.4536-0.0633 2.9076-0.0912 4.3615-0.0342 1.5201 0.0273 3.0404 0.0226 4.56-0.0286 1.1705-0.18567 2.3279-0.33674 3.4837-0.20607 1.3629-0.301 2.7423-0.4379 4.1154-0.17054 1.8712-0.47168 3.7219-0.66961 5.5884-0.23966 1.949-0.60214 3.8744-0.8107 5.8286-0.0704 1.4146-0.22157 2.8192-0.36458 4.2257-0.0792 1.0235-0.16826 2.0541-0.14684 3.0834 8e-3 0.36015-0.0992 0.77006 0.0636 1.0783 0.22578 0.42735 0.67309 0.63545 1.0096 0.95317 2e-3 0.0791 0.97903 0.0466 0.97702-0.0325 0.32605-0.32438 0.75693-0.54834 0.97814-0.97314 0.15217-0.29219 0.0466-0.67846 0.059-1.0184 0.035-0.96108 9e-3 -1.9248 0.0476-2.8858 0.0413-1.3127 0.0605-2.6355 0.32524-3.9209 0.39768-1.9582 0.83457-3.9101 1.0265-5.9136 0.20714-1.8819 0.24989-3.7759 0.35456-5.6677 0.0972-1.3452 0.25328-2.6836 0.39303-4.0237 0.1065-1.2349 0.2218-2.469 0.30412-3.7065 0.0903-1.543 0.12166-3.0892 0.099-4.6357-0.0397-1.4671-0.0988-2.9321-0.21132-4.3945-0.0201-1.3665-0.0572-2.733-0.10226-4.0988-0.0425-1.2801-0.10076-2.5548-0.20353-3.8303-0.0233-0.28999-0.0311-0.58194-0.0663-0.87035-0.0286-0.23371-0.0832-0.46226-0.12473-0.6934 0.0125-0.15563-1.9096-0.35719-1.9221-0.20155z" fill="#d589d2" style="paint-order:stroke markers fill"/>
   <path d="m149.05 214.07c0.93881-0.72747 1.4715-1.8965 2.104-2.9333 0.35459-0.58125 0.54319-0.81951 0.92676-1.346 0.1532-0.14142 0.29511-0.30057 0.45959-0.42427 0.35354-0.26586 0.83766-0.47493 1.2194-0.65949 0.67315-0.32546 1.3465-0.63356 2.034-0.91679 0.95294-0.43164 1.9342-0.71345 2.9448-0.88963 1.0102-0.12594 2.02-0.10339 3.0087 0.16998 0.36938 0.14366 0.48235 0.17632 0.83768 0.35921 0.12769 0.0657 0.47744 0.10081 0.37685 0.21229-0.10256 0.11367-0.25085-0.20571-0.39323-0.19413-0.12072 0.01 0.21637 0.12535 0.31821 0.20023 0.11147 0.0819 0.21358 0.17949 0.32037 0.26922 0.70021 0.64054 1.2659 1.4585 1.783 2.2914 0.38314 0.64992 0.66738 1.3214 0.73734 2.1039 0.0806 1.0917 0.0658 2.1867 0.0401 3.2807-3e-3 0.90344-0.14817 1.7835-0.45554 2.6134-0.40293 0.99595-0.9989 1.8519-1.5947 2.7019-0.69272 0.93886-1.4284 1.8342-2.1753 2.7163-0.79136 0.92334-1.5308 1.8979-2.3833 2.7507-0.68279 0.67095-1.4979 1.0618-2.3246 1.4329-0.84597 0.31011-1.7029 0.6923-2.5868 0.84335-0.55637 0.0951-1.1441 0.0778-1.7031 0.084-0.33149-0.0374-2.0235-0.26539-2.2882-0.12898-0.41119 0.21196-0.61875 0.75135-0.92813 1.127-0.0679-0.0363-0.51638 1.0633-0.44849 1.0996 0.60245 0.579 1.1176 1.3041 1.8073 1.737 0.84154 0.52815 2.0729 0.37818 2.9764 0.35787 0.38407-0.0612 0.77149-0.0995 1.1522-0.18379 1.3766-0.30468 2.7002-0.8944 3.9561-1.5934 1.0277-0.60675 2.0644-1.2227 2.9562-2.0757 0.89968-0.91293 1.6847-1.9487 2.4894-2.9692 0.80529-0.95767 1.6315-1.8969 2.34-2.9538 0.76435-1.1069 1.4699-2.2829 1.9077-3.6119 0.36875-1.1617 0.61367-2.3527 0.67765-3.5912 0.0815-1.2964 0.0471-2.5972-0.10811-3.886-0.17117-1.1843-0.44021-2.3399-0.99229-3.3756-0.62244-1.2162-1.3766-2.3141-2.31-3.2426-0.18596-0.16565-0.76108-0.69171-0.973-0.82656-0.99076-0.63045-2.0172-1.1494-3.1367-1.3769-1.3319-0.21465-2.6767-0.22301-3.9946 0.12928-1.1396 0.29302-2.2663 0.65797-3.384 1.0437-1.8861 0.76086-3.3438 1.5038-4.6501 3.3337-0.9782 1.3623-1.991 2.918-2.3114 4.6848-0.0492 0.27141-0.0417 0.55235-0.0625 0.82852-0.0499 0.14821 1.7805 0.95658 1.8304 0.80837z" fill="#d589d2" style="paint-order:stroke markers fill"/>
   <path d="m75.462 242.02c-0.66482-1.3949-1.8767-2.749-3.1654-3.3306-0.24344-0.10986-0.50238-0.16785-0.75357-0.25178-1.4383-0.29258-2.8673 0.16612-4.2221 0.69577-1.2708 0.4607-2.4227 1.1898-3.4739 2.1173-0.9424 0.84315-1.6796 1.9193-2.386 3.0122-0.6069 1.0619-1.1986 2.1693-1.5277 3.3912-0.06925 0.25708-0.11635 0.52131-0.17453 0.78196-0.2068 1.2868-0.05268 2.5737 0.27801 3.8116 0.28284 1.1853 0.88933 2.1646 1.6189 3.0426 1.0551 1.2235 2.3271 2.148 3.6954 2.8454 1.0094 0.49243 2.0264 0.93943 3.1005 1.2028 1.2639 0.22845 2.2083 8e-3 3.3778-0.53038 1.0502-0.50193 2.0215-1.1778 2.9374-1.9454 0.10565-0.1105 0.88839-0.8788 0.88784-1.0859-0.0014-0.51748-0.28098-0.98369-0.42146-1.4755 0.03107-0.0469-0.54834-0.55006-0.57941-0.50315-1.5093-0.47733-0.97744-0.59048-2.0038 0.22358-0.73942 0.58906-1.5207 1.1046-2.3391 1.5374-0.63655 0.27902-1.1191 0.28673-1.7771 0.0427-0.8454-0.27546-1.7013-0.55756-2.4686-1.0604-0.13216-0.0875-0.25987-0.18453-0.39648-0.26261-0.09516-0.0544 0.36762 0.24422 0.27181 0.19136-0.60451-0.33355-1.1463-0.81063-1.6989-1.2396-0.48856-0.42319-0.99173-0.80197-1.1992-1.4987-0.1902-0.72868-0.38208-1.467-0.2786-2.2362 0.20324-1.1518 0.76462-2.1375 1.2936-3.1279 0.48203-0.87493 1.0024-1.7179 1.727-2.3558 0.84743-0.70888 1.8501-1.065 2.8232-1.4884 0.20287-0.0809 0.40575-0.16187 0.60862-0.24281 0.1906-0.0794 0.38047-0.16134 0.57182-0.23842 0.44881-0.1808 0.84108-0.2921 1.3012-0.0882 0.11559 0.0636 0.23449 0.11994 0.34676 0.19094 0.13454 0.0851 0.24062 0.25132 0.39271 0.27673 0.08661 0.0145-0.23653-0.28766-0.16054-0.23793 0.46107 0.3017 0.82511 0.89913 1.3126 1.177 0.08278 0.20092 2.5642-1.1397 2.4814-1.3406z" fill="#d2c580" style="paint-order:stroke markers fill"/>
   <path d="m73.499 242.28c-0.06055 0.249-0.14258 0.49241-0.18165 0.74697-0.08555 0.55736-0.12057 1.6644-0.13787 2.2016-0.03927 1.2195-0.04805 2.4398-0.05664 3.66-0.07746 1.8306-0.06304 3.663-0.08884 5.4951-0.05159 1.5255-0.0941 3.0513-0.12897 4.5777-0.04607 1.6136-0.01105 3.2274-0.05181 4.8409-0.06728 1.4544-0.11744 2.9089-0.19677 4.3625-0.11194 1.3688-0.13664 2.7438-0.1728 4.1172-0.01475 1.0375-0.09426 2.0722-0.08594 3.1099-0.01281 0.4291 0.05664 0.85008 0.10586 1.2727 0.06147 1.0702 1.3878 0.17935 2.6896 0.19217 0.02537 3e-3 0.05612 0.0275 0.0761 9e-3 0.17649-0.16037 0.27409-0.41007 0.42271-0.60398 0.13857-0.18077 0.28437-0.35433 0.43261-0.52476 1.4699-1.6902-0.18838 0.30364 1.4117-1.6482 0.91816-1.5089 0.69271-0.63965 0.5087-2.6572 0.0365-0.0574-0.67303-0.64858-0.70953-0.59114-1.9952 0.21465-1.1768-0.21924-2.5352 1.0826-0.25719 0.35009-0.53154 0.68451-0.77157 1.0502-0.70248 1.0703-1.3317 2.3077-1.4972 3.6489 2.0327 0.2857 2.7725 1.2863 2.6323-0.25677-0.02414-0.24753 0.05033-0.48532 0.07301-0.73121 0.16252-1.058 0.24021-2.1293 0.28878-3.2016 0.03499-1.3032 0.07293-2.6064 0.15363-3.9072 0.12989-1.4941 0.25152-2.99 0.3113-4.4903 0.02752-1.6011-0.01017-3.2018-0.02771-4.8029-0.0011-1.5218 0.04738-3.0432 0.02403-4.5652 0.01033-1.8388 0.0863-3.6761 0.03504-5.5144-0.03497-1.9171-0.08481-4.2198-0.57951-6.0589-0.07079-0.26317-0.18292-0.50934-0.27438-0.76401 0.0031-0.13513-1.6658-0.1851-1.6689-0.0499z" fill="#d2c580" style="paint-order:stroke markers fill"/>
  </g>
  <g fill="#d589d2">
   <path d="m84.226 290.1c1.7758 0.4002 3.6052 0.36393 5.4074 0.31939 1.4243-0.0781 2.847-0.01 4.2681 0.0932 1.6093 0.16278 3.2224 0.0864 4.8346 0.0771 1.6414-0.062 3.285-0.0745 4.9265-0.0161 1.6162 0.08 3.2325 0.0835 4.8496 0.0804 1.2639-0.0276 2.5278-0.0795 3.792-0.0636 1.3547 7e-3 2.7002 0.19679 4.0493 0.31608 0.19337 8e-3 1.4594 0.0968 1.6391-0.0547 0.38055-0.32088 0.55495-0.87613 0.83242-1.3142 0.0469 0 0.0592-0.7595 0.0122-0.76048-0.23269-0.45489-0.35837-1.0088-0.69807-1.3646-0.14571-0.15262-1.4034-0.26628-1.5762-0.28645-1.404-0.11883-2.8076-0.27926-4.2162-0.29766-1.2336 0.01-2.4686 0.0418-3.7015-0.0143-1.593-0.0545-3.1822-0.19805-4.7768-0.20971-1.6728-8e-3 -3.3453-0.0196-5.0174 0.0556-1.5236 0.0972-3.0491 0.13965-4.575 0.0936-1.462-0.033-2.9236-0.0724-4.386-0.081-1.8391-5e-3 -3.7119-0.01-5.5104 0.47645-0.18222-0.0124-0.336 2.9385-0.15378 2.951z" style="paint-order:stroke markers fill"/>
   <path d="m86.687 286.52c-0.65054-0.90866-1.4641-1.682-1.9522-2.7364-0.08507-0.1838-0.14153-0.38315-0.2123-0.5747-0.3404-0.96585-0.25378-1.9924-0.27592-3.0052-0.08532-1.2212-0.29053-2.4248-0.43512-3.6374-0.17394-1.1421-0.26368-2.2904-0.20751-3.4477 0.04655-1.0828 0.2021-1.97 0.68519-2.905 0.30097-0.52381 0.51768-1.1185 0.85021-1.6194 0.08383-0.12625-0.22624 0.24928-0.21481 0.40735 0.0099 0.13636 0.14178-0.22072 0.22089-0.32326 0.07709-0.0999 0.16459-0.18872 0.24688-0.28307 0.64606-0.56727 1.3053-0.87171 2.1059-0.99224 1.0655-0.0413 2.1055 0.3399 3.1055 0.72134 0.93427 0.32047 1.6848 0.79359 2.4459 1.4733 0.6774 0.6759 1.2655 1.46 1.822 2.2651 0.55382 0.94626 1.0627 1.9239 1.5559 2.9127 0.37152 0.82224 0.67788 1.7137 0.80454 2.6334 0.07225 0.52433 0.14466 1.8236 0.17527 2.2994 0.04228 1.0474 0.0228 2.0965 0.0532 3.1441 0.01476 0.50901-0.08273 1.0472 0.06928 1.5258 0.1416 0.44592 0.5134 0.74493 0.7701 1.1174 0.01118 0.13869 1.7243-0.0417 1.7131-0.18046 0.36208-0.53159 0.85064-0.97694 1.0862-1.5948 0.21584-0.56599 0.18904-1.2189 0.2218-1.8354 0.0821-1.5452-0.0452-2.1035-0.2224-3.5866-0.0861-0.48937-0.15269-0.98374-0.25832-1.4681-0.34045-1.5612-0.93526-3.0078-1.6458-4.3873-0.55917-1.1185-1.1283-2.2398-1.8249-3.2549-0.68575-0.9884-1.448-1.8986-2.2833-2.7239-0.97737-0.89071-2.0458-1.6289-3.2192-2.1338-1.4101-0.56073-2.8702-0.96063-4.3752-0.86613-0.22888 0.0269-0.45956 0.0385-0.68665 0.0808-1.0876 0.20295-2.1081 0.72812-3.0254 1.4129-0.36848 0.31601-0.79608 0.64157-1.0855 1.0621-0.72954 1.0602-1.3203 2.2388-1.7524 3.492-0.40611 1.351-0.68188 2.7335-0.63651 4.1736 0.02987 1.3641 0.10565 2.7252 0.33931 4.0668 0.20748 1.0378 0.46864 2.0738 0.5573 3.1352 0.03048 0.55372 0.0174 1.1195 0.06928 1.6704 0.08378 0.88986 0.29444 1.7546 0.63164 2.5624 0.15157 0.29586 0.2871 0.60329 0.45471 0.88759 0.74637 1.2659 1.8188 2.2742 3.1035 2.7171 0.13617 0.0992 1.3618-2.1059 1.2256-2.2052z" style="paint-order:stroke markers fill"/>
   <path d="m100.27 274.85c1.1192-0.61423 2.1614-1.3971 3.2347-2.1086 1.0128-0.72165 2.0553-1.3836 3.091-2.0605 1.1514-0.72986 2.0885-1.7997 3.1445-2.6826 0.77367-0.68727 1.6592-1.1707 2.5232-1.6852 0.59724-0.30941 1.2018-0.59834 1.7942-0.92019 0.73562-0.40266 0.54362-0.56108 0.43735-1.5735 0.079-0.0268-0.25217-1.3052-0.3311-1.2784-0.45891-0.8496-0.42128-1.1577-1.1677-0.715-0.54875 0.30896-1.155 0.45655-1.713 0.74277-1.0962 0.47152-2.1723 1.0344-3.1513 1.7745-0.9734 0.8473-1.8698 1.7936-2.8271 2.6624-0.99919 0.72771-2.0556 1.3464-3.0468 2.0897-1.2419 0.86373-2.557 1.6836-3.4305 3.0597-0.16641 0.11684 1.2763 2.8118 1.4427 2.695z" style="paint-order:stroke markers fill"/>
  </g>
  <g>
   <path d="m73.105 73.046c-0.96964-0.94745-2.1431-1.488-3.3872-1.7303-0.97105-0.1553-1.8324 0.25408-2.6961 0.69253-1.0528 0.52062-2.0626 1.1195-3.0482 1.7903-1.0594 0.7926-1.9963 1.8233-2.5595 3.1386-0.10469 0.24451-0.18104 0.50364-0.27155 0.75546-0.33162 1.1911-0.32803 2.4445-0.29755 3.6805 0.0511 1.2844 0.30512 2.2396 0.91732 3.3142 0.68723 1.0291 1.646 1.7588 2.6318 2.3686 0.81059 0.50428 1.6927 0.64316 2.6013 0.60656 0.96326-0.05034 1.8514-0.46596 2.6925-0.97601 0.57412-0.38825 1.1819-0.6469 1.8382-0.76398 0.5845-0.1118 1.1812-0.05332 1.7564 0.09336 0.07357 0.03706 0.1498 0.06788 0.22073 0.11118 0.05484 0.03347 0.1083 0.07159 0.15519 0.11829 0.03771 0.03756 0.14063 0.1576 0.09597 0.13192-0.77858-0.4476-0.54922-0.45525-0.2377-0.10768 0.40513 0.54642 0.65701 1.2174 0.91468 1.8641 0.30613 0.69341 0.48647 1.43 0.53536 2.2025 0.0051 0.85388-0.12757 1.6956-0.25035 2.5344-0.09694 0.70809-0.25576 1.3894-0.57367 2.0086-0.4177 0.66065-0.82764 1.332-1.2913 1.9519-0.4863 0.71473-1.1322 1.1958-1.8044 1.6478-0.8177 0.53184-1.7107 0.89357-2.5963 1.2473-0.57253 0.2389-1.197 0.18685-1.7971 0.20127-0.80012 0.08849-1.5701-0.01864-2.3362-0.27893-0.47976-0.18451-0.91581-0.4797-1.3386-0.79286-0.20168-0.14937-0.42644-0.26812-0.59749-0.46121-0.03151-0.03557 0.0595-0.07503 0.08925-0.11254-0.24911-0.26402-0.49822-0.52804-0.74732-0.79207-0.51983-0.16998-1.0397-0.33996-1.5595-0.50993-0.0608-0.1373-1.7564 0.84735-1.6956 0.98464 0.05726 0.68014 0.11452 1.3603 0.17179 2.0404 0.35812 0.36623 0.68307 0.78004 1.0744 1.0987 1.381 1.1246 2.9155 1.9523 4.5771 2.3246 1.0255 0.18304 2.0588 0.22774 3.0922 0.0877 0.76362-0.11258 1.5242-0.24878 2.2769-0.43485 1.201-0.31559 2.3452-0.8006 3.3566-1.6293 0.83432-0.69114 1.622-1.4492 2.2887-2.3536 0.52438-0.76044 1.0212-1.5451 1.4826-2.3576 0.48786-0.93338 0.85629-1.9276 1.012-3.0081 0.15128-1.0394 0.28373-2.086 0.2927-3.1419-0.01553-1.1713-0.17947-2.3285-0.59783-3.407-0.36488-0.88579-0.82384-1.6958-1.3133-2.4973-0.10708-0.16683-0.39748-0.63717-0.52793-0.76075-0.75819-0.7183-1.5012-1.2452-2.4786-1.3917-0.8722-0.10305-1.742-0.06129-2.6048 0.13039-0.86156 0.23438-1.6889 0.58016-2.4624 1.0802-0.50492 0.28282-0.99121 0.62252-1.574 0.59349-0.48528-0.02714-0.89167-0.25365-1.3042-0.54249-0.18264-0.13033-0.68336-0.5862-0.54362-0.39878 0.09322 0.12503 0.23758 0.18697 0.34199 0.2998 0.29608 0.31994-0.95844-0.75532-0.58764-0.47346-0.42067-0.44202-0.55695-0.9456-0.54656-1.6038-0.03599-0.81284-0.12485-1.649 0.06929-2.4448 0.34743-1.0355 1.0242-1.7779 1.8382-2.3607 0.88233-0.64627 1.7747-1.2815 2.6956-1.8527 0.35512-0.21976 0.62697-0.41947 1.0198-0.21139 0.90031 0.41662 1.7564 0.95306 2.6691 1.3357 0.18768 0.07439 1.1064-2.965 0.9187-3.0394z" fill="#afdfe2" style="paint-order:stroke markers fill"/>
   <path d="m9.9648 36.975c1.625 0.20904 3.2918 0.26016 4.9181 0.0203 0.39571-0.05836 0.78567-0.15976 1.1785-0.23965 1.1593-0.21113 2.3351-0.48541 3.5159-0.42903 0.36467 0.01742 0.72731 0.07133 1.0911 0.10499 0.98178 0.06601 2.0235 0.1959 2.9753-0.15455-0.05273-0.45194-0.10546-0.90388-0.1582-1.3558 0.0435-0.01273-0.1136-0.71733-0.15711-0.70461-0.16468-0.44311-0.32936-0.88622-0.49403-1.3293-0.78982-0.15519-1.6118 0.01559-2.3974-0.2253-1.8343-0.38505-3.6895-0.30857-5.5183 0.10881-0.71797 0.11281-1.4325 0.2532-2.1507 0.3641-1.1739 0.18128-2.3763 0.19118-3.5223 0.563-0.20236 0.05823 0.51677 3.3353 0.71913 3.2771z" fill="#d79c73" style="paint-order:stroke markers fill"/>
   <path d="m14.534 36.72c-0.32735 2.5076-0.12447 5.0668 0.06851 7.5791 0.14035 2.0105 0.44952 4.0005 1.039 5.9029 0.32403 0.94244 0.48761 1.9372 0.66242 2.9251 0.02712 0.09211 0.02663 0.20206 0.08138 0.27635 0.23684 0.32135 1.0268 0.21084 1.1561 0.21895 9.6e-4 0.02969 0.36761 0.01488 0.3667-0.01482 0.17073-0.01091 0.93392 0.13836 1.1355-0.26205 0.05164-0.10256 0.03383-0.23358 0.05075-0.35038 0.0056-1.2121-0.19867-2.3916-0.58551-3.5217-0.08507-0.37405-0.17472-0.7327-0.22595-1.1165-0.18245-1.3667-0.15133-2.7605-0.26077-4.1343-0.14839-2.506-0.31717-5.0417-0.91859-7.4674 0.0022-0.20807-2.5675-0.24327-2.5696-0.0352z" fill="#d79c73" style="paint-order:stroke markers fill"/>
   <path d="m4.2448 228.91c0.91605 1.1699 2.1168 1.9621 3.3796 2.5353 0.9717 0.42474 2.0065 0.39528 3.0271 0.42494 0.62454 0.0231 1.2541 0.099 1.8784 0.0231 0.47868-0.0582 0.61357-0.12731 1.08-0.27886 1.4456-0.61697 2.2787-1.9781 2.9412-3.5203 0.38282-1.0428 0.73612-2.1443 0.77286-3.2886 0.0073-0.22695-0.0098-0.45408-0.01472-0.68111-0.09941-1.1036-0.53373-2.0874-1.0129-3.0312-0.36055-0.62776-0.70168-1.27-1.0799-1.8842-0.34704-0.54366-0.97548-1.248-1.6357-1.1164-0.30047 0.0599-0.55794 0.28228-0.83692 0.42341-0.01808-0.0132-0.18094 0.27965-0.16286 0.29283-0.04156 0.31966-0.10979 0.63625-0.12467 0.95897-0.02579 0.55921 0.20721 1.0394 0.45642 1.4907 0.28991 0.58542 0.5796 1.1714 0.82076 1.7859 0.21156 0.49124 0.47036 1.0087 0.41961 1.5745-0.1398 0.89607-0.43956 1.7585-0.7661 2.5841-0.45377 0.94088-0.06169 0.0784 0.08469-8e-3 0.08934-0.0525-0.08009 0.21098-0.12153 0.31576-0.07351 0.18588-0.09418 0.25738-0.20389 0.41193-0.03532 0.0497-0.07801 0.092-0.11702 0.13802-0.61742 0.40453-1.3425 0.27175-2.0244 0.28465-0.33852 3e-3 -0.54453 2e-3 -0.87876 0.0169-0.39139 0.017-0.77856 0.0848-1.1514-0.0967-1.0053-0.55341-1.9267-1.2868-2.941-1.819-0.15209-0.14485-1.9411 2.3182-1.789 2.463z" fill="#d589d2" style="paint-order:stroke markers fill"/>
   <path d="m4.5274 219.94c1.2959 0.4738 2.6603 0.59662 4.0122 0.63639 0.92168-0.0349 1.8397-0.13568 2.7592-0.20893 0.71829-0.0804 1.4408-0.11262 2.1617-0.15288 0.58223-0.0645 1.173-0.0807 1.75-0.19871 0.13162-0.0269 0.31355 0.0238 0.39137-0.10065 0.21521-0.34431 0.27296-0.78704 0.40944-1.1806 0.07824 4e-3 0.12299-1.2634 0.04475-1.267-0.13629-0.37355-0.17819-0.81386-0.40887-1.1206-0.09602-0.12769-0.29432-0.0158-0.44139-0.0101-0.5447 0.0211-1.0807 0.17587-1.6251 0.20664-0.69977 0.087-1.4024 0.16093-2.1057 0.19214-0.84178 0.0517-1.6827 0.14622-2.5259 0.13515-1.3291-0.0122-2.6699-0.16052-3.9891 0.0905-0.18393-0.035-0.61648 2.9436-0.43255 2.9786z" fill="#d589d2" style="paint-order:stroke markers fill"/>
  </g>
  <path d="m88.624 234.51c2.5037-1.8066 4.7588-4.0783 6.8031-6.5225 0.42904-0.51301 0.82805-1.0579 1.2421-1.5868 0.22624-0.34699 0.93508-1.3036 1.0908-1.88 0.02481-0.0917 0.01363-0.22418-0.05373-0.28139-0.79296-0.6737-1.5677-1.4164-2.4737-1.8659-0.09401-0.0466-0.97597 0.90098-0.98065 0.9058-0.13846 0.16665-0.28189 0.32807-0.41539 0.49994-0.12858 0.16554-0.34266 0.45933-0.44018 0.67984-0.01852 0.0419-0.06176 0.10669-0.03023 0.13678 2.2425 2.1384 1.5407 2.6906 2.4426 1.8481 0.90947-1.0412 0.5476-1.2466-2.2343-1.458-0.2273-0.0173-0.04019 0.51969-0.06037 0.77953 0.04429 2.6272 0.90185 5.0868 1.7851 7.4709 0.38189 0.94165 0.77289 1.8939 1.3145 2.7332 0.0017 3e-3 0.52265 0.70984 0.55487 0.69848 0.9242-0.32577 1.7634-0.90938 2.6451-1.3641-0.2474-0.75209-7e-3 -0.39711-1.1123-0.4386-0.02263-0.0852-1.0755 0.28208-1.0528 0.36733-0.79672 0.56617-0.87023 0.22077-0.7401 0.64746 0.90118-0.36583 1.7803-0.81286 2.7035-1.0975 0.08238-0.0254 0.10295 0.25109 0.1798 0.20862 0.07627-0.0421-0.01599-0.19374-0.03643-0.28783-0.20168-0.92953-0.53827-1.8161-0.84151-2.7047-0.4611-1.2814-0.92183-2.5644-1.4006-3.8373-0.29475-0.78369-0.44907-1.0992-0.69117-1.8574-0.05897-0.18479-0.10367-0.37519-0.1555-0.56279-0.52031-1.235-2.1875-2.6854-3.0461-1.4977-0.74725 0.98898-0.23719 0.19646 1.9044 2.4408 0.04377 0.0459 0.251-0.1127 0.34668-0.19132 0.12493-0.10266 0.24611-0.21156 0.36316-0.32575 0.15239-0.14866 0.29643-0.30819 0.44464-0.46228 0.14966-0.18053 0.30791-0.35222 0.449-0.5416 0.12424-0.16677 0.44979-0.34113 0.34572-0.52511-0.52291-0.92443-1.3169-1.6061-1.9939-2.3886-0.0491-0.0567-0.11209-0.14446-0.17938-0.12339-0.44745 0.14011-1.4942 1.1003-1.691 1.264-0.47364 0.4685-0.96042 0.92014-1.4209 1.4055-2.1059 2.2197-4.0687 4.6712-5.6542 7.4052-0.14259 0.16916 1.9465 2.4783 2.0891 2.3091z" fill="#b64141" style="paint-order:stroke markers fill"/>
  <path d="m98.079 184.29c0.24144-0.34897 0.50021-0.68311 0.72434-1.0469 1.5371-2.495 2.8021-5.2771 3.7571-8.1254 0.16932-0.50499 0.30037-1.0257 0.45056-1.5386 0.0484-0.30867 0.13248-0.61274 0.14519-0.92601 0.0429-1.0585-2.663-1.3022-2.7619-1.3175-0.14507-0.0224-0.82813 1.5756-0.91103 1.7742-0.0553 0.16508-0.11708 0.32751-0.16604 0.4952-0.38275 1.311 1.2133 1.0285 2.5256 1.4728 0.0183 6e-3 0.10515-0.21352 0.16424-0.35681 0.29497-0.82852-0.12445-0.36909-1.454-0.87612-9e-3 0.0456 0.55441 0.18688 0.56314 0.14128-1.3762-0.80365-1.2646-1.3744-1.6924-0.47001-0.0052 0.0125-0.18809 0.45228-0.16454 0.46837 2.2472 1.5355 2.1822 2.1222 3.0475 0.48147 0.0797-0.18474 0.74055-1.7568 0.63042-1.8518-0.73534-0.63453-1.6088-1.0343-2.4553-1.4492-0.0886-0.0434-0.20053 0.0385-0.27186 0.11273-0.20471 0.21295-0.35651 0.48426-0.53477 0.7264-0.25492 0.45967-0.52588 0.9082-0.76477 1.379-1.334 2.6292-2.4486 5.4751-3.1988 8.3954-0.10794 0.42016-0.17393 0.85299-0.2609 1.2795-0.07609 0.21281 2.5521 1.4448 2.6281 1.232z" fill="#d79c73" style="paint-order:stroke markers fill"/>
  <path d="m100.88 174.07c0.0731 0.42492 0.11805 0.85747 0.21928 1.2748 0.51377 2.1176 1.4723 4.4764 2.5395 6.3042 0.16394 0.28078 0.35583 0.53878 0.53374 0.80817 1.0318 1.0623 0.57895 0.81699 3.0348-1.1794 0.1324-0.10761-0.0934-0.35646-0.1518-0.52994-0.15322-0.45546-0.35757-0.8674-0.592-1.2722-0.83863-1.1021-0.32567-0.54443-2.7853 1.1012-0.0533 0.0356 0.34739 0.68998 0.37881 0.74008 0.49841 0.23342 0.95696 0.718 1.4952 0.70024 0.76206-0.0251 1.3395-1.3065 1.7232-1.9138 0.60775-0.96214 0.65774-1.0324 1.3467-2.0982 0.95012-1.4824 1.854-3.0058 2.6636-4.5948 0.18058-0.35446 0.35541-0.71321 0.51583-1.0802 0.29678-0.67891 0.40302-0.63913 0.0626-0.59154-0.81484-0.4162-1.6103-0.88627-2.4445-1.2486-0.2135-0.0927-0.75465 1.3667-0.81837 1.5988 1.3742 4.6813 2.1579 1.8984 2.7486 1.0344-0.60283 0.87088 0.5093-0.67164-2.4692-0.20334-0.19959 0.0314 0.10755 0.44509 0.1756 0.66222 0.33666 1.0741 0.77341 2.122 1.1516 3.177 1.0582 2.6824 1.9732 5.4495 3.2289 8.0252 0.18949 0.38868 0.40502 0.75994 0.60754 1.1399 0.17545 0.27624 0.34081 0.56128 0.52637 0.82873 0.13085 0.18859 0.2711 0.3694 0.42164 0.53763 0.11088 0.12392 0.21328 0.39218 0.3603 0.33623 2.5452-0.96858 3.0303-0.72184 2.3198-2.4435-0.0672-0.10877-0.10266-0.25609-0.20153-0.32631-0.45491-0.32316-0.85728 0.093-1.2763 0.29206-0.0196-0.0258-0.33769 0.29255-0.31803 0.3183-0.24295 0.17864-0.48857 0.3526-0.72885 0.5359-0.0787 0.06-0.1772 0.10232-0.2278 0.19385-0.0253 0.0459 0.022 0.10568 0.033 0.15851 0.47 1.3542 2.884-0.65645 2.8565-0.78826-0.0326-0.15648-0.0984-0.30134-0.14921-0.45133-0.0862-0.2547-0.17453-0.50847-0.26179-0.76271-1.0953-3.151-2.1998-6.3112-3.703-9.2437-0.55099-0.986-1.0865-2.0639-1.7796-2.9378-0.0736-0.0927-0.14974-0.2014-0.25457-0.23742-2.5149-0.86438-1.9629-1.4536-2.6897-0.52328-0.0461 0.0707-0.43546 0.73489-0.37909 0.77432 2.3717 1.6594 1.7749 2.1722 2.5919 1.3708 0.37292-0.49613 0.68152-1.0782 0.86205-1.7028 0.0701-0.24245 0.32678-0.56549 0.16581-0.74226-0.66933-0.73505-1.5778-1.1165-2.3667-1.6748-0.15784 0.0987-0.326 0.17851-0.47352 0.29636-0.53816 0.4299-0.96302 0.97071-1.3752 1.5557-1.0535 1.4953-1.9194 3.1494-2.6483 4.8768-0.44562 1.1443-0.56749 1.4046-0.92128 2.4751-0.0675 0.20446-0.13596 0.40921-0.1871 0.61983-0.0104 0.0427-0.0315 0.14934 4e-3 0.13289 1.4683-0.67154 0.1971-0.8271 2.1751 0.17832 0.0141 0.0333 0.0325 0.0646 0.0423 0.0999 0.0275 0.0998-0.0798-0.17847-0.0884-0.17522-0.8929 0.33749-1.7461 0.80178-2.6344 1.1548-0.0877 0.0348-0.11248-0.3336-0.0499 0.086 0.12969 0.41752 0.27965 0.81963 0.47328 1.2049 0.0688 0.13698 0.0866 0.42158 0.2232 0.39933 3.0706-0.50001 3.0002 0.18588 2.8896-1.3291-0.5263-1.9347-1.3046-3.7321-2.1792-5.4915-0.24546-0.49374-0.48924-0.98974-0.76467-1.4623-0.21043-0.36103-0.46042-0.68968-0.69063-1.0345-0.0646-0.22353-2.8252 0.82275-2.7606 1.0463z" fill="#d79c73" style="paint-order:stroke markers fill"/>
  <path d="m16.976 275.44c1.8632 3.3747 4.602 5.9616 7.3225 8.3931 0.7049 0.57399 1.3775 1.1974 2.0743 1.7839 0.05767 0.0486 0.87752 0.75286 1.0635 0.78007 0.08677 0.0127 0.15708-0.0914 0.2252-0.15429 0.37604-0.34688 0.73664-0.71521 1.105-1.0728-0.0089-0.0148-0.19363 0.12923-0.18472 0.14419 0.43684-0.25857 0.91963-0.43402 1.3105-0.77573 0.25468-0.22262-0.16441-0.89645-0.20944-0.97201-0.66549-1.1169-1.5878-1.996-2.4019-2.9591-2.5038-2.654-5.072-5.2898-8.0007-7.3201-0.13293-0.18658-2.4371 1.9662-2.3042 2.1527z" fill="#b64141" style="paint-order:stroke markers fill"/>
  <path d="m19.73 286.33c2.9986-3.2221 5.4899-7.0414 7.6012-11.072 0.36551-0.6977 0.69663-1.4183 1.0449-2.1274-1.3154 0.76794 1.3367-2.0218 0.68365-2.1254-0.30212-0.0479-0.46248 0.70468-0.75242 0.59627-0.89098-0.33319-1.4897-1.3472-2.3555-1.7584-0.16405-0.0779-0.22157 0.3185-0.32063 0.48731-0.1139 0.1941-0.21163 0.40001-0.31745 0.60004-0.05891 0.22781-0.50754 0.91738-0.47616 1.1916 0.0038 0.0327 0.0494-0.0582 0.07641-0.0465 0.92071 0.39583 1.7956 0.93739 2.7386 1.2568 0.37032 0.12547-0.66725-0.44545-1.0009-0.66821 0.01213-0.0369-0.44369-0.23339-0.45583-0.1965-0.39699-0.0759-1.4945-0.53058-1.191-0.22784 2.3694 2.3635 2.5171 2.1368 3.5037 0.18944 0.7528-1.804 0.9852-2.2614-1.5599-3.8978-0.302-0.19418-0.59185 0.41248-0.88114 0.63055-0.87424 0.65909-0.69835 0.59466-1.6306 1.6804-0.45371 0.64683-0.9224 1.2803-1.3611 1.9405-2.1518 3.2381-4.1069 6.7069-5.6228 10.394-0.19836 0.48252-0.35301 0.98703-0.52951 1.4806-0.10324 0.22726 2.7031 1.8992 2.8064 1.672z" fill="#b64141" style="paint-order:stroke markers fill"/>
  <path d="m61.16 141.97c-0.48333 1.2381-0.74859 2.5739-0.95419 3.9048-0.10538 0.775-0.11962 1.5589-0.15425 2.341-0.05581 0.952 0.10089 1.8735 0.29249 2.793 0.20243 0.94775 0.4633 1.8775 0.78485 2.7808 0.4377 1.1485 1.1592 2.0666 1.976 2.8774 0.70586 0.71833 1.5141 1.2759 2.3611 1.7447 0.80562 0.42092 1.6355 0.64922 2.5172 0.77878 0.26668 0.0392 0.84314-0.0189 1.1042-0.0384 1.1604-0.13306 2.2232-0.6287 3.2309-1.2743 0.96333-0.72927 1.9085-1.6159 2.4709-2.7983 0.15557-0.3271 0.2609-0.68239 0.39136-1.0236l-0.486-1.5538c0.02416-0.0621-0.74332-0.45331-0.76747-0.39118-0.44295 0.12003-0.8859 0.24004-1.3289 0.36007-0.695 0.87334-1.3277 1.8381-2.2499 2.4164-0.66493 0.40096-1.3819 0.64301-2.1339 0.70885-0.10375 7e-3 -0.20732 0.0206-0.31124 0.0209-0.08907 2.4e-4 -0.34843-0.0599-0.26669-0.0193 0.17091 0.0847 0.36664 0.0836 0.5419 0.15575 0.07893 0.0325-0.16754-0.0162-0.24972-0.0354-0.21779-0.051-0.38055-0.13222-0.58996-0.2216-0.65934-0.29056-1.2978-0.62878-1.8766-1.0999-0.55895-0.48981-1.0751-1.0272-1.4335-1.7329-0.35402-0.69078-0.61409-1.4194-0.79546-2.1937-0.16521-0.68721-0.35587-1.3814-0.38221-2.0976-0.02492-0.57557-0.12853-1.1445 0.08165-1.6916 0.343-1.2983 0.66316-2.6302 0.65286-3.9975 0.04403-0.1964-2.3814-0.90952-2.4254-0.71313z" fill="#d2c580" style="paint-order:stroke markers fill"/>
  <path d="m71.323 142.63c-0.04171 1.9472 0.59394 3.7928 1.1848 5.584 0.52603 1.2728 0.82244 2.6268 1.0795 3.9961 0.28775 1.7051 0.64838 3.389 1.0417 5.0657 0.40201 1.5564 0.83673 3.1022 1.1358 4.6901 0.20269 1.0587 0.11981 2.12-0.0011 3.1807-0.11981 1.1115-0.31844 2.2075-0.53193 3.2994-0.17023 0.90711-0.44194 1.7748-0.80807 2.6001-0.33094 0.74604-0.79349 1.3095-1.3992 1.7628-0.62596 0.3324-1.3107 0.48086-1.9654 0.72496-0.10617 0.0421-0.21118 0.0883-0.31851 0.12646-0.36095 0.12816-0.7352 0.21813-1.1049 0.30637-0.12531 0.0299-0.49294 0.14522-0.37714 0.0827 0.14222-0.0767 0.30564-0.0844 0.45847-0.12662-0.74926 0.2213-1.5177 0.17054-2.272 0.0232-0.79146-0.13741-1.4934-0.55554-2.2068-0.94384-0.35638-0.19397-0.67997-0.50815-1.0693-0.58144-0.53234-0.10021-1.0781 0.0505-1.6171 0.0757-0.10344-0.10461-1.3954 1.5706-1.292 1.6752 0.20714 0.61069 0.25856 1.3255 0.62141 1.8321 0.32576 0.45474 0.8646 0.64204 1.3297 0.89158 0.98113 0.52642 2.0808 0.75473 3.143 0.93336 1.0635 0.0843 2.1348 0.16651 3.1946-0.0201 0.7265-0.18027 1.4377-0.33924 2.1421-0.60296 0.25084-0.0939 0.49393-0.21386 0.74532-0.30582 0.11066-0.0405 0.22378-0.0715 0.33567-0.10734 0.95517-0.33234 1.8896-0.76346 2.6865-1.4682 0.8577-0.8392 1.5623-1.8529 2.0248-3.0391 0.35644-1.0052 0.62851-2.0379 0.87126-3.0859 0.30617-1.2159 0.52886-2.4614 0.62896-3.7229 0.09908-1.3418 0.19514-2.6896 0.01299-4.0298-0.22076-1.7069-0.59471-3.3753-1.0564-5.0176-0.43702-1.5913-0.88053-3.1816-1.2086-4.8077-0.31859-1.5033-0.67756-2.9924-1.2017-4.4226-0.60476-1.7132-1.0522-3.5269-1.9028-5.1093-0.03339-0.18652-2.337 0.3542-2.3036 0.54073z" fill="#d2c580" style="paint-order:stroke markers fill"/>
  <path d="m131.71 71.04c1.0567-2.6704 1.8332-5.5605 2.0103-8.5007 0.0202-0.33487-4e-3 -0.67131-6e-3 -1.007-0.41398-1.5189-0.14015-1.0088-3.2724-0.47889-0.16307 0.02759-0.31475 1.769-0.31496 2.0306 0.0117 0.08097 0.0234 0.16193 0.0351 0.2429-0.0102 0.23689 2.9153 0.40293 2.9256 0.16604 0.0204-0.01506 0.0408-0.0301 0.0611-0.04516 0.073-0.20832 0.47224-1.7953 0.37108-1.8472-2.766-1.4195-2.3609-1.771-3.2199-0.58723-0.11668 0.30761-0.25144 0.60704-0.35005 0.92283-0.85221 2.7291-1.2403 5.6582-1.3098 8.5454-0.0345 0.24861 3.0359 0.80702 3.0704 0.55841z" fill="#b64141" style="paint-order:stroke markers fill"/>
  <path d="m131.62 62.524c0.11689 0.24369 0.22171 0.4955 0.35066 0.73108 0.46909 0.85696 1.0006 1.6496 1.5378 2.4519 0.96632 1.4433 1.9742 2.8389 3.0083 4.2186 0.81141 0.95044 1.5459 2.1853 2.637 2.7651 0.29092 0.15458 0.60644 0.56378 0.89516 0.40388 0.75676-0.41912 1.2475-1.2907 1.8712-1.936-0.0445-0.24495-0.0725-0.49461-0.13348-0.73486-0.032-0.12576-0.48649-1.1019-0.62983-1.0158-2.7132 1.63-2.8044 1.1054-2.1999 2.4477 0.41369 0.7671 1.0368 1.1844 1.7831 1.3901 1.1312 0.27301 1.8081-1.1916 2.0131-2.2896 0.40143-2.1714 0.72631-4.354 0.96037-6.5576 0.14613-1.6876 0.34654-3.3761 0.33089-5.0761-3e-3 -0.32764-5e-3 -0.65846-0.0564-0.98086-0.025-0.15764-0.0289-0.43695-0.16877-0.44008-0.93797-0.02094-1.8636 0.24925-2.7954 0.37388 0.78441 0.49227 0.41839 0.20114 1.0974 0.87451 8.7e-4 0.02742 0.33943 0.01407 0.3386-0.01333 0.73744-0.79275 0.35889-0.39294 1.1364-1.1986-0.94241-0.07539-1.8856-0.31425-2.8272-0.22616-0.17891 0.01673-0.22411 0.32781-0.29218 0.51801-0.11715 0.32736-0.19082 0.67407-0.25799 1.0194-0.3262 1.6768-0.40564 3.3989-0.51631 5.1062-0.12225 2.1478-0.2064 4.3081 0.01 6.4525 3e-3 0.16114-0.0148 0.29919-0.0301 0.45945-6e-3 0.06023-0.0518 0.22226-0.0129 0.18116 1.5767-1.667 0.64544-1.6167 1.7762-1.5099 0.18851 0.08727 0.31706 0.17585 0.25049 0.20382-0.0237 0.0099-0.0506-0.04317-0.0755-0.0073-3.4411 1.8401-1.7578 2.5862-2.7891 1.388-0.0144-0.01676 0.26805 0.64679 0.0381-0.19394 2.8021-2.4378 0.9395-1.8334 2.5403-1.2323 0.0465 0.01745-0.0212-0.11072-0.0444-0.16003-0.088-0.18773-0.1877-0.36805-0.28746-0.54789-0.47346-0.85342-0.70414-1.2096-1.238-2.0876-0.97604-1.514-1.9808-2.9672-3.1106-4.3376-0.69094-0.83806-1.2985-1.5439-2.0966-2.2359-0.24092-0.2089-0.50858-0.3739-0.76288-0.56086-0.14555-0.18215-2.3951 2.175-2.2496 2.3572z" fill="#b64141" style="paint-order:stroke markers fill"/>
 </g>
</svg>
