<svg width="135.71mm" height="56.684mm" version="1.1" viewBox="0 0 135.71 56.684" xmlns="http://www.w3.org/2000/svg">
 <g transform="translate(-.7313 -2.6944)" fill="none" stroke-linecap="round" stroke-linejoin="round" stroke-width="1.5">
  <path d="m12.39 12.641c0.38894 0.07565 0.74116 0.32327 0.94399 0.66365 0.20283 0.34037 0.25298 0.768 0.13442 1.1461-0.11856 0.37807-0.40394 0.70047-0.76481 0.86407-0.36088 0.16359-0.79143 0.16573-1.1539 0.0057-0.4045-0.17854-0.70246-0.53589-0.93544-0.91167-0.38717-0.62447-0.63957-1.3674-0.52321-2.0929 0.08478-0.52862 0.36485-1.0188 0.75685-1.3834 0.39201-0.36464 0.89161-0.60598 1.4153-0.71739 0.31202-0.06638 0.63486-0.08796 0.9513-0.04757 0.41668 0.05319 0.81658 0.21372 1.1678 0.4442 0.35119 0.23048 0.65463 0.52973 0.90922 0.86385 0.55719 0.73122 0.8818 1.6428 0.88075 2.5622-1e-3 0.91932-0.33375 1.8399-0.94417 2.5273-0.48697 0.5484-1.1384 0.94095-1.8392 1.1574-1.0048 0.31042-2.1179 0.2586-3.0884-0.1466-0.97047-0.40517-1.7906-1.1612-2.2706-2.0969-0.27902-0.54388-0.44351-1.138-0.60249-1.7282-0.18571-0.68949-0.368-1.3978-0.30124-2.1087 0.054833-0.58396 0.27813-1.1446 0.59464-1.6384 0.3165-0.4938 0.72428-0.92395 1.1653-1.3107 1.0065-0.88261 2.2101-1.5554 3.5134-1.8612 1.3033-0.30573 2.7066-0.23249 3.9385 0.2915 1.345 0.57213 2.4314 1.6521 3.2027 2.8936 0.65658 1.0568 1.1069 2.2507 1.2367 3.4881 0.08549 0.81505 0.03163 1.6445-0.15855 2.4417" stroke="#eb8ebc" style="paint-order:stroke markers fill"/>
  <path d="m19.778 43.931c-0.11046-0.13247-0.21123-0.27303-0.30124-0.42016-0.34374-0.56188-0.52369-1.2063-0.79275-1.8075-0.11984-0.26779-0.25766-0.52754-0.41223-0.7769l-1.8867 3.0997c0.79795 0.4707 1.8056 0.56908 2.6795 0.26161 0.25148-0.08848 0.4918-0.20864 0.71347-0.35674z" stroke="#cf886f" style="paint-order:stroke markers fill"/>
  <path d="m39.295 21.353c-0.17559-0.36802-0.1932-0.80826-0.04757-1.1891 0.16901-0.44201 0.55636-0.79297 1.0112-0.92349 0.45486-0.13052 0.96662-0.03966 1.3523 0.23454 0.38568 0.2742 0.63888 0.72484 0.67856 1.1964 0.03968 0.47155-0.13303 0.95579-0.45772 1.3-0.24923 0.26424-0.5866 0.44697-0.94629 0.49764-0.35969 0.05066-0.73918-0.03397-1.0356-0.24395-0.2883-0.20425-0.492-0.52435-0.55492-0.87203z" stroke="#e96969" style="paint-order:stroke markers fill"/>
  <path d="m59.336 42.995-1.094-2.735c-0.6295 0.70248-0.99965 1.6323-1.0251 2.5752-0.0255 0.94292 0.29386 1.8914 0.88449 2.6269 0.59062 0.73547 1.4478 1.2521 2.374 1.4307 0.92619 0.17867 1.914 0.01799 2.7358-0.44501 0.82182-0.463 1.4711-1.2246 1.7982-2.1094 0.32708-0.88475 0.32937-1.8855 0.0063-2.7718-0.32303-0.88623-0.96879-1.6508-1.7885-2.1176s-1.8068-0.63196-2.7338-0.45752c-0.02814 0.0053-0.05632 0.01092-0.08344 0.02012s-0.05327 0.02214-0.07502 0.04077-0.03892 0.04326-0.04577 0.07106c-0.0069 0.0278-0.0027 0.05877 0.01396 0.08209 0.01613 0.02263 0.04355 0.03677 0.07135 0.03677 0.02779 0 0.05522-0.01414 0.07135-0.03677" stroke="#cf886f" style="paint-order:stroke markers fill"/>
  <path d="m69.578 13.243 2.7905-1.5697 1.5696 2.5447-2.7271 1.8313-1.3794-2.1404" stroke="#8caaeb" style="paint-order:stroke markers fill"/>
  <path d="m88.874 36.13c0.56017 0.32366 0.96367 0.90592 1.07 1.5441 0.10636 0.63815-0.0865 1.3198-0.51142 1.8076-0.42492 0.48784-1.0737 0.77239-1.7204 0.75459-0.6467-0.01779-1.2788-0.33759-1.6763-0.84806-0.01624-0.02085-0.0321-0.042-0.04757-0.06342" stroke="#cf886f" style="paint-order:stroke markers fill"/>
  <path d="m89.413 20.322 3.5039-2.3703" stroke="#cf886f" style="paint-order:stroke markers fill"/>
  <path d="m68.96 26.942 3.1076-2.1801c0.40548 0.77891 0.76567 1.5814 1.0781 2.4021 0.11184 0.29372 0.21757 0.58977 0.3171 0.88789-0.28005-0.22886-0.60523-0.40229-0.9513-0.50736-0.48438-0.14707-1-0.15954-1.4904-0.28539-0.48372-0.12416-0.94429-0.35865-1.4428-0.38845-0.20817-0.01244-0.41848 0.01182-0.61834 0.07135z" stroke="#e96969" style="paint-order:stroke markers fill"/>
  <path d="m35.205 40.149c-0.0506-0.29464 0.02896-0.60926 0.21353-0.84443 0.18457-0.23518 0.47125-0.38723 0.76948-0.40812 0.32176-0.02254 0.64488 0.10499 0.88788 0.3171 0.24347 0.21253 0.4121 0.51045 0.46357 0.82951 0.05148 0.31906-0.01572 0.6568-0.19001 0.92896-0.17428 0.27216-0.45494 0.47534-0.76921 0.5507-0.31427 0.07536-0.65866 0.02067-0.9313-0.15287-0.16777-0.1068-0.30846-0.25762-0.39637-0.43602-0.11896-0.2414-0.1365-0.53084-0.04756-0.78483z" stroke="#e96969" style="paint-order:stroke markers fill"/>
  <path d="m10.582 30.549c-0.03552-0.28362 0.01175-0.57711 0.13453-0.83523 0.12278-0.25812 0.32064-0.47998 0.56309-0.63137 0.31219-0.19495 0.6948-0.2699 1.0595-0.22049 0.36473 0.0494 0.70989 0.22055 0.97951 0.47111 0.26961 0.25056 0.4641 0.57839 0.56814 0.93144 0.10404 0.35305 0.1188 0.73041 0.05646 1.0932-0.06246 0.36343-0.20485 0.71813-0.44394 0.99887-0.30848 0.36222-0.77106 0.58371-1.2457 0.61643-0.47465 0.03272-0.95638-0.11913-1.3386-0.40238-0.52078-0.38588-0.85134-1.017-0.87202-1.6648" stroke="#b98eeb" style="paint-order:stroke markers fill"/>
  <path d="m106.2 33.918c0.27426-0.26793 0.67441-0.40108 1.0545-0.35091 0.38011 0.05018 0.73201 0.2826 0.92735 0.61252 0.12592 0.21266 0.18772 0.46088 0.18892 0.70802 1e-3 0.24714-0.057 0.49303-0.15722 0.71894-0.20201 0.45535-0.57556 0.82744-1.0205 1.0514s-0.95759 0.30255-1.4528 0.24876c-0.29015-0.03151-0.58035-0.10956-0.82446-0.26954-0.26719-0.1751-0.46593-0.4399-0.60915-0.72544-0.14323-0.28555-0.23516-0.59353-0.32629-0.89971-0.15668-0.5264-0.3146-1.0788-0.20612-1.6172 0.0588-0.29193 0.19541-0.56597 0.38121-0.79869s0.41994-0.42481 0.67689-0.57534c0.5139-0.30106 1.1093-0.43395 1.7007-0.5048 0.78409-0.09394 1.5803-0.08592 2.3624 0.02379" stroke="#cf886f" style="paint-order:stroke markers fill"/>
  <g stroke="#dfd686">
   <path d="m110.67 11.301c-0.28275-0.19999-0.63826-0.2946-0.98301-0.26161-0.34655 0.03316-0.68098 0.19639-0.91238 0.45649-0.2314 0.2601-0.35506 0.61576-0.32431 0.96254 0.0249 0.2805 0.14839 0.54946 0.3363 0.75919 0.18792 0.20973 0.43826 0.36062 0.70831 0.44042 0.27005 0.0798 0.55904 0.08961 0.83627 0.04023s0.54278-0.15707 0.78276-0.30439c0.56098-0.34438 0.9795-0.91215 1.1469-1.5488 0.1674-0.63661 0.083-1.3351-0.22733-1.9156-0.40831-0.76394-1.1907-1.2971-2.0377-1.4785s-1.7474-0.029359-2.5285 0.34491c-1.2962 0.621-2.2766 1.8715-2.5526 3.282-0.0516 0.26358-0.0798 0.5332-0.0606 0.80109s0.0872 0.53461 0.21916 0.76857c0.17536 0.31103 0.45265 0.54891 0.71347 0.79276 0.32654 0.3053 0.63576 0.63015 0.98301 0.91167 0.7074 0.57351 1.568 0.95623 2.4677 1.0974 0.89967 0.14118 1.8361 0.04046 2.6852-0.2888" style="paint-order:stroke markers fill"/>
   <path d="m49.189 31.144c-0.49132-0.12853-0.91856-0.48315-1.1354-0.94239s-0.21914-1.0145-0.0062-1.4755c0.13204-0.28585 0.34023-0.53198 0.57921-0.737 0.23898-0.20502 0.50884-0.37097 0.78431-0.52349 0.26346-0.14587 0.53515-0.28106 0.82446-0.36467 0.43512-0.12574 0.90162-0.13043 1.3447-0.03664 0.44311 0.0938 0.86315 0.28426 1.2396 0.53607 0.84643 0.56612 1.481 1.4772 1.6095 2.4873 0.06427 0.50508 0.0024 1.0276-0.19189 1.4982-0.19426 0.47064-0.52202 0.88749-0.942 1.1753-0.25159 0.17244-0.53814 0.29936-0.84031 0.34088-0.29152 0.04006-0.59431-0.0013-0.86286-0.12157-0.26855-0.12028-0.50174-0.31955-0.65921-0.56813-0.22053-0.34813-0.28598-0.78204-0.22197-1.1891 0.05867-0.37308 0.21976-0.72398 0.42232-1.0427 0.20256-0.31874 0.44665-0.60865 0.68752-0.89953 0.59187-0.71474 1.1697-1.4425 1.8075-2.1167 1.1801-1.2474 2.5616-2.3037 4.0747-3.1155" style="paint-order:stroke markers fill"/>
   <path d="m27.499 44.097c-1.8894 0.68983-3.4826 2.1547-4.3284 3.9796-0.29936 0.64596-0.50773 1.3319-0.65005 2.0295-0.11967 0.58655-0.19315 1.1907-0.11098 1.7837 0.07266 0.52436 0.26889 1.0327 0.57804 1.4624 0.30916 0.42972 0.73172 0.77912 1.2172 0.99026 0.48544 0.21114 1.0329 0.28185 1.554 0.18835 0.52105-0.0935 1.013-0.35272 1.3756-0.73843 0.49141-0.52276 0.72764-1.2731 0.63174-1.9842-0.0959-0.71104-0.51979-1.3696-1.1232-1.7576-0.57918-0.37247-1.2819-0.49182-1.966-0.57078-1.1113-0.12828-2.2411-0.17112-3.3454 0.0079-1.894 0.30704-3.6725 1.2846-4.9467 2.7192" style="paint-order:stroke markers fill"/>
  </g>
  <path d="m97.483 22.804c0.2147 1.6529 1.1854 3.1924 2.5844 4.0986 0.0985 0.06382 0.19901 0.12464 0.30125 0.18233" stroke="#8caaeb" style="paint-order:stroke markers fill"/>
  <path d="m95.85 26.744c1.2133 0.38798 2.5863 0.24513 3.6937-0.38432 1.1074-0.62944 1.9327-1.736 2.2202-2.977 0.024-0.10366 0.0446-0.20875 0.084-0.3076 0.0394-0.09885 0.0996-0.19256 0.18743-0.25257 0.0439-0.03 0.0944-0.05102 0.14705-0.05831 0.0527-0.0073 0.10765-5.38e-4 0.15591 0.02186 0.0483 0.02239 0.0894 0.06074 0.11277 0.10855 0.0233 0.04781 0.0281 0.10492 0.0104 0.15511-0.0121 0.03438-0.0344 0.06509-0.0634 0.0872" stroke="#8caaeb" style="paint-order:stroke markers fill"/>
  <path d="m84.212 45.175c-0.71088 0.19359-1.3689 0.57788-1.8867 1.1019-0.57097 0.57778-0.97132 1.3321-1.0821 2.1368-0.11074 0.80472 0.0785 1.6555 0.55885 2.3106 0.24164 0.32953 0.55862 0.61092 0.93544 0.76898 0.37719 0.1582 0.79615 0.18706 1.205 0.1744 1.9024-0.05887 3.7571-1.0222 4.8992-2.5447" stroke="#e96969" style="paint-order:stroke markers fill"/>
  <path d="m35.078 13.6c-0.67898-0.01699-1.3461-0.32156-1.8037-0.82346s-0.69942-1.1943-0.65379-1.8719c0.04516-0.67071 0.36138-1.3056 0.8086-1.8075 0.58061-0.65157 1.3909-1.0972 2.2542-1.2255 0.86326-0.12822 1.7727 0.064772 2.5023 0.5437 0.56619 0.37166 1.021 0.91068 1.2922 1.5313 0.27117 0.62062 0.35766 1.3206 0.24572 1.9885" stroke="#cf886f" style="paint-order:stroke markers fill"/>
  <path d="m21.791 32.586 2.6478-3.0997" stroke="#70d58d" style="paint-order:stroke markers fill"/>
  <path d="m101.83 5.1649 0.34881 4.2492" stroke="#7acbd7" style="paint-order:stroke markers fill"/>
  <path d="m103.83 49.29 4.0113-2.9332" stroke="#eb8ebc" style="paint-order:stroke markers fill"/>
  <path d="m76 36.939c-0.34106-0.31921-0.83393-0.46851-1.2948-0.3922-0.46086 0.0763-0.87932 0.37648-1.0993 0.78858-0.1201 0.22498-0.18264 0.48039-0.1801 0.7354 0.0025 0.25502 0.07018 0.50912 0.19474 0.73166 0.12456 0.22254 0.30579 0.41306 0.52184 0.54858s0.46646 0.21575 0.72103 0.23103c0.25457 0.01527 0.51278-0.03444 0.74348-0.14316 0.2307-0.10871 0.43341-0.2762 0.58369-0.48225 0.15028-0.20605 0.24781-0.45025 0.28082-0.70313 0.03302-0.25288 0.0015-0.51393-0.09088-0.75166" stroke="#eb8ebc" style="paint-order:stroke markers fill"/>
  <path d="m44.623 48.394c-0.13594 0.08094-0.23772 0.21734-0.27662 0.3707-0.03889 0.15336-0.01441 0.32178 0.06653 0.45772 0.08094 0.13594 0.21734 0.23772 0.3707 0.27662 0.15336 0.03889 0.32178 0.01441 0.45772-0.06653s0.23772-0.21734 0.27662-0.3707c0.03889-0.15336 0.01441-0.32178-0.06653-0.45772-0.08094-0.13594-0.21734-0.23772-0.3707-0.27662-0.15336-0.03889-0.32178-0.01441-0.45772 0.06653z" stroke="#8caaeb" style="paint-order:stroke markers fill"/>
  <path d="m118.43 26.894 1.3477-3.5198c0.48727-0.11346 0.99093-0.15633 1.4904-0.12684 0.80198 0.04735 1.5797 0.27848 2.3624 0.4598 0.32063 0.07428 0.64316 0.14037 0.96716 0.19819-0.28024 1.0823-0.53402 2.1715-0.76104 3.2662-0.0433 0.20856-0.0855 0.41732-0.12684 0.62628z" stroke="#8caaeb" style="paint-order:stroke markers fill"/>
  <path d="m52.82 5.482-4.1381 3.7894" stroke="#b98eeb" style="paint-order:stroke markers fill"/>
  <path d="m48.84 4.6654c0.72712 1.8297 1.9224 3.4711 3.4405 4.7248 0.12475 0.10302 0.25162 0.20346 0.38052 0.30125" stroke="#b98eeb" style="paint-order:stroke markers fill"/>
  <g stroke="#eb8ebc">
   <path d="m2.829 54.871c1.1735-2.3408 2.7716-4.468 4.6931-6.2469 0.6758-0.62565 1.3912-1.2086 2.1404-1.7441" style="paint-order:stroke markers fill"/>
   <path d="m5.3023 44.787c-0.3427 2.9727 0.27701 6.0488 1.744 8.6569 0.28226 0.50181 0.59483 0.98656 0.93544 1.4507" style="paint-order:stroke markers fill"/>
   <path d="m1.4813 48.497c1.0274-0.3634 2.1699-0.39324 3.2149-0.08398 1.045 0.30927 1.9872 0.95608 2.6514 1.8201 0.12501 0.16263 0.24046 0.3327 0.37181 0.49025 0.13135 0.15756 0.28037 0.30369 0.4583 0.40576 0.17793 0.10206 0.38752 0.15767 0.59035 0.12707 0.10142-0.0153 0.19996-0.0521 0.28442-0.11029 0.084457-0.05819 0.15448-0.13801 0.19771-0.23102 0.025517-0.05491 0.041674-0.11415 0.047565-0.1744" style="paint-order:stroke markers fill"/>
  </g>
  <path d="m63.363 12.712c-0.5736-0.85873-0.76279-1.9643-0.50736-2.9649 0.23481-0.91981 0.83947-1.7396 1.6489-2.2356" stroke="#e96969" style="paint-order:stroke markers fill"/>
  <path d="m37.393 28.361c-0.22782-0.16404-0.5095-0.25194-0.79019-0.24655-0.28068 0.0054-0.55879 0.10401-0.78015 0.27668-0.22136 0.17266-0.38473 0.41839-0.45829 0.68932-0.07356 0.27093-0.05689 0.56554 0.04675 0.82644 0.08391 0.21121 0.22204 0.39787 0.38311 0.55821 0.16106 0.16034 0.34509 0.29575 0.53315 0.42335 0.37613 0.2552 0.77937 0.48869 1.0656 0.84178 0.20965 0.25861 0.34788 0.57684 0.38052 0.90814 0.03264 0.33131-0.04255 0.67441-0.22197 0.95483-0.12963 0.20259-0.31047 0.36982-0.51364 0.49854-0.20317 0.12872-0.42846 0.21993-0.65963 0.28628-0.54426 0.15622-1.1273 0.17547-1.6806 0.05549" stroke="#b98eeb" style="paint-order:stroke markers fill"/>
  <path d="m115.15 36.027c-0.23674-0.24127-0.37742-0.57433-0.38533-0.91226-8e-3 -0.33793 0.11702-0.67721 0.34221-0.9293 0.22518-0.25209 0.54827-0.41437 0.88494-0.44448 0.33668-0.03012 0.68344 0.07224 0.94979 0.28036 0.34367 0.26854 0.5385 0.69196 0.61747 1.1209 0.079 0.42894 0.054 0.8693 0.0312 1.3049s-0.0429 0.87675 0.0456 1.3038 0.2982 0.84523 0.65342 1.0983c0.21678 0.15444 0.47988 0.2407 0.74571 0.25386 0.26584 0.01316 0.53378-0.04576 0.77377-0.16085 0.47999-0.23018 0.83515-0.67889 1.0173-1.1791 0.15425-0.42357 0.19301-0.88857 0.11099-1.3318" stroke="#8caaeb" style="paint-order:stroke markers fill"/>
  <path d="m123.64 14.353c0.13883-0.30788 0.19154-0.65406 0.15064-0.9893-0.0409-0.33525-0.1753-0.6586-0.38408-0.92407s-0.49134-0.4723-0.8075-0.59106c-0.31616-0.11877-0.665-0.14914-0.99693-0.08679s-0.64598 0.21723-0.8975 0.44263c-0.25151 0.2254-0.43976 0.52066-0.53798 0.84379-0.0982 0.32314-0.10613 0.67321-0.0226 1.0005 0.0835 0.32724 0.25827 0.63069 0.49935 0.86721 0.32087 0.31479 0.74173 0.50143 1.1367 0.71601 0.19749 0.10729 0.39134 0.22355 0.56411 0.3673s0.32458 0.31637 0.42374 0.51806c0.13693 0.27851 0.16718 0.60131 0.12556 0.90885-0.0416 0.30754-0.15177 0.60206-0.28411 0.88278-0.0809 0.17167-0.17095 0.34009-0.28539 0.49151-0.19803 0.26202-0.46852 0.46869-0.77337 0.59089-0.30486 0.12221-0.6432 0.1596-0.96738 0.10692-0.32419-0.05268-0.63328-0.19529-0.88375-0.40774-0.25047-0.21245-0.44161-0.49413-0.54648-0.80537" stroke="#7acbd7" style="paint-order:stroke markers fill"/>
  <path d="m85.322 12.046c-0.19943-0.17292-0.32895-0.42428-0.354-0.68705-0.02505-0.26277 0.05463-0.53407 0.2178-0.74156 0.16317-0.20749 0.40804-0.34889 0.6693-0.3865 0.26127-0.03761 0.53608 0.02899 0.75114 0.18203 0.28014 0.19935 0.4464 0.53042 0.50555 0.86913 0.05915 0.33871 0.02122 0.68699-0.04091 1.0252s-0.14838 0.67243-0.18661 1.0141c-0.03824 0.3417-0.02621 0.69688 0.10249 1.0157 0.15846 0.39255 0.49645 0.70841 0.89881 0.83997 0.40237 0.13156 0.86167 0.0764 1.2214-0.14671 0.35977-0.2231 0.61334-0.61002 0.67434-1.0289 0.061-0.41891-0.07171-0.86207-0.35292-1.1785" stroke="#e96969" style="paint-order:stroke markers fill"/>
  <path d="m3.3522 23.335c-0.085446-0.22607-0.087558-0.4826-0.00584-0.71005 0.081713-0.22745 0.24659-0.42398 0.45637-0.54399 0.20978-0.12001 0.46277-0.16253 0.70025-0.11768 0.23749 0.04484 0.45755 0.17668 0.60912 0.36492 0.16653 0.20682 0.24738 0.47372 0.26042 0.73893 0.013049 0.26521-0.037965 0.52998-0.11267 0.78478-0.14941 0.50961-0.39563 0.99867-0.43315 1.5284-0.024385 0.34435 0.043152 0.69478 0.19377 1.0054 0.15061 0.31062 0.38393 0.58067 0.6694 0.77478 0.28547 0.19411 0.62239 0.3118 0.96663 0.33766 0.34424 0.02586 0.69496-0.04018 1.0062-0.18946 0.31126-0.14928 0.58231-0.38144 0.77764-0.66608s0.31446-0.62105 0.34179-0.96518c0.027333-0.34413-0.0372-0.69513-0.18515-1.007-0.14795-0.3119-0.37895-0.58394-0.66275-0.78049" stroke="#e96969" style="paint-order:stroke markers fill"/>
  <path d="m49.934 54.562c-0.32047 0.08025-0.66396 0.06617-0.97678-0.04004-0.31282-0.10621-0.59388-0.30418-0.79924-0.56296-0.20536-0.25878-0.3343-0.57746-0.36667-0.90624-0.03237-0.32878 0.03195-0.66648 0.1829-0.96034 0.15095-0.29386 0.38801-0.54283 0.67412-0.70801s0.62026-0.24597 0.95022-0.22976c0.32997 0.01621 0.65458 0.12938 0.92312 0.32181s0.48004 0.46344 0.60146 0.77069c0.16934 0.42851 0.16108 0.90751 0.09087 1.3629-0.07021 0.45537-0.19937 0.90026-0.26528 1.3563-0.03782 0.26164-0.05434 0.53075 0.0044 0.7885 0.05871 0.25775 0.20036 0.50499 0.42372 0.64639 0.08321 0.05268 0.17551 0.0896 0.26954 0.11891 0.53868 0.16793 1.1513 0.07956 1.6205-0.23378 0.46925-0.31334 0.78565-0.84531 0.83698-1.4072" stroke="#7acbd7" style="paint-order:stroke markers fill"/>
  <path d="m83.483 26.982c-0.3347-0.02177-0.6752 0.05448-0.96864 0.21694-0.29344 0.16245-0.53881 0.41054-0.69802 0.70575s-0.23172 0.63652-0.20626 0.97097c0.02546 0.33444 0.14879 0.66085 0.35085 0.92856 0.28749 0.3809 0.73551 0.63643 1.2097 0.68998 0.4742 0.05355 0.96792-0.09564 1.3331-0.40284 0.36519-0.30719 0.59672-0.76808 0.62517-1.2444 0.02844-0.47636-0.1466-0.96152-0.47264-1.31" stroke="#70d58d" style="paint-order:stroke markers fill"/>
  <path d="m118.76 5.371c-0.21161-0.2687-0.2909-0.63683-0.20867-0.96881 0.0822-0.33199 0.32419-0.62054 0.63676-0.7594 0.19972-0.088723 0.42556-0.11764 0.64119-0.082095s0.42024 0.13541 0.58092 0.28354 0.27683 0.34396 0.32975 0.556c0.0529 0.21203 0.0424 0.43948-0.0298 0.64574" stroke="#dfd686" style="paint-order:stroke markers fill"/>
  <path d="m55.467 20.061 1.7599-3.7894 2.838 3.9479c-1.1112 0.43944-2.3608 0.52106-3.5198 0.2299-0.3711-0.09323-0.73286-0.22357-1.0781-0.38845z" stroke="#70d58d" style="paint-order:stroke markers fill"/>
  <path d="m48.047 41.941c-0.30935 0.07963-0.65045 0.027-0.92142-0.14217-0.27096-0.16917-0.46802-0.45252-0.53232-0.76541-0.06429-0.3129 0.0051-0.65099 0.18738-0.9133 0.18231-0.2623 0.47502-0.44517 0.7907-0.49397 0.27304-0.04221 0.55628 0.01352 0.80582 0.13208 0.24955 0.11856 0.467 0.29767 0.65283 0.50212 0.14868 0.16358 0.27826 0.34372 0.42664 0.50757s0.3196 0.31362 0.52465 0.39617c0.19546 0.07869 0.41486 0.092 0.62109 0.04882 0.20623-0.04318 0.39926-0.14148 0.56318-0.27386 0.32784-0.26478 0.53277-0.6559 0.65491-1.0592 0.07875-0.26006 0.12676-0.52942 0.1427-0.80068" stroke="#eb8ebc" style="paint-order:stroke markers fill"/>
  <path d="m25.28 19.411c0.03937-0.25976 0.18482-0.50185 0.39567-0.65859 0.21086-0.15674 0.48458-0.22624 0.74467-0.18909 0.26009 0.03716 0.50341 0.18053 0.66194 0.39004 0.15853 0.20951 0.23037 0.48264 0.19544 0.74303-0.02327 0.17343-0.09153 0.33853-0.18061 0.48914-0.08908 0.15061-0.19883 0.28786-0.31102 0.42215-0.22437 0.26857-0.46629 0.53838-0.57065 0.87242-0.06591 0.21095-0.07238 0.43941-0.02374 0.655 0.04864 0.21558 0.15177 0.41801 0.29346 0.58761 0.28339 0.3392 0.71658 0.53811 1.1572 0.57281 0.34832 0.02742 0.70383-0.0432 1.0152-0.20167 0.31139-0.15848 0.57772-0.40433 0.76054-0.70207" stroke="#8caaeb" style="paint-order:stroke markers fill"/>
  <path d="m111.91 50.899c0.0911-0.16092 0.22987-0.29442 0.39423-0.37913 0.16435-0.0847 0.35363-0.12029 0.53753-0.10106 0.18389 0.01922 0.36172 0.09319 0.505 0.21006 0.14328 0.11686 0.25149 0.27619 0.30729 0.45247 0.0515 0.16268 0.0585 0.33786 0.0313 0.50631s-0.088 0.33045-0.16826 0.48102c-0.16059 0.30113-0.39616 0.55427-0.62583 0.8067-0.22967 0.25243-0.45927 0.51258-0.60411 0.8216-0.0724 0.15451-0.12269 0.32045-0.1368 0.4905-0.0141 0.17006 9e-3 0.3444 0.0768 0.50091 0.0977 0.22486 0.28659 0.40479 0.50819 0.50969 0.22159 0.10489 0.4738 0.1374 0.71768 0.1124 0.48778-0.05001 0.92566-0.31877 1.3109-0.62208 0.15905-0.12522 0.31251-0.25752 0.4598-0.39638" stroke="#dfd686" style="paint-order:stroke markers fill"/>
  <path d="m123.98 47.625c-0.63791-0.05179-1.293 0.1518-1.7892 0.55604-0.49619 0.40425-0.82796 1.0047-0.90616 1.6399-0.0536 0.4354 0.01 0.88461 0.18101 1.2884 0.17149 0.40377 0.45094 0.7611 0.80149 1.0249 0.35054 0.26375 0.77131 0.43326 1.2068 0.48617 0.43548 0.05291 0.8846-0.01091 1.2881-0.18304 0.4035-0.17213 0.76039-0.45215 1.0236-0.80311 0.26319-0.35096 0.43204-0.77199 0.48426-1.2076 0.0522-0.43556-0.0123-0.88458-0.18507-1.2878s-0.45335-0.75968-0.80472-1.0223" stroke="#70d58d" style="paint-order:stroke markers fill"/>
  <path d="m129.35 39.119c-0.30954 0.19934-0.51739 0.54865-0.54493 0.91579-0.0275 0.36714 0.1259 0.74355 0.40224 0.98682 0.28776 0.25333 0.70199 0.35507 1.0744 0.2639 0.37239-0.09118 0.69275-0.37279 0.83092-0.73041 0.13817-0.35762 0.0904-0.78148-0.12397-1.0993-0.21435-0.31787-0.58938-0.52106-0.97272-0.52702" stroke="#eb8ebc" style="paint-order:stroke markers fill"/>
  <path d="m96.817 43.55c-0.31418-0.09795-0.65536-0.1077-0.97463-0.02785-0.31926 0.07986-0.61568 0.24908-0.84675 0.48341s-0.39613 0.53308-0.47151 0.85344c-0.07538 0.32035-0.06086 0.66136 0.04148 0.97414 0.17758 0.54275 0.62209 0.98487 1.1565 1.1862 0.5344 0.20134 1.1476 0.16648 1.6683-0.06799 0.52071-0.23448 0.94716-0.66086 1.2084-1.1687s0.3604-1.093 0.31104-1.6619c-0.04459-0.51398-0.20869-1.0172-0.47565-1.4587" stroke="#8caaeb" style="paint-order:stroke markers fill"/>
  <path d="m71.227 51.137c0.05487-0.19481 0.16094-0.37496 0.30466-0.51745 0.14373-0.14249 0.32478-0.247 0.52006-0.30018 0.19528-0.05319 0.40432-0.05493 0.60045-5e-3 0.19614 0.04993 0.3789 0.1514 0.52498 0.29148 0.21038 0.20173 0.34034 0.47883 0.39107 0.76585 0.05074 0.28702 0.02572 0.5838-0.04227 0.86722-0.19568 0.81578-0.7636 1.5362-1.5151 1.9092-0.75147 0.37292-1.6729 0.38843-2.4328 0.03309-0.72174-0.33748-1.2704-0.97917-1.6172-1.6965-0.28963-0.59915-0.45222-1.2673-0.41006-1.9315 0.04215-0.66414 0.29788-1.3225 0.75887-1.8024 0.49409-0.51441 1.1772-0.79193 1.8233-1.094 0.32515-0.15201 0.64932-0.31482 0.99886-0.39638 0.33626-0.07846 0.68564-0.07914 1.0306-0.06342 0.61823 0.02817 1.2341 0.10781 1.8392 0.23783" stroke="#8caaeb" style="paint-order:stroke markers fill"/>
  <path d="m80.867 18.119c-0.32903-0.28723-0.58711-0.65514-0.74518-1.0623-0.16949-0.43656-0.22327-0.9101-0.2301-1.3784-0.0068-0.46826 0.03172-0.93597 0.03984-1.4042 0.03097-1.7864-0.37977-3.5467-0.74518-5.2956-0.11514-0.55109-0.22632-1.1043-0.39637-1.641-0.2344-0.73977-0.58074-1.4447-1.0306-2.077-0.4626-0.65029-1.0539-1.2361-1.7922-1.539-0.36916-0.15146-0.77114-0.2288-1.1693-0.20285-0.39818 0.025957-0.79193 0.15752-1.1132 0.39415-0.25868 0.19052-0.46756 0.44682-0.60772 0.7359-0.14016 0.28908-0.2119 0.61029-0.21446 0.93154-0.0051 0.64251 0.27051 1.2738 0.71119 1.7414 0.42424 0.45015 0.98892 0.7511 1.5802 0.93291 0.59123 0.1818 1.2112 0.2505 1.8287 0.28794 2.0232 0.12269 4.059-0.081955 6.0407-0.50736 1.459-0.31318 2.8923-0.74583 4.2808-1.2922" stroke="#b98eeb" style="paint-order:stroke markers fill"/>
  <path d="m62.301 34.584c0.1337-0.4924 0.37952-0.954 0.71347-1.3398 0.45995-0.53131 1.0769-0.91024 1.7312-1.1666 0.65431-0.25636 1.3481-0.3962 2.0422-0.50612 2.8401-0.44977 5.7881-0.40997 8.5458 0.40431 1.0096 0.2981 1.9927 0.69878 3.0283 0.88789 0.86349 0.15768 1.7477 0.16517 2.6161 0.29332 0.93445 0.1379 1.8678 0.41608 2.8063 0.30918 0.77523-0.0883 1.4951-0.43407 2.188-0.79276 0.71026-0.36768 1.4173-0.75914 2.0154-1.2901 0.59812-0.53095 1.0858-1.2173 1.2507-1.9999 0.16027-0.76052 0.0055-1.5611-0.30124-2.2752-0.46552-1.0839-1.2823-2.0099-2.2876-2.6272-1.0053-0.61728-2.1933-0.92628-3.3727-0.90057-2.1141 0.04607-4.1716 1.2134-5.2956 3.0045" stroke="#dfd686" style="paint-order:stroke markers fill"/>
  <path d="m106.47 43.352c-1.8783 0.62671-3.6602 1.5418-5.2638 2.7033-0.85821 0.62158-1.6799 1.3298-2.2301 2.2354-0.2751 0.45282-0.47866 0.95217-0.56868 1.4743-0.09002 0.52213-0.06423 1.0674 0.1034 1.5701 0.2868 0.85991 0.98099 1.5513 1.7999 1.9399 0.81891 0.38869 1.7523 0.49361 2.6553 0.41455 1.5315-0.13408 3.0183-0.80077 4.1064-1.8868 0.50815-0.50716 0.92599-1.0963 1.3318-1.6886 0.68921-1.0058 1.357-2.0365 2.206-2.9116s1.907-1.5962 3.1054-1.8211c0.53919-0.10123 1.1003-0.09925 1.6331 0.03171 0.25665 0.06309 0.50803 0.15676 0.72933 0.30125 0.37104 0.24224 0.64182 0.61932 0.80596 1.0309 0.16414 0.41159 0.22742 0.85741 0.24231 1.3003 0.0298 0.88573-0.12823 1.7781-2e-3 2.6553 0.15331 1.0641 0.71105 2.0203 1.2525 2.9491 0.2922 0.50119 0.58288 1.0033 0.87202 1.5062" stroke="#7acbd7" style="paint-order:stroke markers fill"/>
  <path d="m96.865 30.065c0.64086-0.0023 1.2816-0.03936 1.9184-0.11099 0.86896-0.09774 1.7296-0.25963 2.5844-0.44394 1.941-0.41854 3.8554-0.95306 5.7554-1.53 1.0832-0.32895 2.1717-0.67586 3.1551-1.2367 0.72173-0.4116 1.3822-0.93855 1.9088-1.5812 0.52665-0.64261 0.91698-1.403 1.0878-2.2161 0.11686-0.55634 0.12614-1.1561-0.11099-1.6727-0.15127-0.32958-0.39815-0.61182-0.69366-0.82199-0.29552-0.21017-0.63852-0.34961-0.99324-0.42497-0.70943-0.15072-1.4506-0.04712-2.15 0.14503-0.70346 0.19327-1.3981 0.48565-1.93 0.98498-0.26592 0.24967-0.48745 0.54948-0.6291 0.88562-0.14166 0.33613-0.20161 0.70913-0.15212 1.0705 0.0501 0.36557 0.21345 0.71568 0.46583 0.98485 0.25237 0.26917 0.59311 0.45536 0.95698 0.51657 0.36387 0.06121 0.74871-4e-3 1.0693-0.1867 0.32056-0.18272 0.57377-0.48256 0.69478-0.83113 0.0669-0.19268 0.0941-0.39906 0.0793-0.60249" stroke="#70d58d" style="paint-order:stroke markers fill"/>
  <path d="m34.142 3.5397c-0.39015-0.081737-0.79122-0.11115-1.1891-0.087203-0.86111 0.051824-1.6979 0.35468-2.4281 0.81415-0.73012 0.45948-1.3567 1.072-1.8845 1.7544-0.80991 1.0471-1.3984 2.2785-1.6111 3.585-0.21263 1.3065-0.03664 2.6879 0.58049 3.859 0.6327 1.2006 1.6867 2.1266 2.8063 2.8936 1.2055 0.82575 2.5315 1.516 3.5198 2.5923 0.81354 0.88598 1.3696 2.0475 1.3635 3.2503-0.0031 0.61493-0.15006 1.2204-0.33295 1.8075-1.2663 4.0649-4.3878 7.5111-8.308 9.1722" stroke="#dfd686" style="paint-order:stroke markers fill"/>
  <path d="m5.667 31.04c-0.72437 0.61528-1.245 1.4665-1.4629 2.3916-0.21784 0.92511-0.13169 1.9192 0.24203 2.793 0.40094 0.93748 1.1292 1.7281 2.0222 2.2203 0.89295 0.4922 1.9442 0.68592 2.9563 0.56228 1.3852-0.16922 2.6394-0.90432 3.7418-1.7599 2.7009-2.0963 4.7856-5.1423 5.1846-8.538 0.06592-0.56114 0.08582-1.1328-0.01585-1.6886-0.08468-0.46291-0.25431-0.91128-0.50736-1.308-0.55139-0.86454-1.5098-1.4567-2.5297-1.5629s-2.0798 0.27567-2.7975 1.008" stroke="#7acbd7" style="paint-order:stroke markers fill"/>
  <path d="m39.454 15.185c1.0093-0.97556 1.8453-2.1298 2.4575-3.393 0.2395-0.49417 0.45617-1.0205 0.86078-1.3918 0.20231-0.18564 0.45108-0.32694 0.72178-0.3729 0.2707-0.045957 0.56348 0.01015 0.77983 0.17922 0.14084 0.11006 0.24487 0.26312 0.31085 0.42924 0.06598 0.16612 0.09526 0.34515 0.1024 0.52375 0.01429 0.3572-0.05798 0.71175-0.0803 1.0685-0.05872 0.93859 0.22917 1.8652 0.59487 2.7316 0.3657 0.8664 0.81319 1.7006 1.1016 2.5957 0.29776 0.92408 0.43315 1.9269 0.98301 2.7271 0.08626 0.12553 0.18401 0.24887 0.22197 0.39638 0.01473 0.05724 0.01992 0.11649 0.03171 0.17441 0.04825 0.23707 0.21066 0.44497 0.42161 0.56341 0.21095 0.11844 0.46612 0.14968 0.70326 0.10176 0.23713-0.04793 0.45587-0.17212 0.63072-0.33932 0.17485-0.1672 0.30697-0.37618 0.3993-0.59979 0.18466-0.44723 0.21085-0.94258 0.21153-1.4264 6.75e-4 -0.48386-0.02129-0.97273 0.07524-1.4469 0.10531-0.51722 0.3501-1.0002 0.67015-1.4199s0.71412-0.7787 1.1356-1.0964c0.843-0.63543 1.7969-1.1104 2.6495-1.7329 0.87896-0.64173 1.6377-1.4307 2.4417-2.1642 0.55882-0.50984 1.141-0.9941 1.744-1.4507" stroke="#8caaeb" style="paint-order:stroke markers fill"/>
  <path d="m92.616 4.1501c2.2918 4.5994 5.28 8.851 8.8312 12.565 1.0711 1.1203 2.1931 2.192 3.3612 3.2107" stroke="#eb8ebc" style="paint-order:stroke markers fill"/>
  <path d="m31.669 50.606c4.4852-3.1675 8.2853-7.2998 11.067-12.034 0.52833-0.89927 1.0204-1.8199 1.4745-2.7588" stroke="#8caaeb" style="paint-order:stroke markers fill"/>
  <path d="m59.78 27.972c1.6152-1.3327 3.1661-2.7433 4.6455-4.2254 0.75561-0.75699 1.4967-1.5377 2.0904-2.4273 0.59376-0.88962 1.0381-1.8991 1.144-2.9635 0.0462-0.46426 0.0257-0.94429-0.1427-1.3794-0.12557-0.32445-0.33268-0.61745-0.599-0.84131-0.26632-0.22385-0.59149-0.37777-0.93409-0.43827-0.3426-0.06051-0.70179-0.02703-1.026 0.09909-0.32424 0.12613-0.61234 0.34494-0.81798 0.62556-0.34179 0.46642-0.44031 1.0708-0.42808 1.6489 0.01364 0.64484 0.15632 1.2947 0.47565 1.855 0.26598 0.46678 0.64953 0.8622 1.092 1.1669 0.44247 0.30472 0.94296 0.52037 1.4613 0.66158 1.0367 0.28242 2.1302 0.26851 3.202 0.19303 2.0001-0.14084 3.9855-0.48949 5.9139-1.0385" stroke="#eb8ebc" style="paint-order:stroke markers fill"/>
  <g stroke="#dfd686">
   <path d="m88.921 44.874c0.18079-0.32177 0.36048-0.64416 0.53907-0.96716 0.66228-1.1978 1.3169-2.415 2.2158-3.4473s2.0795-1.8791 3.4286-2.11c0.77623-0.1328 1.5705-0.0579 2.3578-0.04116 0.78733 0.01673 1.6031-0.03207 2.3062-0.3868 0.35155-0.17736 0.6684-0.43141 0.89222-0.75537 0.22381-0.32396 0.35061-0.71982 0.32535-1.1128-0.0252-0.39294-0.20944-0.7791-0.51855-1.023-0.15455-0.12196-0.33811-0.20767-0.53163-0.24391-0.19351-0.03624-0.39668-0.02252-0.58226 0.04319-0.08376 0.02966-0.16384 0.0697-0.23782 0.11891" style="paint-order:stroke markers fill"/>
   <path d="m115 29.875c0.31158 0.02214 0.62342 0.04064 0.93544 0.05549 2.9524 0.14051 5.9173-0.04577 8.8629 0.19819 1.2462 0.10321 2.486 0.28336 3.7101 0.53908" style="paint-order:stroke markers fill"/>
   <path d="m112.28 33.387c1.1549 0.95596 1.7908 2.5044 1.6412 3.9961-0.14964 1.4917-1.0805 2.883-2.4022 3.5905-0.12973 0.06944-0.26317 0.13287-0.3854 0.21479-0.12223 0.08192-0.23431 0.18447-0.30372 0.31422-0.0347 0.06488-0.0583 0.13606-0.0656 0.20927-7e-3 0.0732 2e-3 0.14842 0.0296 0.21652 0.0278 0.0681 0.0748 0.12879 0.13563 0.17013 0.0609 0.04134 0.1357 0.06266 0.209 0.05627 0.0662-0.0058 0.12883-0.03332 0.18556-0.06794 0.0567-0.03462 0.10868-0.07645 0.16325-0.11439 0.282-0.1961 0.62815-0.28358 0.97102-0.30404 0.34287-0.02045 0.68604 0.02225 1.0267 0.06621 2.5586 0.33015 5.134 0.73671 7.7055 0.53115 0.32264-0.02579 0.64612-0.06123 0.9692-0.04183 0.32309 0.0194 0.65013 0.0973 0.91754 0.27965 0.0328 0.02233 0.0645 0.04615 0.0951 0.07135" style="paint-order:stroke markers fill"/>
  </g>
  <path d="m51.9 46.182c1.961-0.06653 3.9294 0.87821 5.1041 2.4498 1.1748 1.5715 1.5237 3.7268 0.90489 5.5888-0.01615 0.0486-0.03298 0.09725-0.04176 0.1477-0.0088 0.05046-0.0092 0.10334 0.0071 0.15189 0.0082 0.02427 0.02048 0.04725 0.03702 0.06679 0.01655 0.01954 0.03739 0.03559 0.06095 0.04562s0.04985 0.01393 0.07517 0.01011c0.02532-0.0038 0.04956-0.0155 0.0676-0.03367 0.02181-0.02197 0.03351-0.05168 0.04756-0.07927 0.06583-0.12931 0.18784-0.21867 0.30124-0.30918 0.28803-0.22987 0.54478-0.49583 0.8086-0.75312 0.77692-0.75768 1.6217-1.4457 2.5209-2.0532" stroke="#70d58d" style="paint-order:stroke markers fill"/>
  <path d="m70.133 36.732c-0.3301 1.5604 0.02376 3.253 0.9513 4.5504 1.008 1.41 2.6801 2.3226 4.4113 2.4077s3.4847-0.65934 4.626-1.9637" stroke="#70d58d" style="paint-order:stroke markers fill"/>
  <path d="m43.338 30.501 0.93544-5.7475" stroke="#cf886f" style="paint-order:stroke markers fill"/>
  <path d="m24.075 37.787c-0.50378-0.14201-1.074-0.02161-1.4773 0.31194-0.40336 0.33355-0.62869 0.87101-0.5838 1.3925 0.04459 0.51797 0.35434 1.0061 0.80402 1.267 0.44968 0.2609 1.0272 0.28754 1.499 0.06916 0.4718-0.21838 0.82518-0.67588 0.91727-1.1875 0.09209-0.51166-0.07959-1.0637-0.44563-1.4329" stroke="#70d58d" style="paint-order:stroke markers fill"/>
  <path d="m33.746 55.021 3.9796-3.5991 1.6489 5.6206c-0.82359 0.39582-1.7784 0.51239-2.673 0.32636s-1.7238-0.67355-2.3213-1.3649c-0.25583-0.29598-0.46998-0.62793-0.6342-0.98302z" stroke="#b98eeb" style="paint-order:stroke markers fill"/>
  <path d="m59.558 5.9735 7.4835-0.03171" stroke="#7acbd7" style="paint-order:stroke markers fill"/>
  <path d="m20.824 5.8387 1.1416 0.11891" stroke="#70d58d" style="paint-order:stroke markers fill"/>
  <path d="m126.96 7.5669c-0.10896 0.097545-0.17709 0.23934-0.18517 0.38537-8e-3 0.14602 0.044 0.29447 0.14157 0.40343 0.0975 0.10896 0.23934 0.17709 0.38536 0.18517 0.14602 0.00807 0.29447-0.044018 0.40343-0.14156 0.10896-0.097545 0.17709-0.23934 0.18517-0.38537 8e-3 -0.14602-0.044-0.29447-0.14157-0.40343-0.0975-0.10896-0.23934-0.17709-0.38536-0.18517-0.14602-0.00807-0.29447 0.044018-0.40343 0.14156z" stroke="#8caaeb" style="paint-order:stroke markers fill"/>
  <path d="m131.35 11.562c-0.93187 0.10273-1.8261 0.52091-2.5024 1.1702s-1.1305 1.5258-1.2711 2.4527c-0.0423 0.27898-0.0565 0.5676 0.0159 0.84032 0.095 0.35788 0.33594 0.66618 0.63246 0.88794s0.64645 0.3628 1.0034 0.46121c0.71392 0.19681 1.4745 0.23394 2.1535 0.52968 0.41759 0.1819 0.79368 0.46001 1.0852 0.81 0.29151 0.34999 0.49749 0.77163 0.58832 1.218 0.0908 0.44634 0.0657 0.91654-0.0781 1.3487-0.14379 0.43219-0.40653 0.82499-0.75507 1.1182-0.41971 0.35311-0.96233 0.55715-1.5107 0.56808-0.54838 0.01093-1.0987-0.17134-1.5322-0.50744s-0.74699-0.82372-0.87295-1.3575c-0.12596-0.53383-0.0634-1.1102 0.17404-1.6046" stroke="#b98eeb" style="paint-order:stroke markers fill"/>
  <path d="m128.4 27.418c0.51763-0.32275 1.1752-0.41161 1.7599-0.23783 0.44729 0.13293 0.84196 0.40868 1.1733 0.73726 0.64543 0.64012 1.074 1.5085 1.1313 2.4157 0.0573 0.90722-0.27194 1.8435-0.92519 2.4756-0.56783 0.54948-1.334 0.8458-2.1 1.0394s-1.5546 0.29896-2.3077 0.53816c-0.63544 0.20182-1.2458 0.50165-1.7552 0.93182-0.50939 0.43016-0.91441 0.99596-1.0987 1.6367-0.10259 0.35672-0.13606 0.73087-0.12683 1.1019 0.0343 1.3798 0.66069 2.7032 1.5696 3.7418 0.52638 0.60147 1.1486 1.1197 1.8392 1.5221 0.51275 0.2988 1.0627 0.53372 1.6331 0.69763" stroke="#cf886f" style="paint-order:stroke markers fill"/>
  <path d="m77.252 51.311c1.9539 1.6269 3.4516 3.7959 4.2808 6.1994 0.08156 0.23641 0.1583 0.47816 0.29511 0.6875 0.06841 0.10467 0.15178 0.20045 0.25181 0.27547 0.10003 0.07502 0.21722 0.12882 0.34095 0.14688 0.21358 0.03118 0.43043-0.04547 0.61409-0.15886 0.18366-0.11338 0.34205-0.26253 0.51162-0.39607 0.57499-0.45284 1.27-0.7207 1.9502-0.99094 1.6708-0.66382 3.328-1.3843 4.8516-2.3386 0.80092-0.50164 1.5647-1.0677 2.41-1.4904 0.26796-0.134 0.54334-0.25316 0.82446-0.35674" stroke="#dfd686" style="paint-order:stroke markers fill"/>
  <path d="m13.008 52.144c-0.62592 0.468-1.0746 1.1675-1.2389 1.9315-0.16434 0.76406-0.04296 1.5861 0.33518 2.2701 0.2925 0.52906 0.73488 0.97418 1.2621 1.2699 0.52724 0.29576 1.1377 0.44123 1.7417 0.41504 0.60396-0.02619 1.1995-0.22396 1.6992-0.56424 0.49966-0.34028 0.90186-0.82202 1.1475-1.3744" stroke="#e96969" style="paint-order:stroke markers fill"/>
  <path d="m130.24 49.639 4.2016 7.2537" stroke="#b98eeb" style="paint-order:stroke markers fill"/>
  <path d="m127.89 56.068 7.8006-5.6841" stroke="#b98eeb" style="paint-order:stroke markers fill"/>
 </g>
</svg>
