<svg width="100mm" height="100mm" version="1.1" viewBox="0 0 100 100" xmlns="http://www.w3.org/2000/svg">
 <path d="m10.803 11.688s12.282 0.56524 18.734 0.43154c6.4515-0.1337 12.947-0.93906 19.937-1.2872s15.946-0.93868 21.999-0.77158c6.0538 0.1671 14.265 1.2909 14.265 1.2909s-0.57623 11.775-0.41662 18.189c0.15961 6.4147 0.97472 12.135 0.95838 19.393-0.01635 7.2581-1.319 17.432-1.276 24.033 0.04301 6.6013 1.474 16.299 1.474 16.299s-12.243-1.0778-18.347-0.9266c-6.1042 0.1512-11.938 1.4943-18.175 1.8234-6.2368 0.32911-13.058 0.30875-19.206 0.10466-6.1486-0.20409-17.659-1.2703-17.659-1.2703s-0.5542-16.576-0.57168-24.781c-0.01748-7.1735-2.7634-19.237 0.45957-24.437 7.6917-0.55881 12.29 1.2133 18.582 1.2265s12.946-1.2321 19.098-1.1797c6.1519 0.05244 11.954 1.1672 17.723 1.3984s12.88-2.0439 17.036-1.3516c0.7178 3.4424 0.67302 10.673 0.67628 14.898 0.0033 4.2245-0.61692 8.0292-0.87059 11.804-5.5818 0.68084-11.311 0.83722-17.34 0.55387s-12.695-2.2961-18.715-2.368c-6.0199-0.071868-13.612 1.8079-17.168 1.757-3.5564-0.050918-15.882-1.114-18.887-1.1649-0.42646-0.91029-1.442-8.7648-1.7805-13.244-0.33845-4.4795-0.38618-9.0815-0.23362-13.588 0.15256-4.5065 1.1904-8.9235 1.1414-13.416-0.049-4.4926-1.4367-13.416-1.4367-13.416z" fill="none" stroke="#454545" stroke-width="2"/>
</svg>
