<svg width="105.5mm" height="20.961mm" version="1.1" viewBox="0 0 105.5 20.961" xmlns="http://www.w3.org/2000/svg">
 <g transform="translate(-8.45 -6.0803)" stroke-linecap="round" stroke-linejoin="round">
  <path d="m18.934 7.6765-8.846-0.42596c0.41391 1.7824 0.50281 3.6397 0.26103 5.4535-0.19184 1.4391-0.58812 2.8418-0.8979 4.2602-0.30978 1.4184-0.53416 2.8766-0.375 4.3197 0.17879 1.621 0.85211 3.1842 1.9072 4.4278 2.8819 0.51238 5.8098 0.76571 8.7369 0.75592 5.0017-0.01672 9.9792-0.79912 14.981-0.77937 4.0276 0.0159 8.0379 0.5519 12.065 0.61536 5.3582 0.08444 10.694-0.66777 16.05-0.83608 6.7148-0.21099 13.422 0.49619 20.138 0.66412 4.4791 0.112 8.9643-0.01613 13.43-0.38366 1.9046-1.5057 3.89-2.9092 5.9448-4.2026 1.6888-1.063 3.4244-2.0517 5.1999-2.9625 1.905-0.9772 3.8559-1.8648 5.8441-2.6589-2.0577-0.63318-4.0745-1.3994-6.0335-2.2923-1.9005-0.86624-3.7462-1.8514-5.5337-2.9317-1.9327-1.168-3.7979-2.4476-5.5834-3.8302-3.1912-0.16011-6.3882-0.20433-9.5827-0.13255-5.4815 0.12317-10.949 0.58753-16.426 0.85376-5.3486 0.26002-10.709 0.33096-16.059 0.097659-5.6474-0.24629-11.278-0.83125-16.928-0.99035-6.1108-0.17205-12.236 0.15546-18.293 0.97819z" fill="none" stroke="#454545" stroke-width="1.1471"/>
  <path d="m96.073 6.8612-2.5541 7.0706 0.17052 5.6827 2.7049 6.1521" fill="none" stroke="#454545" stroke-width="1.1471"/>
  <g>
   <path d="m107.95 16.896c0.0274-0.26754 0.0842-0.87838 0.0424-1.2523-0.0603-0.53989-0.30242-1.7534-0.29623-1.7631 6e-3 -0.0097 0.75418 0.5664 1.2499 0.77191 0.4957 0.20551 1.3004 0.68359 1.7687 0.85444s1.4365 0.49726 1.4056 0.5174c-0.031 0.02013-0.89744 0.39008-1.2973 0.56792-0.39982 0.17784-1.3205 0.61639-1.8143 0.92718l-1.1998 0.75507z" fill="#454545" stroke="#454545" stroke-width=".18629"/>
   <path d="m95.495 22.327c-1.4914-3.3658-1.3615-2.8526-1.4366-5.6749l-0.06522-2.451 1.1117-3.0832c0.61145-1.6957 1.1354-3.1108 1.1644-3.1446 0.02897-0.03382 0.58309 0.32675 1.2314 0.80127 2.5163 1.8418 5.4091 3.5861 8.4224 5.0785 0.94208 0.46658 1.7581 0.9361 1.8134 1.0434 0.10258 0.19905 0.14027 2.3527 0.0444 2.5383-0.029 0.05623-0.92592 0.57907-1.9931 1.1619-2.4412 1.3332-4.7546 2.7983-7.219 4.572-1.0582 0.76156-1.9607 1.3847-2.0057 1.3847-0.04495 0-0.52563-1.0018-1.0682-2.2261z" fill="#fff" stroke="#fff" stroke-width=".47685"/>
   <path d="m22.736 25.744c0.36764-0.02238 2.1451-0.15442 3.9499-0.29343 5.216-0.40175 9.3273-0.43032 13.976-0.09711 4.6723 0.33488 9.2023 0.35786 13.126 0.0666 7.8505-0.58279 8.0006-0.58871 13.308-0.52501 3.0373 0.03646 7.0177 0.17084 9.662 0.3262 5.2302 0.30728 12.345 0.36477 16.163 0.13058 1.3366-0.08198 2.4446-0.16345 2.4622-0.18106 0.01761-0.0176-0.49483-1.2301-1.1387-2.6945l-1.1707-2.6625-0.10187-2.9894-0.10187-2.9894 2.2754-6.2962-0.565-0.080503c-0.90123-0.12841-8.3445-0.11319-11.138 0.022771-1.4037 0.068309-4.8492 0.25865-7.6566 0.42298-12.935 0.75714-17.365 0.74714-29.457-0.066487-11.335-0.7627-17.644-0.70201-25.476 0.24506-1.8416 0.22269-2.1214 0.22598-5.2867 0.062234-1.8382-0.095092-3.6156-0.17466-3.9499-0.17682l-0.60767-0.00393v2.5219c0 2.3272-0.02649 2.6391-0.3431 4.041-0.83864 3.7134-0.94339 4.3241-0.95881 5.5906-0.017674 1.4521 0.1895 2.4354 0.75977 3.6057 0.65435 1.3429 0.7874 1.4278 2.6082 1.6652 3.0159 0.39315 6.7731 0.53142 9.662 0.35557z" fill="#82b3d3" stroke="#82b3d3" stroke-width=".45934"/>
   <text transform="matrix(.26458 0 0 .26458 -6.4504 5.351)" fill="#454545" font-size="32px" stroke="#82b3d3" stroke-width=".75591" style="shape-inside:url(#rect27365);white-space:pre" xml:space="preserve"/>
  </g>
 </g>
</svg>
