<svg width="105.5mm" height="20.961mm" version="1.1" viewBox="0 0 105.5 20.961" xmlns="http://www.w3.org/2000/svg">
 <g transform="translate(-8.45 -6.0803)" stroke-linecap="round" stroke-linejoin="round">
  <path d="m111.84 7.4224c0.51498 1.7588 0.81757 3.5797 0.89913 5.4105 0.12943 2.9056-0.29538 5.8042-0.44585 8.7088-0.073 1.4089-0.0814 2.8211-0.0252 4.2308-3.1814 0.06608-6.363 0.12593-9.5447 0.17953-4.9936 0.08413-9.9876 0.15289-14.981 0.25188-4.0356 0.08-8.0724 0.17976-12.108 0.09974-5.3567-0.10621-10.701-0.52893-16.05-0.83608-7.0489-0.40475-14.113-0.60892-21.171-0.42968-4.1384 0.10509-8.2734 0.34196-12.397 0.71015-1.9046-1.5057-3.89-2.9092-5.9448-4.2026-1.6888-1.063-3.4244-2.0517-5.1999-2.9625-1.905-0.9772-3.8559-1.8648-5.8441-2.6589 2.0615-0.62181 4.0792-1.3884 6.0335-2.2923 1.8953-0.87663 3.729-1.8812 5.5337-2.9317 1.9129-1.1134 3.7952-2.2793 5.6442-3.496 3.194-0.061057 6.3882-0.10524 9.5827-0.13255 5.7412-0.049085 11.483-0.043664 17.224-0.039049 5.0954 0.0041 10.191 0.00756 15.285 0.14063 6.0152 0.15714 12.029 0.495 18.046 0.38465 5.8715-0.10769 11.734-0.64219 17.606-0.57858 2.6241 0.028426 5.2469 0.1764 7.8576 0.44331z" fill="none" stroke="#454545" stroke-width="1.1471"/>
  <path d="m26.536 7.2562 2.3415 6.6756-0.17052 5.6827-2.7049 6.1521" fill="none" stroke="#454545" stroke-width="1.1471"/>
  <g>
   <path d="m14.442 16.896c-0.02738-0.26754-0.08421-0.87838-0.04241-1.2523 0.06032-0.53989 0.30242-1.7534 0.29623-1.7631-0.0062-0.0097-0.75417 0.5664-1.2499 0.77191-0.4957 0.20551-1.3005 0.68359-1.7687 0.85444s-1.4365 0.49726-1.4055 0.5174c0.03097 0.02013 0.89744 0.39008 1.2973 0.56792 0.39983 0.17784 1.3205 0.61639 1.8143 0.92718l1.1998 0.75507z" fill="#454545" stroke="#454545" stroke-width=".18629"/>
   <path d="m26.902 22.327c1.4914-3.3658 1.3615-2.8526 1.4366-5.6749l0.06522-2.451-1.1117-3.0832c-0.61145-1.6957-1.1354-3.1108-1.1644-3.1446-0.02897-0.03382-0.58309 0.32675-1.2314 0.80127-2.5163 1.8418-5.4091 3.5861-8.4224 5.0785-0.94208 0.46658-1.7581 0.9361-1.8134 1.0434-0.10258 0.19905-0.14026 2.3527-0.04442 2.5383 0.02904 0.05623 0.92593 0.57907 1.9931 1.1619 2.4412 1.3332 4.7546 2.7983 7.219 4.572 1.0582 0.76156 1.9607 1.3847 2.0057 1.3847 0.04495 0 0.52563-1.0018 1.0682-2.2261z" fill="#fff" stroke="#fff" stroke-width=".47685"/>
   <path transform="matrix(.26458 0 0 .26458 8.45 6.0803)" d="m345.55 73.507c-1.3895-0.08458-8.9033 0.50762-15.741 0.27137-20.445-0.70642-34.603-0.48958-52.499-0.20462-17.702 0.28188-35.349 1.1901-50.177 0.08932-29.671-2.2027-29.589-1.6567-50.054-2.5527-11.469-0.50217-37.777-2.34-47.771-1.7529-19.768 1.1614-27.826 0.68964-42.717 1.6419-5.0508 0.323-16.359 1.2196-16.426 1.1531-0.06654-0.06654 1.8702-4.6494 4.3039-10.184l4.4249-10.063 0.77002-22.597-8.5999-23.797 2.1354-0.30426c3.4062-0.48533 31.538-0.42783 42.098 0.086051 5.3054 0.25818 21.773 0.26148 32.402 0.24852 50.512-0.061611 92.514 1.9907 138.38 1.6764 42.936-0.29423 35.112-1.2056 66.782-2.6789 7.0037-0.32581 7.5443 0.48817 19.522 0.69455 7.1082 0.12248 13.164 1.9078 14.388 1.8999l2.2967-0.014835 1.5428 9.5314c1.3924 8.6024 1.368 9.8434 1.2156 15.273-0.40315 14.36-0.25087 17.886-0.19258 22.673 0.0668 5.4884-0.45869 9.8542-0.67915 13.79-0.31574 5.6371-2.7574 4.4217-9.6954 4.5884-11.155 0.26792-24.787 1.1965-35.706 0.53186z" fill="#82b3d3" stroke="#82b3d3" stroke-width="1.7361"/>
   <text transform="matrix(.26458 0 0 .26458 9.7869 5.4726)" fill="#454545" font-size="32px" stroke="#82b3d3" stroke-width=".75591" style="shape-inside:url(#rect27365);white-space:pre" xml:space="preserve"/>
  </g>
 </g>
</svg>
