<svg width="199.31mm" height="20.961mm" version="1.1" viewBox="0 0 199.31 20.961" xmlns="http://www.w3.org/2000/svg">
 <g transform="translate(-8.45 -6.0803)" stroke-linecap="round" stroke-linejoin="round">
  <g fill="none" stroke="#454545" stroke-width="1.5627">
   <path d="m27.957 7.8628-16.769-0.41702c0.72058 1.6683 0.89652 3.5668 0.49481 5.3391-0.32522 1.4349-1.0085 2.7581-1.5716 4.1173-0.56308 1.3593-1.0158 2.8217-0.84138 4.2826 0.11793 0.98794 0.52796 1.9392 1.1652 2.7033 0.63726 0.76409 1.4994 1.3382 2.4501 1.6316 5.5052 0.50211 11.034 0.74915 16.562 0.74006 9.4701-0.01557 18.928-0.78212 28.398-0.76302 7.6265 0.01538 15.244 0.5403 22.871 0.60246 10.146 0.0827 20.28-0.65366 30.425-0.81854 12.726-0.20682 25.448 0.48573 38.174 0.65019 8.4872 0.10968 16.977-0.01559 25.458-0.37561 3.7064-1.5034 7.4658-2.876 11.269-4.1144 3.2571-1.0606 6.546-2.0228 9.8571-2.9003 3.6672-0.97191 7.3619-1.8401 11.078-2.6031-3.8388-0.60383-7.6548-1.3526-11.437-2.2442-3.5292-0.83194-7.0291-1.7882-10.49-2.8702-3.5732-1.1171-7.1045-2.3683-10.584-3.7498-6.0535-0.15686-12.11-0.20012-18.165-0.12977-10.382 0.12063-20.757 0.57518-31.137 0.83585-10.145 0.25478-20.296 0.32433-30.441 0.095614-10.699-0.24119-21.389-0.81398-32.09-0.96958-11.566-0.16817-23.138 0.15143-34.677 0.95767z"/>
   <path d="m12.367 13.284c13.568-0.69509 27.161-0.89269 40.743-0.59228 12.427 0.27485 24.843 0.96636 37.272 1.1105 14.617 0.16954 29.232-0.41812 43.849-0.51825 11.73-0.08034 23.462 0.15334 35.179 0.7007"/>
   <path d="m9.5048 19.873c13.513 0.50109 27.04 0.63689 40.56 0.40719 13.927-0.2366 27.85-0.86093 41.779-0.77737 13.362 0.08015 26.712 0.81168 40.073 0.99948 12.633 0.17756 25.272-0.13122 37.881-0.92544"/>
   <path d="m174.18 7.0647-4.8417 6.9223 0.32324 5.5635 5.1275 6.023"/>
  </g>
  <g>
   <path d="m111.04 19.291c-15.368-0.42842-19.377-0.4766-25.322-0.30433-15.68 0.45444-36.563 0.67546-51.505 0.54515-19.644-0.17133-23.857-0.21496-23.857-0.63771 0-0.17269 0.67947-1.4121 1.1943-2.6613l0.89843-2.3573 2.8051 0.07379c1.5221-0.0067 10.596-0.13352 20.165-0.28185 17.141-0.26572 17.68-0.26149 36.518 0.28658 15.653 0.4554 20.183 0.52139 24.977 0.36387 16.764-0.55076 70.713-0.16265 71.435 0.5243 0.13921 0.13233 0.25548 1.1245 0.25838 2.1676l5e-3 1.8967-15.457 0.36352c-8.3846 0.19719-17.183 0.40098-19.551 0.44677-2.3685 0.04579-12.523-0.1458-22.566-0.42576z" fill="#45d7ef" stroke="#45d7ef" stroke-width=".78136"/>
   <path d="m162.03 13.12c-9.9437-0.31088-15.103-0.38611-30.059-0.43826-15.622-0.05448-25.237 0.03177-36.604 0.32833-4.0511 0.10568-5.8584 0.10444-9.5602-0.0066-2.5106-0.07532-10.883-0.32552-18.606-0.556l-14.041-0.41906-17.654 0.25379c-9.7096 0.13958-18.778 0.27776-20.151 0.30706l-2.9059-0.07564 0.18475-1.4299c0.03072-0.83368-0.04619-1.7873-0.14466-2.1718-0.09847-0.38443-0.17506-0.80037-0.14396-0.81928 0.03111-0.018907 3.8178 0.13613 8.0211 0.2395l7.6423 0.18794 3.7071-0.22752c9.4904-0.58245 18.636-0.82085 28.167-0.73423 6.6649 0.060567 10.236 0.15424 22.479 0.5896 3.1738 0.11286 7.6309 0.26434 9.9047 0.33662 5.3463 0.16995 25.556 0.16921 31.523-0.00116 2.4633-0.070327 8.2769-0.24363 12.919-0.38513 4.6423-0.14149 10.34-0.30875 12.661-0.37167 4.5594-0.12361 21.888-0.15445 22.636-0.040292 0.32149 0.049044 0.58157 0.12029 0.51739 0.24074-0.0501 0.094091-1.0529 1.3254-2.0426 2.7363l-1.7996 2.5652-1.1721 0.01304c-0.64465 0.0072-3.11-0.04754-5.4785-0.12159z" fill="#8ee8f5" stroke="#8ee8f5" stroke-width=".50758"/>
   <path d="m24.135 25.53c-2.945-0.09107-7.4178-0.34234-9.5912-0.53882-1.2278-0.111-1.5507-0.06181-2.2142-0.58969-1.2621-1.0042-2.6587-2.7143-2.1879-3.4926l0.21254-0.35134 3.4022 0.07059c23.656 0.49084 47.054 0.39666 72.391-0.29136l6.2873-0.17074 19.379 0.49427c15.114 0.3855 20.118 0.47954 22.738 0.42736 1.8474-0.0368 9.909-0.22966 17.915-0.42859 8.0056-0.19893 15.021-0.36104 15.589-0.36024l1.1855 0.0015 2.0132 2.2186c1.1178 1.2319 1.8961 2.4764 1.8644 2.4944-0.0317 0.01796-2.1778 0.03443-4.5463 0.1109-5.4548 0.17608-20.904 0.17978-26.872 0.0064-23.934-0.69523-27.951-0.70081-44.27-0.06157-3.6949 0.14474-9.3147 0.29034-12.489 0.32356-5.6745 0.05939-7.3272 0.02676-17.484-0.34516-5.8491-0.21418-14.337-0.21402-19.809 3.22e-4 -13.533 0.5302-18.6 0.63412-23.513 0.48222z" fill="#3bacbe" stroke="#3bacbe" stroke-width=".50758"/>
   <path d="m196.71 16.888c0.0519-0.26193 0.15962-0.85995 0.0804-1.226-0.11435-0.52856-0.57328-1.7166-0.56154-1.7261 0.0118-0.0095 1.4296 0.55452 2.3693 0.75572 0.93966 0.2012 2.4652 0.66925 3.3528 0.83652s2.723 0.48683 2.6644 0.50655c-0.0587 0.01971-1.7012 0.3819-2.4591 0.55601-0.75792 0.17411-2.5031 0.60346-3.4393 0.90773l-2.2744 0.73923z" fill="#454545" stroke="#454545" stroke-width=".25379"/>
   <path transform="matrix(.26458 0 0 .26458 8.45 6.0803)" d="m622.24 60.946c-10.685-12.454-9.7547-10.555-10.293-20.999l-0.46728-9.0694 7.965-11.408c4.3808-6.2746 8.1349-11.511 8.3424-11.636 0.20755-0.12515 4.1776 1.2091 8.8222 2.9649 18.028 6.8152 38.753 13.269 60.343 18.792 6.7496 1.7265 12.596 3.4638 12.992 3.8608 0.73491 0.73654 1.0049 8.7055 0.31823 9.3921-0.20805 0.20805-6.6338 2.1427-14.28 4.2992-17.49 4.9333-34.064 10.354-51.721 16.917-7.5813 2.818-14.048 5.1235-14.37 5.1235-0.32207 0-3.7659-3.7067-7.6529-8.2372z" fill="#fff" stroke="#fff" stroke-width="2.4552"/>
  </g>
 </g>
</svg>
