<svg width="105.5mm" height="20.961mm" version="1.1" viewBox="0 0 105.5 20.961" xmlns="http://www.w3.org/2000/svg">
 <g transform="translate(-8.45 -6.0803)" stroke-linecap="round" stroke-linejoin="round">
  <path d="m9.9472 7.4224c-0.51498 1.7588-0.81757 3.5797-0.89913 5.4105-0.12943 2.9056 0.29538 5.8042 0.44585 8.7088 0.072986 1.4089 0.081398 2.8211 0.0252 4.2308 3.1814 0.06608 6.363 0.12593 9.5447 0.17953 4.9936 0.08413 9.9876 0.15289 14.981 0.25188 4.0356 0.08 8.0724 0.17976 12.108 0.09974 5.3567-0.10621 10.701-0.52893 16.05-0.83608 7.0489-0.40475 14.113-0.60892 21.171-0.42968 4.1384 0.10509 8.2734 0.34196 12.397 0.71015 1.9046-1.5057 3.89-2.9092 5.9448-4.2026 1.6888-1.063 3.4244-2.0517 5.1999-2.9625 1.905-0.9772 3.8559-1.8648 5.8441-2.6589-2.0614-0.62181-4.0792-1.3884-6.0335-2.2923-1.8953-0.87663-3.729-1.8812-5.5337-2.9317-1.9129-1.1134-3.7952-2.2793-5.6442-3.496-3.194-0.061057-6.3882-0.10524-9.5827-0.13255-5.7412-0.049085-11.483-0.043664-17.224-0.039049-5.0954 0.0040958-10.191 0.007565-15.285 0.14063-6.0152 0.15714-12.029 0.495-18.046 0.38465-5.8715-0.10769-11.734-0.64219-17.606-0.57858-2.6241 0.028426-5.2469 0.1764-7.8576 0.44331z" fill="none" stroke="#454545" stroke-width="1.1471"/>
  <path d="m95.247 7.2562-2.3415 6.6756 0.17052 5.6827 2.7049 6.1521" fill="none" stroke="#454545" stroke-width="1.1471"/>
  <g>
   <path d="m107.34 16.896c0.0274-0.26754 0.0842-0.87838 0.0424-1.2523-0.0603-0.53989-0.30243-1.7534-0.29623-1.7631 6e-3 -0.0097 0.75417 0.5664 1.2499 0.77191 0.4957 0.20551 1.3005 0.68359 1.7687 0.85444s1.4365 0.49726 1.4055 0.5174c-0.031 0.02013-0.89744 0.39008-1.2973 0.56792-0.39983 0.17784-1.3205 0.61639-1.8143 0.92718l-1.1998 0.75507z" fill="#454545" stroke="#454545" stroke-width=".18629"/>
   <path d="m94.881 22.327c-1.4914-3.3658-1.3615-2.8526-1.4366-5.6749l-0.06522-2.451 1.1117-3.0832c0.61145-1.6957 1.1354-3.1108 1.1644-3.1446 0.02897-0.03382 0.58309 0.32675 1.2314 0.80127 2.5163 1.8418 5.4091 3.5861 8.4224 5.0785 0.94208 0.46658 1.7581 0.9361 1.8134 1.0434 0.10257 0.19905 0.14026 2.3527 0.0444 2.5383-0.029 0.05623-0.92593 0.57907-1.9931 1.1619-2.4412 1.3332-4.7546 2.7983-7.219 4.572-1.0582 0.76156-1.9607 1.3847-2.0057 1.3847-0.04495 0-0.52563-1.0018-1.0682-2.2261z" fill="#fff" stroke="#fff" stroke-width=".47685"/>
   <path d="m21.907 25.529c0.36764-0.02238 2.3557 0.13431 4.1647 0.0718 5.4094-0.18691 9.1555-0.12954 13.89-0.05414 4.6837 0.07458 9.3526 0.31489 13.276 0.02363 7.8505-0.58279 7.8287-0.43832 13.244-0.6754 3.0346-0.13286 9.9953-0.61913 12.64-0.46378 5.2302 0.30728 7.3624 0.18247 11.302 0.43442 1.3364 0.08546 4.3283 0.32268 4.3459 0.30508 0.01761-0.01761-0.49483-1.2301-1.1387-2.6945l-1.1707-2.6625-0.10187-2.9893-0.10187-2.9894 2.2754-6.2962-0.565-0.080503c-0.90123-0.12841-8.3445-0.1132-11.138 0.022768-1.4037 0.068309-5.7609 0.069184-8.5731 0.065754-13.365-0.016301-24.478 0.52671-36.612 0.44355-11.36-0.077847-9.2901-0.31897-17.669-0.70878-1.8531-0.086205-1.9961 0.12916-5.1652 0.18377-1.8807 0.032406-3.4831 0.50477-3.8068 0.50268l-0.60767-0.0039251-0.4082 2.5219c-0.36842 2.2761-0.36195 2.6044-0.32162 4.041 0.10667 3.7993 0.066376 4.7323 0.050954 5.9988-0.017674 1.4521 0.12136 2.6072 0.17969 3.6487 0.08354 1.4915 0.72955 1.1699 2.5652 1.214 2.9515 0.07089 6.5583 0.31658 9.4471 0.14072z" fill="#82b3d3" stroke="#82b3d3" stroke-width=".45934"/>
   <text transform="matrix(.26458 0 0 .26458 -6.1341 5.5941)" fill="#454545" font-size="32px" stroke="#82b3d3" stroke-width=".75591" style="shape-inside:url(#rect27365);white-space:pre" xml:space="preserve"/>
  </g>
 </g>
</svg>
