<svg width="105.5mm" height="20.961mm" version="1.1" viewBox="0 0 105.5 20.961" xmlns="http://www.w3.org/2000/svg">
 <g transform="translate(-8.45 -6.0803)" stroke-linecap="round" stroke-linejoin="round">
  <path d="m103.46 7.6765 8.846-0.42596c-0.41391 1.7824-0.50281 3.6397-0.26103 5.4535 0.19184 1.4391 0.58812 2.8418 0.8979 4.2602 0.30978 1.4184 0.53417 2.8766 0.375 4.3197-0.17879 1.621-0.85211 3.1842-1.9072 4.4278-2.8819 0.51238-5.8098 0.76571-8.7369 0.75592-5.0017-0.01672-9.9792-0.79912-14.981-0.77937-4.0276 0.0159-8.0379 0.5519-12.065 0.61536-5.3582 0.08444-10.694-0.66777-16.05-0.83608-6.7148-0.21099-13.422 0.49619-20.138 0.66412-4.4791 0.112-8.9643-0.01613-13.43-0.38366-1.9046-1.5057-3.89-2.9092-5.9448-4.2026-1.6888-1.063-3.4244-2.0517-5.1999-2.9625-1.905-0.9772-3.8559-1.8648-5.8441-2.6589 2.0577-0.63319 4.0745-1.3994 6.0335-2.2923 1.9005-0.86624 3.7462-1.8514 5.5337-2.9317 1.9327-1.168 3.7979-2.4476 5.5834-3.8302 3.1912-0.16011 6.3882-0.20433 9.5827-0.13255 5.4815 0.12317 10.949 0.58753 16.426 0.85376 5.3486 0.26002 10.709 0.33096 16.059 0.097659 5.6474-0.24629 11.278-0.83125 16.928-0.99035 6.1108-0.17205 12.236 0.15546 18.293 0.97819z" fill="none" stroke="#454545" stroke-width="1.1471"/>
  <path d="m26.323 6.8612 2.5541 7.0706-0.17052 5.6827-2.7049 6.1521" fill="none" stroke="#454545" stroke-width="1.1471"/>
  <g>
   <path d="m14.442 16.896c-0.02738-0.26754-0.08421-0.87838-0.04241-1.2523 0.06032-0.53989 0.30242-1.7534 0.29623-1.7631-0.0062-0.0097-0.75417 0.5664-1.2499 0.77191-0.4957 0.20551-1.3005 0.68359-1.7687 0.85444s-1.4365 0.49726-1.4055 0.5174c0.03097 0.02013 0.89744 0.39008 1.2973 0.56792 0.39983 0.17784 1.3205 0.61639 1.8143 0.92718l1.1998 0.75507z" fill="#454545" stroke="#454545" stroke-width=".18629"/>
   <path d="m26.902 22.327c1.4914-3.3658 1.3615-2.8526 1.4366-5.6749l0.06522-2.451-1.1117-3.0832c-0.61145-1.6957-1.1354-3.1108-1.1644-3.1446-0.02897-0.03382-0.58309 0.32675-1.2314 0.80127-2.5163 1.8418-5.4091 3.5861-8.4224 5.0785-0.94208 0.46658-1.7581 0.9361-1.8134 1.0434-0.10258 0.19905-0.14026 2.3527-0.04442 2.5383 0.02904 0.05623 0.92593 0.57907 1.9931 1.1619 2.4412 1.3332 4.7546 2.7983 7.219 4.572 1.0582 0.76156 1.9607 1.3847 2.0057 1.3847 0.04495 0 0.52563-1.0018 1.0682-2.2261z" fill="#fff" stroke="#fff" stroke-width=".47685"/>
   <path transform="matrix(.26458 0 0 .26458 8.45 6.0803)" d="m344.74 74.319c-1.3895-0.08458-8.1074-0.58365-14.929-1.109-19.714-1.5184-35.253-1.6264-52.824-0.36702-17.659 1.2657-34.78 1.3525-49.609 0.25172-29.671-2.2027-30.238-2.2251-50.298-1.9843-11.48 0.13779-26.524 0.64569-36.518 1.2329-19.768 1.1614-46.659 1.3786-61.09 0.49354-5.0517-0.30984-9.2393-0.61778-9.3058-0.68431-0.06654-0.06654 1.8702-4.6494 4.3039-10.184l4.4249-10.063 0.77002-22.597-8.5999-23.797 2.1354-0.30426c3.4062-0.48533 31.538-0.42783 42.098 0.086051 5.3054 0.25818 18.328 0.97758 28.938 1.5987 48.888 2.8616 65.633 2.8238 111.33-0.25129 42.84-2.8826 66.686-2.6533 96.289 0.92621 6.9606 0.84165 8.0179 0.8541 19.981 0.23521 6.9475-0.3594 13.665-0.66014 14.929-0.6683l2.2967-0.014835v9.5314c0 8.7956 0.10012 9.9747 1.2968 15.273 3.1697 14.035 3.5656 16.343 3.6238 21.13 0.0668 5.4884-0.71622 9.2046-2.8716 13.628-2.4731 5.0754-2.976 5.3965-9.8578 6.2936-11.399 1.4859-25.599 2.0085-36.518 1.3439z" fill="#82b3d3" stroke="#82b3d3" stroke-width="1.7361"/>
   <text transform="matrix(.26458 0 0 .26458 9.7869 5.4726)" fill="#454545" font-size="32px" stroke="#82b3d3" stroke-width=".75591" style="shape-inside:url(#rect27365);white-space:pre" xml:space="preserve"/>
  </g>
 </g>
</svg>
