<svg width="112.06mm" height="84.542mm" version="1.1" viewBox="0 0 112.06 84.542" xmlns="http://www.w3.org/2000/svg">
 <g transform="translate(-14.158 -10.699)" stroke="#000" stroke-linecap="round" stroke-linejoin="round">
  <path d="m52.612 34.937c0.29063 0.4938 0.53514 1.0147 0.72933 1.5538 0.57928 1.6081 0.70045 3.3377 0.96715 5.0261 0.17097 1.0823 0.40347 2.1551 0.53907 3.2424 0.19231 1.5421 0.18826 3.1008 0.25368 4.6535 0.06049 1.4358 0.1802 2.881-0.01585 4.3047-0.09422 0.6842-0.26062 1.3563-0.37608 2.0373s-0.17962 1.3797-0.06786 2.0613c0.01948 0.11878 0.04434 0.23779 0.04133 0.35812-0.0015 0.06017-0.01009 0.12044-0.02938 0.17745s-0.04951 0.11074-0.09123 0.15412c-0.0531 0.05522-0.12227 0.09162-0.18416 0.13675-0.03095 0.02257-0.06041 0.04764-0.08431 0.07757s-0.04213 0.06503-0.04863 0.10277c-0.01034 0.06006 0.0093 0.12211 0 0.18234-0.0083 0.05346-0.03901 0.10137-0.07723 0.13967-0.03821 0.03829-0.08385 0.06818-0.12888 0.09816-0.43696 0.29096-0.8559 0.62463-1.1574 1.0544-0.48468 0.69079-0.62398 1.5769-0.55492 2.4179 0.01958 0.2385 0.05468 0.47544 0.07927 0.71348 0.10328 0.99981 0.0205 2.008-0.01585 3.0125-0.08604 2.3774 0.08792 4.7725-0.25368 7.1269-0.08696 0.59934-0.20704 1.1934-0.30124 1.7916-0.12774 0.81125-0.20777 1.6296-0.25368 2.4496-0.0634 1.1322-0.06182 2.2673-0.03171 3.4009 0.02478 0.93292 0.06882 1.8677 0 2.7984-0.12647 1.7103-0.63231 3.3828-0.66591 5.0974-0.01291 0.65865 0.04398 1.3216-0.04756 1.974-0.07227 0.51509-0.23653 1.0186-0.24913 1.5385-0.0063 0.25999 0.0266 0.52376 0.12488 0.76455 0.09827 0.24079 0.26525 0.45776 0.48891 0.59046 0.22701 0.13469 0.49554 0.17588 0.74518 0.26161 0.19499 0.06696 0.37925 0.16152 0.57078 0.23783 0.91358 0.36398 1.9392 0.2952 2.9104 0.14087 0.97123-0.15433 1.942-0.38922 2.9242-0.33906 0.38502 0.01967 0.76644 0.0831 1.1506 0.11586 0.38413 0.03275 0.7767 0.03402 1.1484-0.0683 0.24825-0.06834 0.48217-0.1815 0.72933-0.25368 0.34004-0.09931 0.7024-0.1203 1.0306-0.25368 0.40267-0.16366 0.72725-0.49086 0.9321-0.87422s0.29611-0.82008 0.31287-1.2544c0.03352-0.86867-0.21975-1.7195-0.34124-2.5803-0.15976-1.132-0.09121-2.2818-0.06342-3.4247 0.04658-1.9159-0.02243-3.8324-0.09513-5.7475-0.12907-3.3998-0.26982-6.8043-0.11098-10.203 0.02508-0.5365 0.05761-1.0726 0.07927-1.6093 0.06688-1.657 0.02993-3.3182-0.11098-4.9706-0.05066-0.59404-0.11478-1.1876-0.12684-1.7837-0.0035-0.17483-0.0027-0.35102-0.03646-0.5226-0.03374-0.17158-0.10539-0.34094-0.23308-0.46042-0.14414-0.13486-0.34163-0.19214-0.52321-0.26954-0.37496-0.15984-0.70378-0.42101-0.95867-0.7391-0.25489-0.31808-0.43683-0.69196-0.54755-1.0842-0.17617-0.62421-0.17293-1.2829-0.25368-1.9264-0.0619-0.49327-0.17356-0.97975-0.22197-1.4745-0.08265-0.84482 0.02052-1.6959 0.01585-2.5447-0.0076-1.3806-0.30012-2.7441-0.38052-4.1223-0.04009-0.68725-0.02718-1.3787 0.06342-2.0612 0.04723-0.35574 0.11544-0.70831 0.1744-1.0623 0.24358-1.4623 0.32897-2.9456 0.44394-4.4236 0.05176-0.66548 0.11011-1.3337 0.26953-1.9819 0.08636-0.35112 0.20199-0.6946 0.28539-1.0464 0.13752-0.58016 0.18632-1.1782 0.3171-1.7599 0.12397-0.55143 0.32168-1.0863 0.58663-1.5855 0.16513-0.31115 0.35627-0.60848 0.57078-0.88789" fill="#4acf93" style="paint-order:stroke markers fill"/>
  <path d="m90.397 56.753c-1.0609 0.34998-2.0307 0.97261-2.7905 1.7916-1.4419 1.5543-2.0588 3.7063-2.3148 5.8109-0.06719 0.55231-0.11288 1.1106-0.0634 1.6648 0.09905 1.1095 0.57188 2.1459 0.87202 3.2186 0.21467 0.76721 0.34175 1.5588 0.38052 2.3545 0.02166 0.44454 0.01686 0.89699 0.14269 1.3239 0.05815 0.19728 0.14355 0.38635 0.19026 0.58664 0.08731 0.37437 0.03511 0.76528 0.0476 1.1495 0.01653 0.5087 0.14691 1.007 0.19026 1.5142 0.03739 0.43732 0.0098 0.87717 0 1.316-0.02551 1.1444 0.07036 2.2925-0.0317 3.4326-0.08444 0.94332-0.30348 1.8695-0.55492 2.7826-0.2442 0.88682-0.52041 1.7688-0.65187 2.6792-0.13146 0.91039-0.11151 1.8629 0.22378 2.7194 0.25344 0.64746 0.67492 1.213 1.094 1.7678 0.17196 0.22765 0.34553 0.45629 0.55493 0.65006 0.56427 0.52217 1.3434 0.74928 2.1069 0.83937 0.76351 0.09009 1.5374 0.06008 2.3008 0.15158 0.66796 0.08007 1.3254 0.25288 1.9977 0.27746 1.0276 0.03757 2.0313-0.27147 3.0283-0.52322 0.56883-0.14364 1.1431-0.26976 1.699-0.45735s1.0969-0.43986 1.5512-0.81106c0.85799-0.701 1.3427-1.7825 1.5063-2.8783s0.0342-2.2142-0.1586-3.3052c-0.0555-0.31403-0.11625-0.6273-0.15855-0.94338-0.0681-0.50887-0.0882-1.0239-0.17441-1.53-0.0847-0.49723-0.23267-0.98275-0.30124-1.4825-0.0799-0.58198-0.0507-1.1725-0.0476-1.7599 8e-3 -1.4753-0.14978-2.9484-0.12684-4.4236 0.0187-1.205 0.15782-2.4045 0.23783-3.607 0.0199-0.2987 0.0361-0.5977 0.0634-0.89582 0.13879-1.5162 0.56232-2.9987 0.65005-4.5187 0.0291-0.50402 0.021-1.0093 0.0159-1.5142-0.0119-1.1714-9e-3 -2.353-0.25082-3.4993-0.24174-1.1463-0.75222-2.2719-1.6359-3.041-0.89449-0.77845-2.1442-1.1312-3.3137-0.93545" fill="#cfc54a" style="paint-order:stroke markers fill"/>
  <path d="m90.928 57.765-0.2538-5.1793c-1.1165 0.22767-2.3257-0.04702-3.2343-0.73471-0.70272-0.53188-1.2175-1.2895-1.5314-2.1131-0.31392-0.82351-0.43438-1.7117-0.43566-2.5931-0.0026-1.7626 0.45948-3.4887 0.69866-5.2351 0.6169-4.5043-0.25395-9.0742-0.15855-13.62 0.0261-1.2434 0.12457-2.484 0.19026-3.726 0.20993-3.9692 0.08431-7.9561-0.37509-11.904 0.99814 0.14452 2.0013 0.2546 3.007 0.32997 2.689 0.20152 5.3895 0.15465 8.086 0.15855 0.77163 0.0011 1.5433 0.0064 2.3148 0.01585l1.9447 0.0134c-0.60831 4.0642-0.85616 8.1823-0.73969 12.29 0.0433 1.5275 0.13687 3.0541 0.12684 4.5821-0.0137 2.0905-0.22121 4.1745-0.3171 6.2628-0.0859 1.872-0.0818 3.7538 0.15577 5.6127 0.19631 1.536 0.55168 3.0552 0.60839 4.6027 0.0567 1.5474-0.21772 3.1714-1.1528 4.4057-0.83257 1.099-2.1662 1.8022-3.5434 1.8683-0.10998 0.39575-0.19476 0.79849-0.25367 1.205-0.18834 1.2996-0.10889 2.6375 0.23196 3.9057l-5.369-0.148z" fill="#cfc54a" style="paint-order:stroke markers fill"/>
  <g fill="#4a52cf">
   <path d="m55.18 45.314c-0.40412 0.46213-0.81526 0.91812-1.2332 1.3678-0.25571 0.27509-0.51402 0.54787-0.76236 0.82963-0.96577 1.0958-1.7761 2.3229-2.4665 3.61-0.77901 1.4524-1.4073 2.9821-2.1974 4.4285-0.96752 1.7713-2.1687 3.402-3.3409 5.0451-0.69843 0.979-1.3879 1.9645-2.0629 2.9598-0.98176 1.4477-1.9382 2.9229-3.1167 4.2154-0.99904 1.0957-2.1463 2.0472-3.1615 3.1279-0.94374 1.0046-1.7681 2.1151-2.6907 3.1392-1.4826 1.6457-3.2077 3.0559-4.7311 4.6639-0.35818 0.37805-0.70516 0.76697-1.0763 1.1323-1.3133 1.293-2.9007 2.2653-4.3723 3.3746-1.27 0.95728-2.4858 2.037-3.9621 2.6285-0.73814 0.29576-1.5375 0.46196-2.3304 0.40157-0.79289-0.0604-1.5787-0.35813-2.1607-0.89995-0.24756-0.23046-0.45694-0.50331-0.6054-0.80721-0.34422-0.70462-0.33366-1.5765 0.04538-2.2631 0.18952-0.34326 0.46562-0.63865 0.79682-0.84855s0.71691-0.33358 1.1085-0.35268c0.3396-0.01656 0.67836 0.04409 1.009 0.12332 0.3497 0.0838 0.69434 0.18869 1.0314 0.31392 2.23-1.7358 4.3372-3.6293 6.3007-5.6617 0.64168-0.66419 1.2683-1.3435 1.861-2.0517 1.1521-1.3764 2.1744-2.8595 3.3633-4.2042 0.57085-0.64561 1.1786-1.2575 1.7938-1.8611 1.9713-1.9339 4.0416-3.8077 5.5832-6.0989 0.33416-0.49667 0.64337-1.0129 1.0314-1.4687 0.27774-0.32623 0.59333-0.61844 0.87447-0.94175 0.65899-0.75784 1.115-1.6698 1.7265-2.4665 0.31528-0.41073 0.67077-0.78928 0.98658-1.1996 0.57559-0.74783 1.0119-1.5909 1.4799-2.4104 0.35849-0.62784 0.7376-1.245 1.166-1.8274 0.47137-0.6409 1.0006-1.2373 1.4799-1.8723 1.0983-1.4551 1.9231-3.0971 2.9597-4.5966 0.49575-0.7171 1.0483-1.4095 1.7489-1.9283 0.20746-0.15363 0.43137-0.29557 0.58298-0.50451 0.07309-0.10072 0.12716-0.21434 0.2018-0.31392 0.12856-0.1715 0.31802-0.29635 0.52632-0.34684 0.2083-0.05049 0.4339-0.02624 0.62671 0.06736s0.35142 0.25586 0.4406 0.45076c0.08918 0.1949 0.10828 0.42099 0.05305 0.62809-0.05522 0.20709-0.18436 0.39366-0.35874 0.51828-0.17438 0.12462-0.39272 0.18636-0.60654 0.17153-0.21382-0.01484-0.42154-0.10614-0.57704-0.25364-0.1555-0.1475-0.25764-0.35011-0.28374-0.56285" style="paint-order:stroke markers fill"/>
   <path d="m61.391 49.354c-0.51212 0.75951-1.0824 1.4798-1.7041 2.1526-0.83783 0.90656-1.7681 1.726-2.5786 2.6571-0.69714 0.8009-1.3005 1.6785-1.9732 2.5001-0.61664 0.75315-1.2911 1.4587-1.8835 2.231-0.70104 0.91408-1.2818 1.915-1.9732 2.8365-0.81985 1.0928-1.7907 2.0679-2.5786 3.184-0.792 1.1219-1.3865 2.3681-2.018 3.5876-1.0449 2.018-2.2004 3.9786-3.453 5.8747-0.47483 0.71872-0.96383 1.4285-1.4126 2.1638-0.81023 1.3275-1.4856 2.7317-2.175 4.1257-0.78084 1.579-1.5814 3.1482-2.3543 4.7312-0.42496 0.87034-0.84458 1.7533-1.0659 2.6962s-0.23218 1.962 0.1466 2.8534c0.38489 0.90576 1.1731 1.6311 2.1077 1.9395 0.34713 0.30473 0.79502 0.49268 1.2556 0.52693 0.70511 0.05243 1.4046-0.25309 1.937-0.71836s0.91471-1.0789 1.2246-1.7145c0.8072-1.6556 1.1663-3.5064 1.2108-5.3478 0.01191-0.49317 0.0019-0.98657 0-1.4799-0.0046-1.2207 0.04171-2.4488 0.29149-3.6437 0.3092-1.4791 0.92257-2.8743 1.5247-4.2603 0.67202-1.5468 1.339-3.1051 2.2422-4.5294 1.1527-1.8178 2.6705-3.3856 3.7894-5.2245 0.34032-0.55932 0.64338-1.1432 1.0314-1.6705 0.56159-0.76317 1.2863-1.3884 1.9283-2.0853 0.83109-0.90221 1.5214-1.9224 2.2422-2.9149 2.1608-2.9755 4.6212-5.7332 7.3321-8.2179" style="paint-order:stroke markers fill"/>
   <path d="m53.692 43.838c-0.25434-0.22732-0.49416-0.47089-0.71751-0.72873-0.32106-0.37064-0.60908-0.77172-0.96416-1.1099-0.12443-0.11851-0.25774-0.23005-0.35844-0.36928-0.05035-0.06962-0.09218-0.14603-0.11741-0.22815-0.02523-0.08213-0.03347-0.17021-0.01745-0.25462 0.01858-0.09788 0.06887-0.18741 0.1305-0.26569 0.06162-0.07829 0.13468-0.14666 0.20584-0.21639 0.60753-0.59533 1.0896-1.3038 1.6144-1.9732 1.0052-1.2822 2.1755-2.4309 3.1391-3.7446 0.28214-0.38463 0.54589-0.78251 0.82962-1.166 1.043-1.4097 2.3525-2.6152 3.8118-3.5876 1.229-0.81891 2.5726-1.4777 3.9979-1.864 1.4254-0.38632 2.9348-0.49536 4.388-0.23247 2.1255 0.38452 4.0481 1.5378 6.1661 1.962 2.4585 0.49237 5.0082-0.03048 7.3994-0.78479 0.66327-0.20923 1.3269-0.43769 2.018-0.51572 0.29873-0.03373 0.60002-0.03897 0.89919-0.06851 0.29917-0.02953 0.59977-0.08458 0.87216-0.21178 0.36671-0.17124 0.66191-0.46296 0.93638-0.76039s0.54005-0.6097 0.87281-0.84008c0.16638-0.11519 0.34909-0.20888 0.54426-0.26233 0.19517-0.05345 0.4033-0.06572 0.60065-0.02095 0.19735 0.04476 0.38319 0.14835 0.51436 0.30244 0.13117 0.15409 0.20445 0.35953 0.18637 0.56109-0.0159 0.17727-0.09957 0.34293-0.20847 0.48371-0.1089 0.14078-0.24277 0.25988-0.37451 0.37955-1.1249 1.0219-2.151 2.1465-3.2064 3.2401-0.98184 1.0174-1.9902 2.0091-2.9597 3.0383-0.61273 0.65041-1.2113 1.3171-1.8835 1.9059-0.37367 0.32733-0.76947 0.62991-1.1884 0.8969-0.43569 0.27769-0.89575 0.51658-1.3229 0.80721-0.36216 0.2464-0.69856 0.52857-1.0538 0.78479-1.4475 1.0439-3.1859 1.6361-4.9504 1.9033-1.7645 0.26726-3.5623 0.22206-5.3414 0.08107-1.0077-0.07986-2.0201-0.19028-3.027-0.1009-0.44236 0.03927-0.88062 0.11692-1.3229 0.15696-0.64273 0.05819-1.2942 0.03705-1.9283 0.15696-1.1746 0.2221-2.2404 0.94142-2.9149 1.9283-0.38264 0.55984-0.6415 1.1945-0.99403 1.7738-0.17626 0.28964-0.37704 0.56651-0.62043 0.80256-0.24339 0.23605-0.53114 0.43081-0.852 0.5404-0.11613 0.03966-0.23648 0.06812-0.35876 0.07848-0.40613 0.03441-0.81043-0.13549-1.1255-0.39409-0.31504-0.2586-0.5511-0.6001-0.758-0.95126-0.21398-0.36319-0.40149-0.74197-0.56056-1.1323z" style="paint-order:stroke markers fill"/>
   <path d="m65.038 41.326c-0.23792 0.52041-0.46964 1.0436-0.69509 1.5696-0.17618 0.411-0.34928 0.82513-0.57706 1.2099s-0.51404 0.74226-0.88039 0.99868c-0.51037 0.35721-1.1459 0.49958-1.6602 0.85119-0.25713 0.1758-0.48416 0.4091-0.60121 0.69775-0.05853 0.14432-0.08847 0.30102-0.07984 0.45652 0.0086 0.1555 0.05656 0.3096 0.14383 0.4386 0.07537 0.11141 0.17784 0.2019 0.2859 0.28199 0.10806 0.08009 0.22271 0.151 0.3306 0.23132 0.1079 0.08031 0.21003 0.17126 0.2847 0.28314 0.07468 0.11187 0.12041 0.24683 0.10779 0.38074-0.0075 0.07992-0.03582 0.15779-0.08133 0.22391-0.04551 0.06612-0.10815 0.12035-0.18011 0.15592-0.07196 0.03557-0.15308 0.05241-0.23325 0.04842-0.08017-4e-3 -0.15922-0.0288-0.22728-0.07135-0.06807-0.04254-0.12501-0.10272-0.16373-0.17304-0.03872-0.07032-0.05913-0.15061-0.05868-0.23088 4.44e-4 -0.08027 0.02174-0.16033 0.06123-0.23022 0.03949-0.06988 0.0971-0.12943 0.16563-0.17122 0.07449-0.04542 0.16174-0.06966 0.24898-0.06918 0.08724 4.82e-4 0.17422 0.02569 0.2482 0.07193 0.07398 0.04624 0.13475 0.11338 0.17341 0.19159 0.03866 0.07821 0.0551 0.16726 0.04692 0.25412 0.05433 0.98357 0.54803 1.9347 1.3211 2.5451 0.77311 0.61046 1.8128 0.87015 2.7821 0.69491 0.65684-0.11874 1.2681-0.42452 1.8181-0.80267 0.55003-0.37815 1.0454-0.82906 1.5453-1.2714 0.49332-0.43657 0.99329-0.86669 1.4574-1.3341 0.64925-0.65386 1.2248-1.3771 1.7714-2.1189 0.36939-0.50132 0.72759-1.0141 1.009-1.5696 0.54395-1.0737 0.7872-2.2978 0.69509-3.4979" style="paint-order:stroke markers fill"/>
   <path d="m74.321 27.413c-0.17162-0.05805-0.32268-0.17511-0.42172-0.32682-0.09904-0.15171-0.14544-0.33709-0.12954-0.51757 0.0159-0.18048 0.094-0.35489 0.21805-0.48694 0.12405-0.13205 0.29324-0.22089 0.47237-0.24803 0.17913-0.02714 0.36705 0.0076 0.52464 0.09697 0.1576 0.08938 0.28386 0.23282 0.35251 0.40049 0.06865 0.16767 0.07925 0.35847 0.0296 0.53271-0.04966 0.17424-0.15925 0.33079-0.30598 0.43707-0.20988 0.15203-0.49444 0.19514-0.73994 0.11211-0.1452-0.04911-0.27559-0.13975-0.37499-0.25642-0.0994-0.11667-0.1679-0.25888-0.20074-0.4086-0.06568-0.29943 0.01486-0.62224 0.19188-0.87251 0.17702-0.25027 0.4443-0.42983 0.7352-0.52651 0.2909-0.09668 0.60448-0.11375 0.90896-0.07818 0.60896 0.07113 1.1724 0.34424 1.7374 0.58241 0.56495 0.23817 1.1687 0.44818 1.7783 0.38263 0.51404-0.05528 0.98908-0.30372 1.4097-0.60428 0.42067-0.30056 0.7994-0.65596 1.2137-0.9653 1.2191-0.91034 2.6978-1.3899 4.1481-1.8499 0.2576-0.0817 0.51669-0.16385 0.75676-0.28794s0.4625-0.29348 0.61099-0.51927c0.17926-0.27257 0.23913-0.6135 0.20136-0.93753-0.03777-0.32404-0.16798-0.63226-0.34136-0.9086-0.34677-0.55268-0.85799-0.97982-1.2726-1.4836-0.292-0.35481-0.53513-0.74656-0.78478-1.1323-0.71758-1.1089-1.4995-2.1823-2.4216-3.1279-0.99406-1.0195-2.1852-1.9025-3.5651-2.2535-0.63767-0.16216-1.2983-0.20674-1.9507-0.29149-0.73808-0.09588-1.4767-0.24422-2.2198-0.2018-1.0142 0.05789-1.9816 0.47122-2.8345 1.0231-0.85292 0.55187-1.6066 1.241-2.3674 1.9143-0.45563 0.40318-0.92781 0.818-1.1884 1.3678-0.15813 0.33364-0.22977 0.70036-0.33633 1.0539-0.17423 0.57796-0.44255 1.1222-0.69509 1.6705-0.75403 1.6371-1.3861 3.3896-1.3229 5.1908 0.02954 0.84191 0.21283 1.6782 0.53813 2.4553" style="paint-order:stroke markers fill"/>
   <path d="m67.46 27.38c-0.14772-0.03168-0.28443-0.11261-0.38325-0.22687-0.09883-0.11427-0.1592-0.26122-0.16925-0.41196-0.01005-0.15074 0.03028-0.3044 0.11306-0.43078 0.08278-0.12637 0.20754-0.22474 0.34974-0.27574 0.12874-0.04618 0.2675-0.05368 0.4036-0.06727 0.29948-0.0299 0.59607-0.09131 0.89689-0.1009 0.62336-0.01988 1.229 0.18223 1.8386 0.31392 0.37333 0.08064 0.75251 0.13541 1.1211 0.23544 1.4426 0.39147 2.667 1.5124 3.184 2.9149" style="paint-order:stroke markers fill"/>
  </g>
  <path d="m69.052 37.414c-0.52347-0.20325-0.96339-0.61332-1.2028-1.1212-0.23946-0.50793-0.27589-1.1082-0.09959-1.6414 0.17629-0.53316 0.5634-0.9934 1.0585-1.2585s1.0927-0.33203 1.6342-0.18315c0.69258 0.19044 1.2761 0.73883 1.5092 1.4183 0.23307 0.67942 0.10901 1.4706-0.32083 2.046-0.28736 0.38472-0.7031 0.6718-1.1647 0.80425-0.46156 0.13245-0.96627 0.1095-1.4139-0.06431z" fill="#fff" style="paint-order:stroke markers fill"/>
  <g fill="#4acf93">
   <path d="m36.859 13.935c0.69687 0.42462 1.3883 0.85817 2.0741 1.3005 0.3406 0.2197 0.67994 0.44166 1.009 0.67828 0.55232 0.39716 1.0748 0.83502 1.6338 1.2227s1.1616 0.72771 1.8192 0.9018c0.49935 0.13219 1.0194 0.16592 1.5359 0.17378 2.0135 0.03064 4.0195-0.32326 5.9531-0.88569 1.0018-0.29139 1.987-0.63869 2.9934-0.91372 0.63138-0.17254 1.2709-0.31652 1.9171-0.42042 2.9359-0.47205 5.9657-0.10429 8.812 0.75676 0.44257 0.13389 0.88458 0.28086 1.2893 0.50451 0.31785 0.17565 0.60829 0.39619 0.89689 0.61662 0.11539 0.08813 0.23412 0.18034 0.3027 0.30831 0.05634 0.10514 0.07435 0.22842 0.06207 0.34707s-0.05367 0.23298-0.10979 0.33824c-0.11224 0.21051-0.28097 0.38439-0.42315 0.57596-0.26819 0.36134-0.44134 0.78602-0.5559 1.2212-0.11456 0.43516-0.17276 0.88289-0.22888 1.3294-0.08425 0.67034-0.16461 1.3452-0.12876 2.0199 0.03585 0.67466 0.19403 1.3552 0.55478 1.9265 0.14816 0.2346 0.329 0.44885 0.45748 0.69477 0.06424 0.12296 0.1151 0.25392 0.13869 0.39063 0.02359 0.13671 0.01917 0.2796-0.0244 0.41131-0.06164 0.18632-0.19968 0.34197-0.36601 0.44614-0.16633 0.10417-0.35958 0.15972-0.55428 0.18433-0.38941 0.04922-0.78389-0.02092-1.1762-0.0082-0.89275 0.02885-1.7283 0.49005-2.3768 1.1043-0.17296 0.16383-0.33597 0.33963-0.52692 0.48208-0.28378 0.21171-0.62032 0.34311-0.9081 0.54935-0.32699 0.23434-0.57924 0.55638-0.87447 0.82964-0.44111 0.40828-0.97712 0.70658-1.4014 1.1323-0.40626 0.40768-0.69384 0.91556-1.034 1.3798-0.17008 0.23213-0.35493 0.45513-0.57085 0.64537s-0.46434 0.34748-0.73827 0.43568c-0.29818 0.096-0.62635 0.11116-0.89689 0.26907-0.077 0.04494-0.14739 0.10051-0.22422 0.14575-0.18181 0.10703-0.39603 0.15284-0.60696 0.14876-0.21094-0.0041-0.41899-0.0564-0.61494-0.1346-0.3919-0.1564-0.73419-0.41279-1.0988-0.62517-0.42081-0.24512-0.87475-0.43336-1.2781-0.70631-0.30376-0.20557-0.57396-0.45595-0.85205-0.6951-0.51739-0.44495-1.0662-0.85418-1.648-1.2108-0.50443-0.30921-1.0332-0.57874-1.5247-0.90811-0.19134-0.12822-0.37755-0.26582-0.58298-0.36997-0.24341-0.12341-0.50841-0.19717-0.76236-0.2971-0.28789-0.11329-0.56118-0.26007-0.84084-0.3924-1.4677-0.69448-3.1438-0.98526-4.7423-0.7007-0.88648 0.1578-1.7325 0.48558-2.601 0.72313-0.34507 0.09438-0.69449 0.17473-1.0325 0.29202-0.33797 0.11729-0.66697 0.27366-0.9407 0.50398-0.12572 0.10578-0.23888 0.22648-0.33633 0.35876" style="paint-order:stroke markers fill"/>
   <path d="m30.485 11.381 0.69509 0.28028-0.69509-0.28028 4.8881 0.6951c0.53971 0.80356 0.99868 1.6613 1.3678 2.5562 1.2706 3.0806 1.4428 6.5254 1.0314 9.8323-0.17209 1.3835-0.44769 2.7699-1.0314 4.0361-0.13019 0.28238-0.27522 0.5577-0.42602 0.82964-0.4865 0.87729-1.0339 1.7208-1.6368 2.5225l-4.5966-0.81842c0.1579-0.01496 0.3151-0.03741 0.47087-0.06727 0.39879-0.07644 0.79069-0.20266 1.1435-0.40361 0.6397-0.36431 1.1247-0.9613 1.4536-1.6199 0.32897-0.65858 0.51258-1.3798 0.65406-2.1023 0.23456-1.1978 0.35948-2.4139 0.53814-3.6212 0.23839-1.611 0.57371-3.2373 0.38118-4.8545-0.07879-0.66182-0.24505-1.3095-0.38118-1.962-0.18977-0.90952-0.33578-1.8664-0.87447-2.6234-0.2818-0.39601-0.65801-0.71576-1.0538-0.9978-0.64416-0.45898-1.3513-0.82939-2.0954-1.0976z" style="paint-order:stroke markers fill"/>
   <path d="m26.18 13.343c-1.1791 2.0513-1.8616 4.3858-1.9732 6.7492-0.10208 2.1629 0.26801 4.3297 0.89689 6.4016 0.39694 1.3078 0.92024 2.6215 1.8691 3.6052 0.47443 0.49181 1.0523 0.89148 1.6987 1.1132s1.3626 0.25938 2.0154 0.05745c0.54822-0.16958 1.0392-0.50282 1.4304-0.92259 0.39127-0.41977 0.6856-0.92404 0.89845-1.457 0.4257-1.0658 0.52741-2.2287 0.63086-3.3717 0.17425-1.9253 0.36625-3.8549 0.31309-5.7874-0.05315-1.9324-0.35942-3.8808-1.1427-5.6481-0.22028-0.49702-0.47879-0.97995-0.80942-1.4115-0.33064-0.43155-0.73591-0.81154-1.2122-1.0736-0.81877-0.45039-1.8361-0.52244-2.7102-0.19194s-1.5892 1.0576-1.9052 1.9371z" style="paint-order:stroke markers fill"/>
  </g>
  <path d="m118.15 86.059-0.5637 2.4851 1.8735 1.8085 3.1031-0.69682 0.77252-2.6429-1.6811-1.4409c-0.18526-0.22452-0.41901-0.40883-0.68056-0.53661-0.38833-0.18972-0.83764-0.25204-1.263-0.17519-0.42531 0.07685-0.82439 0.29249-1.1218 0.60612-0.0458 0.11284-0.12092 0.21362-0.21603 0.28965-0.0951 0.07603-0.20997 0.12715-0.33012 0.14693-0.0984 0.0162-0.19948 0.0116-0.29799-0.0042-0.30683-0.04921-0.59049-0.2069-0.81726-0.41936-0.22676-0.21246-0.39925-0.47785-0.53181-0.7589-0.26513-0.5621-0.37424-1.1836-0.57924-1.7703-0.33107-0.94752-0.90612-1.7889-1.3229-2.7019-0.27107-0.59382-0.47616-1.22-0.8072-1.7826-0.10728-0.18232-0.22722-0.35691-0.33634-0.53814-0.39158-0.65034-0.63905-1.3776-1.009-2.0404-0.23247-0.41655-0.51176-0.80492-0.76236-1.2108-0.84191-1.3636-1.3484-2.9042-2.0628-4.3388-0.4892-0.98234-1.0751-1.9132-1.592-2.8813-0.67264-1.2597-1.2265-2.5785-1.8162-3.8791-0.285-0.6286-0.57904-1.2545-0.80721-1.9059-0.0938-0.26768-0.17624-0.5392-0.26906-0.80721-0.4935-1.4249-1.2725-2.7322-2.0853-4.0024-0.87283-1.3641-1.8017-2.7208-2.3083-4.259-0.25328-0.76909-0.39679-1.5799-0.35988-2.3888 0.0369-0.80888 0.25929-1.6163 0.69498-2.2988 0.23027-0.36072 0.517-0.68313 0.82963-0.97538 0.89232-0.83416 1.9862-1.4198 2.9373-2.1862 0.29182-0.23515 0.57028-0.4874 0.87447-0.70631 0.87756-0.63152 1.9336-0.96184 2.87-1.5023 0.66655-0.38472 1.2698-0.87452 1.9507-1.2332 0.62253-0.32797 1.2984-0.54033 1.9732-0.73994 0.72744-0.2152 1.4829-0.43027 2.0628-0.91932 0.27028-0.22793 0.49806-0.51233 0.8072-0.68389 0.20689-0.11482 0.44012-0.17296 0.6726-0.21698 0.23248-0.04402 0.46808-0.0753 0.69516-0.14178 0.51614-0.15111 0.96095-0.47481 1.435-0.72873 0.53401-0.28602 1.1096-0.48521 1.6592-0.73994 0.30181-0.13988 0.59583-0.29656 0.88025-0.46908l-1.7123 1.8942 2.1764 2.7683 2.3438 0.12095 2.2861-2.3605-1.4555-2.7836-3.1004-0.05606-1.4477 2.4323 1.7144 2.2418 1.899 0.48535c-0.66253-0.02672-1.3318 0.14211-1.9023 0.4799-0.39103 0.2315-0.73573 0.53949-1.1435 0.73994-0.38346 0.18848-0.8079 0.27462-1.2279 0.35314s-0.84529 0.15248-1.2386 0.31954c-0.48599 0.20646-0.90252 0.54627-1.3678 0.796-0.70018 0.37584-1.4941 0.53951-2.2198 0.86327-1.1283 0.50335-2.0524 1.3742-3.1391 1.962-0.80833 0.43721-1.6937 0.71093-2.5313 1.089-0.83764 0.37803-1.6548 0.88682-2.155 1.6578-0.40251 0.62048-0.56994 1.369-0.6054 2.1077-0.10288 2.1431 0.8361 4.1943 1.9059 6.0541 0.44886 0.78033 0.92564 1.5471 1.3005 2.3656 0.29544 0.64507 0.52773 1.3224 0.89689 1.9283 0.22882 0.37557 0.50702 0.71822 0.76236 1.0763 0.90978 1.2758 1.5214 2.7345 2.2422 4.1257 0.35386 0.68299 0.73504 1.3514 1.0987 2.0292 0.4394 0.81904 0.85317 1.6517 1.3005 2.4665 0.55385 1.0088 1.1609 1.9937 1.592 3.0607 0.35327 0.87441 0.59152 1.8095 1.1211 2.5898 0.29331 0.43219 0.67054 0.8076 0.91931 1.2669 0.20254 0.37392 0.31337 0.79195 0.51572 1.166 0.19201 0.35491 0.46256 0.663 0.65024 1.0202 0.26848 0.51101 0.35939 1.1072 0.67267 1.592 0.13067 0.20223 0.29694 0.37973 0.42602 0.58298 0.19099 0.30073 0.29599 0.65541 0.29948 1.0116 3e-3 0.35623-0.0945 0.7129-0.27958 1.0173" fill="#cf564a" style="paint-order:stroke markers fill"/>
  <g fill="#d561bc">
   <path d="m71.724 61.84c0.0621 3e-3 0.12326 0.02352 0.17467 0.05848 0.05142 0.03496 0.09294 0.0843 0.11861 0.14094 0.02567 0.05663 0.03539 0.12038 0.02779 0.18209-0.0076 0.06171-0.03253 0.12119-0.07118 0.1699-0.03865 0.0487-0.09092 0.08648-0.14928 0.10791-0.05837 0.02143-0.12266 0.02644-0.18365 0.01431-0.06098-0.01213-0.11847-0.04136-0.1642-0.08349-0.04573-0.04213-0.07956-0.09703-0.09663-0.15682-0.02956-0.1035-0.0063-0.22065 0.06065-0.30496 0.06691-0.08431 0.1757-0.13362 0.28321-0.12835 0.0952 0.0047 0.1867 0.05075 0.25116 0.12098 0.06445 0.07022 0.1022 0.16328 0.11035 0.25825 0.0081 0.09497-0.01254 0.1915-0.05394 0.27736-0.04139 0.08586-0.10302 0.16124-0.17537 0.2233-0.1447 0.12411-0.32843 0.19358-0.51312 0.24082-0.18469 0.04724-0.37423 0.07467-0.5574 0.12749-0.38196 0.11015-0.72988 0.33154-0.99822 0.62484-0.26833 0.2933-0.4572 0.65714-0.55157 1.0433-0.18872 0.77233 0.01155 1.6162 0.47334 2.2634 0.46178 0.6472 1.1675 1.1016 1.931 1.3234 0.76351 0.22173 1.5816 0.21989 2.3616 0.06599 0.26466-0.05222 0.52603-0.12165 0.78068-0.21066 1.4685-0.51334 2.6285-1.6394 3.7102-2.7574 0.76078-0.78627 1.5138-1.5918 2.0935-2.5197 0.70738-1.1323 1.1451-2.4703 1.0217-3.7997-0.07439-0.80115-0.36848-1.6068-0.9498-2.1631-0.38244-0.36597-0.86777-0.60642-1.3628-0.79388-0.47021-0.17806-0.96369-0.31445-1.4665-0.31616-0.50279-0.0017-1.0186 0.14163-1.3998 0.46945-0.27288 0.23465-0.46309 0.54861-0.69427 0.82443-0.34773 0.41487-0.78799 0.7426-1.2462 1.0308-0.57109 0.35926-1.1804 0.66617-1.6931 1.1047-0.25637 0.21926-0.48735 0.47149-0.65975 0.76146-0.1724 0.28996-0.28484 0.6191-0.29846 0.95617-0.0058 0.14396 0.0062 0.28824-7.8e-4 0.43215-7e-3 0.14391-0.0347 0.2909-0.11237 0.41225-0.09562 0.14938-0.25509 0.24344-0.40768 0.33385-0.0763 0.04521-0.15257 0.09103-0.22213 0.14604-0.06956 0.05501-0.13259 0.11977-0.17683 0.19663-0.07168 0.12453-0.08969 0.27159-0.11154 0.41361-0.11553 0.75109-0.37814 1.4966-0.29084 2.2515 0.0911 0.7878 0.55728 1.487 1.1108 2.0549s1.2016 1.035 1.7779 1.5798c0.25342 0.23959 0.49839 0.49823 0.80836 0.65804 0.37252 0.19205 0.80382 0.22381 1.2099 0.3275 0.69728 0.17804 1.3203 0.56926 1.903 0.99153 0.32463 0.23524 0.64086 0.48188 0.95397 0.73225 0.46585 0.3725 0.92622 0.75432 1.4277 1.0773 0.27002 0.17391 0.55193 0.33075 0.80594 0.52732 0.44879 0.3473 0.7985 0.80924 1.2465 1.1576 0.28325 0.22024 0.60084 0.39121 0.90875 0.57541 0.72936 0.4363 1.4096 0.95038 2.0642 1.4924 1.6466 1.3632 3.1362 2.9049 4.5812 4.4801 0.4661 0.50808 0.92941 1.0214 1.4504 1.473 0.39178 0.33958 0.81681 0.64492 1.1615 1.0322 0.22777 0.25596 0.41712 0.5442 0.64561 0.79952 0.34472 0.38519 0.77242 0.68876 1.1199 1.0715 0.21094 0.23233 0.39 0.49129 0.57726 0.7431 1.1399 1.5328 2.5889 2.8073 3.8158 4.2713 0.47987 0.57261 0.92581 1.1743 1.4332 1.7227 0.50739 0.54838 1.084 1.0474 1.7606 1.364 0.29275 0.137 0.60598 0.23943 0.9287 0.2575 0.32271 0.01807 0.65648-0.05312 0.92161-0.238 0.12087-0.08429 0.22502-0.18986 0.33194-0.29127 0.10691-0.10141 0.21884-0.20032 0.34997-0.26756 0.15797-0.08101 0.33691-0.11255 0.49845-0.18619 0.24611-0.11219 0.43822-0.31535 0.60846-0.52553 0.17024-0.21018 0.3272-0.43427 0.53192-0.61104 0.16011-0.13826 0.34518-0.2438 0.52215-0.3597 0.54638-0.35785 1.0225-0.82123 1.4017-1.353 0.19904-0.27905 0.37133-0.57607 0.557-0.86419 0.25042-0.38861 0.53389-0.76958 0.91939-1.0248 0.15348-0.1016 0.32377-0.18394 0.44789-0.31986 0.10948-0.11989 0.17482-0.27285 0.23174-0.4249 0.0569-0.15205 0.10831-0.30816 0.19632-0.44458 0.10024-0.15538 0.24294-0.27755 0.3712-0.41074 0.33836-0.35138 0.58362-0.79397 0.68924-1.2702s0.0695-0.98488-0.1146-1.4366c-0.222-0.5447-0.64034-0.9813-1.0416-1.4114-0.79003-0.84677-1.5495-1.7222-2.357-2.5523-0.47316-0.48641-0.96421-0.95842-1.508-1.3643-0.57559-0.4296-1.2047-0.78105-1.8157-1.1585-1.0314-0.6372-2.0138-1.3502-2.9884-2.0713-0.23123-0.17109-0.4621-0.3427-0.696-0.51013-0.85488-0.61193-1.7504-1.1682-2.5742-1.8213-0.26122-0.20712-0.51505-0.42384-0.78458-0.62002-1.0147-0.73854-2.2246-1.1672-3.2617-1.8739-1.1703-0.79751-2.0896-1.9278-3.2864-2.685-0.42389-0.26819-0.87924-0.48723-1.2838-0.78381-0.49521-0.36307-0.90191-0.83323-1.3784-1.2205-0.23212-0.18865-0.48066-0.35752-0.70078-0.56004-0.59198-0.54466-0.9469-1.3016-1.5023-1.8836-0.30216-0.31661-0.6583-0.57578-0.98908-0.86237-0.61812-0.53555-1.1479-1.1678-1.6092-1.8431-0.1476-0.21611-0.28839-0.4368-0.43521-0.65344-0.42369-0.62517-0.89753-1.2163-1.4155-1.766" style="paint-order:stroke markers fill"/>
   <path d="m69.394 66.941c0.9631 0.34146 1.9609 0.58495 2.973 0.72548 1.0569 0.14675 2.1365 0.18071 3.1884 0.0023 1.0266-0.1741 2.0216-0.55283 2.8857-1.1338s1.5949-1.3659 2.0833-2.2855c0.43954-0.82747 0.67826-1.748 0.82722-2.673 0.18276-1.1349 0.23563-2.2906 0.15726-3.4375" style="paint-order:stroke markers fill"/>
   <path d="m42.996 36.529c2.8861 1.838 5.6812 3.819 8.3715 5.9333 4.1926 3.2949 8.1305 6.9139 11.767 10.814l5.5769 5.2593c1.0596 1.098 2.0249 2.2869 2.8818 3.5495 0.28625 0.42174 0.56084 0.85224 0.87544 1.2533 0.25059 0.31944 0.53704 0.62756 0.90705 0.79466 0.24816 0.11207 0.52428 0.15513 0.79643 0.14641 0.27215-0.0087 0.5409-0.06797 0.79956-0.15301 0.75394-0.24788 1.4411-0.73112 1.8682-1.4001 0.45232-0.70861 0.59044-1.5745 0.60509-2.4151 0.0011-0.06539 0.0016-0.13089-0.0036-0.19608-0.02269-0.28483-0.15323-0.55296-0.3282-0.77885-0.36216-0.46756-0.92719-0.77212-1.5169-0.81759-3.1089-1.6054-6.0279-3.5783-8.6766-5.8645-2.2391-1.9327-4.2794-4.0823-6.4159-6.1278-1.8916-1.8111-3.8596-3.5416-5.7306-5.3739-2.1729-2.1278-4.2292-4.4133-5.7468-7.0488-0.24082-0.41823-0.46756-0.84443-0.6877-1.2739-0.1133-0.22105-0.22664-0.44564-0.39067-0.63218-0.08202-0.09327-0.17652-0.17636-0.28379-0.23895-0.10728-0.06259-0.22766-0.1043-0.35151-0.11362-0.14598-0.01099-0.29344 0.02337-0.42551 0.08651-0.13207 0.06315-0.24941 0.15431-0.35286 0.2579-0.20689 0.20717-0.35836 0.46185-0.53497 0.69538-0.758 1.0023-1.9424 1.5768-2.882 2.4112-0.09922 0.08811-0.1964 0.17991-0.27465 0.28708-0.07825 0.10717-0.13724 0.23124-0.15172 0.36315-0.01269 0.1156 0.0098 0.23484 0.06373 0.33787 0.05393 0.10304 0.1391 0.18946 0.24132 0.24491z" style="paint-order:stroke markers fill"/>
   <path d="m99.315 90.686 1.6436-1.075c-0.4003-0.28311-0.78894-0.58269-1.1646-0.89774-1.8578-1.558-3.3761-3.4734-5.0566-5.2211-2.1673-2.2539-4.6048-4.2288-6.878-6.3759-1.0421-0.98429-2.0495-2.0047-3.0845-2.9965-1.1662-1.1176-2.3672-2.1986-3.5308-3.3189-0.70571-0.67939-1.3976-1.3731-2.0752-2.0806l-1.7918 1.1411c0.25834 0.36911 0.54938 0.71532 0.86859 1.0333 0.56589 0.56366 1.2156 1.0345 1.8439 1.5277 0.78165 0.61352 1.5354 1.2659 2.3644 1.8137 0.3662 0.242 0.74632 0.46309 1.1037 0.71793 0.93661 0.66786 1.6948 1.5505 2.5375 2.3336 0.73181 0.68 1.5292 1.2863 2.2653 1.9617 0.64956 0.59602 1.2493 1.2439 1.8826 1.8573 1.1614 1.1249 2.4371 2.1352 3.5083 3.3463 0.31235 0.35315 0.60619 0.72216 0.9048 1.087 0.6478 0.7915 1.3186 1.564 2.0028 2.3243 0.86418 0.96031 1.7499 1.9013 2.6561 2.822z" style="paint-order:stroke markers fill"/>
   <path d="m82.653 65.464-2.2409 2.4532c0.37743 0.1428 0.74586 0.30939 1.1024 0.49846 0.37652 0.19967 0.73948 0.42423 1.0929 0.66239 0.5004 0.3372 0.98262 0.70231 1.4325 1.1044 0.26908 0.24052 0.52625 0.49396 0.78768 0.74276 0.43683 0.41573 0.88596 0.81888 1.3541 1.199 0.84044 0.68235 1.7409 1.2894 2.5646 1.9918 0.73168 0.62387 1.4008 1.3212 2.1642 1.9059 0.21515 0.16478 0.43731 0.32021 0.65321 0.484 0.82094 0.6228 1.5454 1.3616 2.3093 2.0532 0.717 0.64917 1.4701 1.2579 2.1779 1.9172 0.56612 0.52731 1.1026 1.0863 1.6816 1.5995 1.0178 0.90203 2.1633 1.6588 3.123 2.6225 0.86782 0.87139 1.5724 1.9048 2.0666 3.0309l0.77655-0.12213 2.6808-3.5152c-0.4068-0.08043-0.81099-0.17411-1.2117-0.28084-0.43487-0.11584-0.86597-0.24717-1.2866-0.4073-0.79598-0.30305-1.5503-0.70779-2.2718-1.1604-0.56532-0.35466-1.1118-0.73932-1.6361-1.1523-0.54682-0.43075-1.0689-0.89186-1.5877-1.356-0.73074-0.65366-1.4556-1.3138-2.1813-1.9731-0.92188-0.83763-1.845-1.6739-2.7753-2.5022-1.0084-0.89782-2.0253-1.7861-3.0457-2.6703-0.73227-0.63444-1.4665-1.2668-2.214-1.8832-0.78797-0.64974-1.5916-1.2825-2.3342-1.9836-0.66761-0.63027-1.2858-1.3165-1.8037-2.0746-0.35108-0.51392-0.65527-1.0598-0.90757-1.6288l-0.47077 0.44475z" style="paint-order:stroke markers fill"/>
   <path d="m84.679 63.164-0.54743 0.81546c0.45373 0.4756 0.93121 0.92854 1.4301 1.3566 0.97819 0.83926 2.0358 1.5805 3.0471 2.3795 1.4028 1.1082 2.716 2.3269 4.1291 3.4219 0.79886 0.61902 1.6285 1.1976 2.4248 1.8199 0.77939 0.60914 1.5258 1.2594 2.3021 1.8726 1.1154 0.88102 2.2921 1.6852 3.3677 2.6143 0.58168 0.5024 1.132 1.0398 1.6893 1.5691 0.48134 0.45713 0.96817 0.90848 1.4611 1.3531 0.98356 0.88719 1.9913 1.7476 3.0218 2.5798l1.5226-1.1088c-0.14667-0.29373-0.36342-0.55217-0.62712-0.74775-0.24761-0.18364-0.53182-0.31012-0.80829-0.4465-0.81003-0.39961-1.5708-0.89488-2.2864-1.4459-0.43595-0.33568-0.85557-0.69218-1.2928-1.0262-0.63748-0.48698-1.3108-0.9249-1.9617-1.3938-0.84686-0.60999-1.655-1.2717-2.4853-1.904-1.6375-1.247-3.3604-2.3791-4.9896-3.637-1.1691-0.90265-2.2878-1.8684-3.4306-2.8041-0.95692-0.78348-1.9312-1.5463-2.865-2.3571-0.89656-0.77848-1.7546-1.6002-2.6059-2.4279-0.16538-0.1608-0.33052-0.32185-0.49543-0.48313z" style="paint-order:stroke markers fill"/>
  </g>
 </g>
</svg>
