<svg width="63.015mm" height="28.713mm" version="1.1" viewBox="0 0 63.015 28.713" xmlns="http://www.w3.org/2000/svg" xmlns:xlink="http://www.w3.org/1999/xlink">
 <defs>
  <linearGradient id="a">
   <stop stop-color="#539ad1" offset="0"/>
   <stop stop-color="#ff2d0e" stop-opacity=".74843" offset=".29936"/>
   <stop stop-color="#f33c07" stop-opacity=".6549" offset=".71"/>
   <stop stop-color="#e7d800" stop-opacity=".55975" offset=".96815"/>
  </linearGradient>
  <linearGradient id="c" x1="14.39" x2="44.08" y1="51.612" y2="51.612" gradientUnits="userSpaceOnUse" xlink:href="#a"/>
  <linearGradient id="b" x1="20.492" x2="38.087" y1="51.545" y2="51.545" gradientUnits="userSpaceOnUse" xlink:href="#a"/>
 </defs>
 <g transform="translate(-12.708 -36.822)">
  <path d="m43.475 58.102c-3.2953 2.239-6.9526 3.944-10.786 5.0283-3.8867 1.0993-7.9532 1.5601-11.987 1.3584-2.7259-2.0111-4.837-4.8442-5.9845-8.0314-1.4152-3.9307-1.3352-8.3796 0.22034-12.257 3.1433-1.8763 6.5157-3.3684 10.018-4.4324 3.9185-1.1903 7.9995-1.8441 12.094-1.9375 3.0579 2.5164 5.3214 5.9842 6.3942 9.7963 0.9576 3.4028 0.96857 7.0668 0.03137 10.475z" fill="url(#c)" stroke="#fff" stroke-linecap="round" stroke-width="2"/>
  <path d="m36.118 48.717c-0.60968-1.4942-1.499-2.8736-2.6083-4.0457-2.1576 0.17311-4.2952 0.59596-6.3562 1.2574-1.929 0.61908-3.7908 1.447-5.5426 2.4646-0.24589 1.7838-0.10993 3.6192 0.3961 5.3473 0.49756 1.6992 1.3522 3.2928 2.4924 4.6474 2.2183-0.30725 4.4111-0.79876 6.5484-1.4678 2.0643-0.64623 4.0768-1.4581 6.0117-2.4251 0.12666-1.9641-0.19787-3.9559-0.94143-5.7781z" fill="url(#b)" stroke="#fff" stroke-linecap="round" stroke-width="2"/>
  <g fill="none">
   <g stroke-linecap="round">
    <path d="m30.628 49.424c-0.63031-0.43465-1.454-0.57671-2.1935-0.3783s-1.3814 0.7337-1.7095 1.4255c-0.32808 0.69179-0.33636 1.5276-0.02206 2.2257 0.3143 0.69816 0.9455 1.2461 1.6809 1.4591 0.59222 0.17155 1.247 0.1272 1.8045-0.13628 0.55743-0.26348 1.0104-0.74649 1.2237-1.325 0.18504-0.5018 0.19008-1.0537 0.12167-1.5842-0.04575-0.3547-0.12528-0.71076-0.29741-1.0242-0.14568-0.26533-0.35633-0.49468-0.60834-0.66235z" stroke="#fff" stroke-width="2.4239"/>
    <path d="m32.376 47.352c-0.1134-0.04933-0.24395-0.0581-0.36293-0.02438s-0.22552 0.10967-0.29618 0.21116c-0.05763 0.08277-0.09135 0.18156-0.09905 0.28212-0.0077 0.10056 0.01037 0.20267 0.04961 0.29558 0.06323 0.14972 0.18285 0.27528 0.33039 0.34343 0.14754 0.06815 0.32168 0.07766 0.47496 0.02365 0.15328-0.05401 0.28358-0.17146 0.35095-0.31936 0.06737-0.1479 0.0702-0.32436 0.0054-0.47339-0.03935-0.09048-0.10262-0.17042-0.18164-0.2295-0.07902-0.05908-0.17359-0.09716-0.2715-0.1093z" stroke="#fff" stroke-width="1.5092"/>
    <path d="m73.552 46.082c-2.5382-1.9463-5.3132-3.5835-8.2443-4.8639-3.394-1.4827-6.997-2.486-10.669-2.9708-1.9452 1.05-3.6525 2.538-4.9584 4.3216-1.7376 2.3731-2.7526 5.2774-2.8177 8.218-0.04689 2.1167 0.3936 4.2427 1.2776 6.1665 2.7211 1.58 5.5426 2.987 8.4419 4.2098 2.6541 1.1195 5.3734 2.0845 8.1394 2.8888 2.7883-0.39678 5.4097-1.8682 7.2007-4.0417 2.0462-2.4832 2.9645-5.7992 2.7765-9.0113-0.09879-1.6883-0.48853-3.3591-1.1469-4.9168z" stroke="#de3131" stroke-width="2"/>
   </g>
   <path d="m53.255 53.099c1.586 1.4094 3.4039 2.5574 5.3581 3.3838 1.8242 0.77134 3.7666 1.2625 5.7382 1.4509 1.4756-0.91564 2.656-2.2992 3.3277-3.9006 0.65144-1.5529 0.82255-3.3035 0.48416-4.9532-1.4809-1.2797-3.1393-2.3536-4.9129-3.1814-1.8836-0.87913-3.8967-1.4802-5.954-1.7776-1.5976 0.99988-2.8618 2.523-3.5502 4.2776-0.58244 1.4845-0.75415 3.1277-0.4912 4.7006z" stroke-opacity="0"/>
   <path d="m58.81 51.458 3.3109 0.30632-2.1487-2.416z" stroke="#de3131" stroke-linecap="round" stroke-width="2"/>
  </g>
  <path transform="matrix(.26458 0 0 .26458 12.17 21.835)" d="m190.01 152.7c-16.668-5.6041-33.201-12.838-47.209-20.656-4.1569-2.3199-4.1583-2.3218-5.7424-7.7571-2.2446-7.7016-2.5661-15.737-0.94717-23.677 1.8544-9.0948 6.9834-18.635 13.729-25.536 2.7906-2.8552 7.2968-6.4809 9.9197-7.9816l1.7353-0.99283 4.3507 0.78352c21.817 3.929 41.613 12.151 59.098 24.545l3.8948 2.7608 0.99317 3.0856c2.0309 6.3096 2.3761 8.6218 2.3761 15.915 0 7.2273-0.41529 10.059-2.2727 15.498-1.1405 3.3392-3.989 8.868-5.8212 11.299-4.9329 6.5441-12.009 11.632-19.653 14.13-5.1954 1.6978-5.1928 1.698-14.452-1.4151zm10.218-13.518c11.692-7.9399 17.7-21.722 15.467-35.48-0.42409-2.6126-0.55183-2.91-1.674-3.8976-5.6418-4.9656-14.696-10.567-22.225-13.75-5.4896-2.3206-13.192-4.531-19.113-5.4852l-3.0351-0.4891-2.4865 1.6628c-4.7035 3.1454-9.6677 8.8296-12.345 14.136-3.1126 6.1683-4.4855 14.147-3.6324 21.111l0.40207 3.2823 2.8093 2.3239c11.369 9.405 24.882 15.374 39.35 17.381 4.4343 0.61523 4.3997 0.61948 6.483-0.79531z" fill="#de3131" stroke="#de3131" stroke-linecap="round" stroke-width="2.4552"/>
 </g>
</svg>
